<svg width="42" height="43" viewBox="0 0 42 43" fill="none" xmlns="http://www.w3.org/2000/svg">
<path fill-rule="evenodd" clip-rule="evenodd" d="M20.9137 42.2743C32.3138 42.2743 41.5553 33.0327 41.5553 21.6327C41.5553 10.2327 32.3138 0.991211 20.9137 0.991211C9.51375 0.991211 0.272217 10.2327 0.272217 21.6327C0.272217 33.0327 9.51375 42.2743 20.9137 42.2743ZM32.5065 31.8257C30.2937 31.5173 28.2425 30.494 26.6653 28.9116L23.2578 25.5063L20.1274 22.3759L20.0711 22.3196C19.8967 22.1326 19.7997 21.8863 19.7997 21.6306C19.7997 21.3748 19.8967 21.1286 20.0711 20.9415L20.1274 20.8853L22.9853 18.0317L26.6631 14.3539C28.2403 12.7715 30.2916 11.7481 32.5043 11.4397C31.5839 11.3112 30.6503 11.3068 29.7287 11.4267C27.4807 11.7193 25.393 12.7487 23.7922 14.3539L20.1144 18.0317L17.2067 20.9393L17.2045 20.9417V15.6367H16.3416L16.3306 15.6043H13.4013L9.32104 27.6005H11.8739L12.5597 25.4371H14.6885V27.6221H17.2045V22.3151L17.2067 22.3175L23.7944 28.9116C25.3952 30.5168 27.4828 31.5462 29.7308 31.8387C30.6525 31.9586 31.586 31.9542 32.5065 31.8257ZM14.589 19.068L14.6885 18.7584V23.2304H13.2628L14.589 19.068Z" fill="white"/>
</svg>
