<svg width="256" height="263" viewBox="0 0 256 263" fill="none" xmlns="http://www.w3.org/2000/svg">
<path d="M205.341 40.1726C167.532 36.1072 138.461 82.0364 149.553 89.0942C158.39 50.3759 201.633 41.014 205.432 40.2635L205.341 40.1726Z" fill="url(#paint0_linear)"/>
<path d="M146.67 93.4786C141.648 52.2359 182.939 28.4675 182.939 28.4675C145.714 37.201 133.804 90.5855 146.67 93.4786Z" fill="url(#paint1_radial)"/>
<path d="M62.0921 -2.52445C56.9257 0.109078 53.1657 4.71904 52.708 10.1208C52.5243 12.2868 52.9342 14.5614 53.8404 16.7216C55.1414 12.5595 58.4281 9.07143 62.6648 6.91257C67.8312 4.27904 74.2783 3.50037 80.6738 4.03126L76.6915 -0.957935L80.1024 -5.40576C73.7076 -5.9373 67.261 -5.15798 62.0921 -2.52445Z" fill="url(#paint2_linear)"/>
<path d="M95.0049 45.2673C93.2664 47.5745 90.2524 49.294 87.1174 50.2244C79.2449 52.5591 70.1871 51.7955 61.4529 50.6023C52.7181 49.4098 43.8486 47.8079 35.3458 48.5474C26.8418 49.2882 18.5424 52.8566 15.5486 59.5274C13.9768 63.0266 14.1096 67.0089 15.4544 70.8932C15.6303 70.2387 15.8382 69.5914 16.1194 68.9638C19.1131 62.2943 27.4132 58.7252 35.9166 57.9851C44.42 57.2437 53.2889 58.8475 62.0237 60.0387C70.7579 61.2319 79.8157 61.9968 87.6888 59.6614C91.9013 58.412 95.9104 55.7419 96.8735 52.127C96.8721 52.1361 96.8728 52.1459 96.8702 52.1551C98.3033 49.6288 98.9088 44.7436 95.7882 37.891C97.5632 41.9832 95.0049 45.2673 95.0049 45.2673Z" fill="url(#paint3_linear)"/>
<path d="M81.69 95.4322C71.8182 94.7333 61.9914 94.9595 52.1092 93.6395C42.2263 92.3188 31.9982 89.2446 24.3081 83.0557C20.1852 79.737 17.0083 75.382 15.4556 70.8923L14.3977 64.6942C14.3977 64.6942 13.7426 73.1087 15.553 78.7517C15.5556 78.749 15.5569 78.7451 15.5582 78.7425C16.8462 83.7807 20.2702 88.7843 24.8802 92.4933C32.5683 98.6816 42.797 101.755 52.68 103.076C62.5609 104.397 72.3889 104.17 82.2601 104.869C92.1319 105.568 102.374 107.302 111.235 112.06L107.822 105.588L110.665 102.623C101.804 97.8643 91.5618 96.1298 81.69 95.4322Z" fill="url(#paint4_radial)"/>
<path d="M87.5942 31.0732C83.3105 29.3824 78.6979 29.0039 74.1912 28.4736C69.6825 27.9441 64.9928 27.1732 61.0379 24.8738C59.0602 23.7238 57.3982 22.2174 56.0821 20.5208C56.0873 20.4868 56.0913 20.4619 56.0913 20.4619C53.0837 16.0056 52.1704 12.3253 52.819 9.22627C52.819 9.22627 49.2845 18.0788 55.0321 27.6132C55.0367 27.5747 55.0419 27.5394 55.0471 27.5014C56.4809 30.1997 58.7169 32.6305 61.6094 34.3108C65.5642 36.6116 70.2533 37.3804 74.7607 37.91C79.2686 38.4416 83.8812 38.8201 88.165 40.5096C90.8037 41.5504 93.3196 43.2254 95.0051 45.2666C96.1479 43.7498 96.7449 41.9826 96.4441 40.0107C96.161 38.1532 95.1045 36.4154 93.6118 34.9228C91.9825 33.2922 89.8309 31.9552 87.5942 31.0732Z" fill="url(#paint5_radial)"/>
<path d="M110.017 171.522C110.017 171.522 102.509 189.929 88.2118 202.008C78.9532 209.831 64.3041 216.071 44.9723 222.922C54.2845 227.579 64.2923 227.023 64.2923 227.023L60.274 238.288C60.274 238.288 82.1693 228.935 95.131 213.149C108.092 197.364 114.557 173.097 114.557 173.097L110.017 171.522Z" fill="url(#paint6_linear)"/>
<path d="M109.649 176.809C109.649 176.809 109.011 196.448 100.655 213.196C95.6633 223.201 83.6359 235.098 68.2061 248.609C81.7385 251.463 87.5045 246.621 87.5045 246.621L88.1033 257.231C88.1033 257.231 104.99 240.45 111.201 220.992C117.411 201.533 114.448 176.595 114.448 176.595L109.649 176.809Z" fill="url(#paint7_linear)"/>
<path d="M87.3398 153.529C85.6089 149.776 83.9552 145.89 82.4564 142.022C84.6426 144.842 86.9328 147.662 89.2827 150.365C90.092 154.907 91.0181 159.457 92.1942 163.318C90.5511 160.241 88.9137 156.94 87.3398 153.529Z" fill="#A1A1A1"/>
<path d="M92.1946 163.318C91.0185 159.456 90.0924 154.907 89.2831 150.364C91.6333 153.068 94.0426 155.654 96.4679 158.006C96.7811 162.844 97.1278 167.664 97.0828 171.766C95.4866 169.249 93.838 166.395 92.1946 163.318Z" fill="#A9A9A9"/>
<path d="M82.4563 142.022C86.8289 147.661 91.6175 153.304 96.4674 158.007C96.3113 155.589 96.1632 153.165 96.0764 150.824C90.6879 146.279 85.5484 141.077 80.334 136.252C80.9964 138.159 81.7073 140.088 82.4563 142.022Z" fill="#A1A1A1"/>
<path d="M80.3345 136.251C85.549 141.076 90.6884 146.279 96.0769 150.824C95.9904 148.484 95.9652 146.226 96.0546 144.14C89.9108 139.872 84.1 135.075 78.5027 130.62C79.0585 132.461 79.6727 134.345 80.3345 136.251Z" fill="#A1A1A1"/>
<path d="M97.0823 171.767C100.275 176.802 103.258 180.489 105.564 181.922C106.474 179.696 107.373 177.451 108.256 175.189C105.227 173.615 101.131 169.999 96.9093 165.163C97.0296 167.486 97.1046 169.716 97.0823 171.767Z" fill="#B0B0B0"/>
<path d="M96.9094 165.163C101.131 169.999 105.227 173.614 108.256 175.189C109.139 172.928 110.005 170.65 110.848 168.359C106.23 166.476 101.318 162.71 96.4676 158.007C96.6243 160.426 96.7891 162.84 96.9094 165.163Z" fill="#A5A5A5"/>
<path d="M96.4677 158.007C101.318 162.71 106.23 166.476 110.849 168.359C111.693 166.069 112.515 163.765 113.31 161.45C107.102 159.257 101.465 155.369 96.0766 150.824C96.1634 153.165 96.3116 155.588 96.4677 158.007Z" fill="#999999"/>
<path d="M96.0769 150.824C101.465 155.369 107.102 159.257 113.31 161.45C114.105 159.136 114.873 156.811 115.608 154.479C108.677 152.144 102.199 148.407 96.0546 144.14C95.9652 146.226 95.9904 148.484 96.0769 150.824Z" fill="#909090"/>
<path d="M105.564 181.922C107.126 182.892 109.831 183.245 113.313 183.096C114.461 180.967 115.591 178.823 116.695 176.662C113.217 176.727 110.081 176.179 108.256 175.189C107.373 177.451 106.474 179.695 105.564 181.922Z" fill="#B7B7B7"/>
<path d="M108.257 175.188C110.081 176.178 113.218 176.727 116.695 176.661C117.799 174.501 118.874 172.323 119.914 170.129C116.446 170.009 113.252 169.391 110.849 168.359C110.005 170.649 109.14 172.928 108.257 175.188Z" fill="#A1A1A1"/>
<path d="M110.849 168.36C113.252 169.391 116.445 170.009 119.914 170.129C120.953 167.934 121.957 165.722 122.916 163.492C119.457 163.187 116.291 162.524 113.31 161.451C112.515 163.765 111.693 166.069 110.849 168.36Z" fill="#909090"/>
<path d="M113.31 161.451C116.291 162.524 119.457 163.187 122.916 163.492C123.874 161.261 124.788 159.013 125.648 156.745C122.194 156.356 118.851 155.571 115.608 154.479C114.873 156.811 114.105 159.136 113.31 161.451Z" fill="#868686"/>
<path d="M113.313 183.095C115.825 182.988 118.744 182.618 121.93 182.031C123.227 180.096 124.578 178.141 125.932 176.168C122.477 176.486 119.334 176.651 116.695 176.662C115.591 178.822 114.461 180.967 113.313 183.095Z" fill="#B8B8B8"/>
<path d="M116.694 176.662C119.333 176.651 122.476 176.486 125.932 176.168C127.286 174.195 128.642 172.204 129.952 170.196C126.243 170.337 122.83 170.333 119.913 170.13C118.873 172.324 117.798 174.502 116.694 176.662Z" fill="#A0A0A0"/>
<path d="M121.93 182.031C125.116 181.443 128.569 180.638 132.154 179.658C133.779 178.149 135.424 176.496 137.041 174.762C133.154 175.38 129.387 175.85 125.932 176.168C124.578 178.141 123.227 180.096 121.93 182.03L121.93 182.031Z" fill="#B8B8B8"/>
<path d="M125.932 176.168C129.387 175.85 133.154 175.381 137.041 174.763C138.658 173.029 140.249 171.215 141.767 169.386C137.666 169.767 133.661 170.054 129.952 170.195C128.643 172.203 127.286 174.195 125.932 176.168Z" fill="#A3A3A3"/>
<path d="M119.913 170.13C122.83 170.333 126.243 170.337 129.952 170.196C131.261 168.188 132.524 166.163 133.689 164.123C129.766 164.085 126.11 163.909 122.916 163.492C121.957 165.722 120.953 167.934 119.913 170.13Z" fill="#8F8F8F"/>
<path d="M122.915 163.492C126.11 163.909 129.766 164.085 133.689 164.123C134.854 162.083 135.923 160.029 136.843 157.96C132.77 157.645 128.968 157.259 125.648 156.745C124.788 159.013 123.874 161.261 122.915 163.492Z" fill="#848484"/>
<path d="M129.952 170.195C133.661 170.054 137.666 169.767 141.767 169.386C143.287 167.558 144.734 165.714 146.066 163.921C141.803 164.059 137.613 164.16 133.69 164.122C132.524 166.162 131.262 168.187 129.952 170.195Z" fill="#939393"/>
<path d="M133.689 164.123C137.613 164.16 141.803 164.059 146.066 163.921C147.397 162.127 148.613 160.384 149.667 158.756C145.261 158.522 140.917 158.277 136.843 157.96C135.923 160.029 134.854 162.083 133.689 164.123Z" fill="#888888"/>
<path d="M132.154 179.658C139.323 177.699 147.015 175.041 154.133 172.035C158.34 170.259 162.346 168.36 165.926 166.412C158.556 167.493 149.97 168.626 141.768 169.386C138.73 173.043 135.406 176.641 132.154 179.658Z" fill="#B8B8B8"/>
<path d="M141.768 169.386C145.869 169.006 150.066 168.532 154.159 168.02C155.836 166.492 157.416 164.952 158.875 163.497C154.663 163.607 150.329 163.782 146.066 163.92C144.735 165.714 143.287 167.558 141.768 169.386Z" fill="#9D9D9D"/>
<path d="M146.066 163.921C150.328 163.783 154.663 163.607 158.875 163.497C160.333 162.041 161.67 160.671 162.86 159.483C158.541 159.213 154.073 158.991 149.667 158.756C148.613 160.384 147.397 162.127 146.066 163.921L146.066 163.921Z" fill="#939393"/>
<path d="M154.159 168.02C158.252 167.507 162.241 166.954 165.926 166.413C167.716 165.439 169.398 164.452 170.946 163.462C167.175 163.341 163.087 163.387 158.874 163.497C157.416 164.952 155.835 166.493 154.159 168.02Z" fill="#AAAAAA"/>
<path d="M158.875 163.497C163.087 163.386 167.176 163.34 170.947 163.461C172.495 162.471 173.909 161.478 175.158 160.489C171.348 160.068 167.178 159.751 162.86 159.482C161.671 160.67 160.334 162.04 158.875 163.497L158.875 163.497Z" fill="#A3A3A3"/>
<path d="M78.5027 130.62C85.4098 136.118 92.6413 142.136 100.424 147.037C100.572 144.662 100.829 141.92 101.098 139.212C92.4884 134.567 84.3621 129.062 76.7693 124.204C77.252 126.26 77.8359 128.41 78.5027 130.62Z" fill="#A1A1A1"/>
<path d="M76.7688 124.205C84.3616 129.062 92.4879 134.568 101.097 139.213C101.365 136.505 101.644 133.831 101.832 131.592C92.6666 127.381 83.9166 122.566 75.6374 118.347C75.903 120.185 76.2854 122.148 76.7688 124.205Z" fill="#A1A1A1"/>
<path d="M100.424 147.037C108.206 151.938 116.54 155.72 125.648 156.744C126.611 154.205 127.506 151.642 128.321 149.053C118.798 147.64 109.706 143.857 101.098 139.213C100.829 141.92 100.572 144.662 100.424 147.037Z" fill="#898989"/>
<path d="M101.098 139.213C109.707 143.857 118.798 147.64 128.321 149.053C129.136 146.464 129.871 143.85 130.514 141.21C120.577 139.409 110.997 135.803 101.832 131.592C101.644 133.831 101.366 136.505 101.098 139.213Z" fill="#8C8C8C"/>
<path d="M75.6373 118.347C75.0563 114.325 75.0369 110.905 75.7552 108.431C84.7954 110.605 94.4675 113.459 104.405 116.271C103.354 120.389 102.247 126.677 101.832 131.592C92.6666 127.381 83.9165 122.566 75.6373 118.347Z" fill="#A1A1A1"/>
<path d="M101.832 131.591C102.248 126.677 103.355 120.389 104.405 116.27C114.344 119.082 124.547 121.852 134.651 123.858C133.267 129.62 131.926 135.403 130.514 141.21C120.577 139.409 110.997 135.802 101.832 131.591Z" fill="#929292"/>
<path d="M75.7558 108.431C84.7961 110.605 94.4681 113.459 104.406 116.27C105.346 112.597 107.003 108.164 109.093 103.749C99.0738 102.389 89.1904 101.476 80.5633 101.318C78.1192 103.697 76.4317 106.099 75.7558 108.431Z" fill="#A1A1A1"/>
<path d="M80.563 101.319C83.0065 98.939 86.2066 96.5818 89.9079 94.3375C94.0149 93.4075 98.3489 92.6835 102.798 92.1797C99.4187 94.847 96.5345 98.4542 94.3054 102.083C89.5043 101.665 84.8763 101.397 80.563 101.319Z" fill="#A1A1A1"/>
<path d="M94.3051 102.083C96.534 98.4544 99.4184 94.8473 102.798 92.1801C107.248 91.6763 111.812 91.3928 116.377 91.3427C113.705 94.9396 111.182 99.3352 109.092 103.749C104.082 103.069 99.1071 102.501 94.3051 102.083Z" fill="#B1B1B1"/>
<path d="M104.406 116.27C114.344 119.082 124.548 121.851 134.651 123.857C135.856 118.843 137.093 113.845 138.44 108.864C129.269 106.917 119.113 105.109 109.093 103.749C107.003 108.164 105.346 112.597 104.406 116.27Z" fill="#A9A9A9"/>
<path d="M109.092 103.75C114.102 104.43 119.145 105.222 124.084 106.088C125.01 103.671 125.99 101.259 126.983 98.8842C122.256 98.1736 117.38 97.6091 112.516 97.2404C111.29 99.3404 110.137 101.543 109.092 103.75Z" fill="#BCBCBC"/>
<path d="M112.518 97.2388C117.382 97.6076 122.257 98.172 126.984 98.8826C127.978 96.5087 128.985 94.1732 129.967 91.9101C125.511 91.4769 120.944 91.2923 116.378 91.3418C115.042 93.1401 113.743 95.1386 112.518 97.2388Z" fill="#C3C3C3"/>
<path d="M124.084 106.087C129.022 106.953 133.854 107.892 138.44 108.865C139.113 106.374 139.815 103.887 140.553 101.405C136.287 100.452 131.709 99.5946 126.983 98.8836C125.99 101.258 125.01 103.671 124.084 106.087Z" fill="#C3C3C3"/>
<path d="M126.983 98.8839C131.709 99.5948 136.287 100.452 140.552 101.405C141.291 98.9225 142.066 96.4439 142.887 93.9688C138.767 93.0251 134.422 92.3436 129.966 91.9113C128.984 94.1744 127.976 96.51 126.983 98.8839Z" fill="#CBCBCB"/>
<path d="M125.648 156.745C127.267 152.473 128.695 148.134 129.872 143.72C133.461 144.389 137.485 145.063 141.742 145.767C140.636 149.833 138.679 153.985 136.843 157.96C132.77 157.644 128.968 157.259 125.648 156.745Z" fill="#818181"/>
<path d="M136.843 157.961C138.679 153.986 140.636 149.834 141.742 145.767C146 146.471 150.491 147.205 155.015 147.993C154.066 151.294 151.981 155.433 149.667 158.757C145.261 158.522 140.917 158.277 136.843 157.961Z" fill="#848484"/>
<path d="M149.668 158.755C151.982 155.431 154.067 151.293 155.016 147.992C159.541 148.781 164.098 149.624 168.487 150.546C167.694 153.083 165.651 156.808 162.86 159.482C158.542 159.212 154.074 158.99 149.668 158.755Z" fill="#8F8F8F"/>
<path d="M162.86 159.482C165.65 156.808 167.694 153.083 168.487 150.547C172.876 151.47 177.097 152.472 180.949 153.578C180.227 155.767 178.165 158.113 175.158 160.49C171.347 160.068 167.178 159.752 162.86 159.482Z" fill="#A0A0A0"/>
<path d="M129.873 143.72C130.095 142.886 130.309 142.049 130.514 141.21C134.098 141.939 138.108 142.7 142.344 143.509C142.16 144.271 141.946 145.015 141.743 145.767C137.485 145.063 133.461 144.389 129.873 143.72Z" fill="#8A8A8A"/>
<path d="M141.742 145.767C141.946 145.016 142.159 144.271 142.344 143.509C146.581 144.318 151.045 145.176 155.536 146.102C155.393 146.693 155.177 147.423 155.015 147.993C150.491 147.205 146 146.471 141.742 145.767Z" fill="#8D8D8D"/>
<path d="M155.016 147.992C155.178 147.423 155.394 146.692 155.537 146.101C160.028 147.026 164.547 148.018 168.894 149.097C168.794 149.517 168.606 150.159 168.487 150.547C164.098 149.624 159.54 148.781 155.016 147.992Z" fill="#959595"/>
<path d="M168.487 150.547C168.606 150.159 168.794 149.517 168.894 149.097C173.241 150.175 177.416 151.339 181.221 152.607C181.141 152.949 181.05 153.273 180.949 153.578C177.097 152.472 172.876 151.47 168.487 150.547Z" fill="#A2A2A2"/>
<path d="M130.514 141.21C132.45 133.254 134.249 125.341 136.212 117.467C139.329 118.172 142.956 119.313 146.825 120.765C145.449 128.578 144.097 136.292 142.345 143.508C138.108 142.7 134.098 141.939 130.514 141.21Z" fill="#8E8E8E"/>
<path d="M142.344 143.509C144.097 136.292 145.449 128.578 146.825 120.765C150.695 122.216 154.808 123.978 158.898 125.926C158.033 133.419 156.885 140.509 155.536 146.101C151.045 145.176 146.582 144.318 142.344 143.509Z" fill="#909090"/>
<path d="M136.212 117.467C139.328 118.173 142.955 119.314 146.825 120.765C147.513 116.859 148.207 112.928 148.959 109.021C145.421 107.519 142.111 106.377 139.315 105.688C138.215 109.605 137.193 113.531 136.212 117.467Z" fill="#B8B8B8"/>
<path d="M139.315 105.688C142.111 106.377 145.421 107.519 148.959 109.021C149.712 105.116 150.524 101.235 151.448 97.4307C148.446 95.8371 145.537 94.6492 142.888 93.9683C141.594 97.8649 140.416 101.771 139.315 105.688Z" fill="#CACACA"/>
<path d="M146.825 120.765C150.695 122.216 154.809 123.978 158.899 125.925C159.332 122.179 159.694 118.331 159.975 114.519C156.266 112.388 152.498 110.524 148.96 109.021C148.207 112.928 147.514 116.859 146.825 120.765Z" fill="#B7B7B7"/>
<path d="M148.96 109.021C152.498 110.524 156.265 112.388 159.975 114.519C160.255 110.706 160.456 106.93 160.566 103.325C157.544 101.023 154.45 99.0237 151.448 97.4307C150.524 101.235 149.712 105.116 148.96 109.021Z" fill="#C7C7C7"/>
<path d="M155.536 146.102C156.885 140.51 158.033 133.42 158.898 125.926C162.989 127.874 167.056 130.007 170.835 132.2C170.631 139.021 169.839 145.131 168.893 149.098C164.546 148.019 160.027 147.026 155.536 146.102Z" fill="#979797"/>
<path d="M168.893 149.097C169.84 145.131 170.632 139.02 170.835 132.2C174.613 134.393 178.102 136.647 181.036 138.837C181.874 144.532 181.984 149.379 181.221 152.607C177.416 151.339 173.241 150.175 168.893 149.097Z" fill="#A3A3A3"/>
<path d="M158.898 125.926C162.989 127.874 167.056 130.007 170.834 132.2C170.936 128.79 170.89 125.202 170.643 121.617C167.334 119.046 163.683 116.65 159.974 114.519C159.693 118.331 159.331 122.179 158.898 125.926Z" fill="#B4B4B4"/>
<path d="M159.974 114.519C163.683 116.649 167.335 119.046 170.643 121.616C170.396 118.03 169.947 114.446 169.242 111.042C166.534 108.234 163.586 105.628 160.565 103.325C160.456 106.93 160.255 110.706 159.974 114.519Z" fill="#C0C0C0"/>
<path d="M170.834 132.201C171.037 125.381 170.652 117.85 169.241 111.043C171.95 113.852 174.418 116.862 176.48 119.973C178.63 126.597 180.197 133.142 181.035 138.838C178.102 136.648 174.612 134.394 170.834 132.201Z" fill="#AFAFAF"/>
<path d="M89.908 94.3374C91.7098 93.2443 93.6304 92.178 95.6407 91.1498C99.6902 89.8112 103.971 88.66 108.326 87.7342C106.331 89.287 104.414 90.8758 102.765 92.1834C98.3277 92.6869 94.0042 93.4094 89.908 94.3374Z" fill="#A1A1A1"/>
<path d="M102.765 92.1836C104.414 90.876 106.331 89.2871 108.325 87.7344C112.68 86.8092 117.109 86.1094 121.455 85.6759C119.513 87.6032 117.62 89.562 116.309 91.3431C111.754 91.3951 107.202 91.6795 102.765 92.1836Z" fill="#B6B6B6"/>
<path d="M95.6411 91.1493C103.74 88.4725 112.765 86.5427 121.456 85.6753C123.398 83.748 125.391 81.8518 126.9 80.1964C118.745 81.8453 109.916 84.6872 101.91 88.1852C99.7507 89.1288 97.651 90.1201 95.6411 91.1493L95.6411 91.1493Z" fill="#A1A1A1"/>
<path d="M116.309 91.3432C117.62 89.5622 119.512 87.6033 121.455 85.6761C125.8 85.2419 130.064 85.074 134.085 85.2103C132.452 87.4146 130.84 89.6468 129.866 91.9006C125.42 91.4725 120.863 91.2915 116.309 91.3432Z" fill="#C5C5C5"/>
<path d="M129.866 91.9007C130.84 89.6468 132.452 87.4147 134.085 85.2103C138.108 85.3469 141.889 85.7884 145.274 86.5744C144.424 89.0099 143.585 91.4709 142.764 93.9403C138.65 93.0042 134.313 92.3291 129.866 91.9007Z" fill="#CECECE"/>
<path d="M121.455 85.6756C123.398 83.7484 125.39 81.8521 126.9 80.1968C130.977 79.3718 134.886 78.8454 138.439 78.6839C137.376 80.8289 135.72 83.0058 134.086 85.2098C130.064 85.0735 125.801 85.2414 121.455 85.6756L121.455 85.6756Z" fill="#BEBEBE"/>
<path d="M134.085 85.2103C135.72 83.0063 137.376 80.8294 138.439 78.6844C141.992 78.5229 145.189 78.7265 147.843 79.3621C146.983 81.7293 146.123 84.1389 145.274 86.5744C141.889 85.7885 138.108 85.347 134.085 85.2103Z" fill="#C6C6C6"/>
<path d="M142.764 93.9399C142.806 93.9495 142.846 93.9584 142.888 93.9681C143.708 91.4994 144.546 89.038 145.395 86.6025C145.354 86.5929 145.314 86.5837 145.274 86.5741C144.424 89.0096 143.585 91.4706 142.764 93.94L142.764 93.9399Z" fill="#D1D1D1"/>
<path d="M145.273 86.5748C145.313 86.5844 145.354 86.5937 145.394 86.6033C146.243 84.1684 147.1 81.7582 147.959 79.391C147.92 79.3814 147.882 79.3718 147.842 79.3626C146.982 81.7297 146.122 84.1394 145.273 86.5749L145.273 86.5748Z" fill="#CACACA"/>
<path d="M142.888 93.968C143.708 91.4993 144.547 89.038 145.395 86.6025C147.87 87.2288 150.462 88.4094 153.068 90.0321C152.551 92.5113 152.032 95.0141 151.448 97.4305C148.446 95.8368 145.538 94.6489 142.888 93.968Z" fill="#D1D1D1"/>
<path d="M151.448 97.4309C152.032 95.0146 152.55 92.5118 153.068 90.0325C155.675 91.6549 158.297 93.7204 160.834 96.1166C160.743 98.5601 160.629 101.026 160.565 103.325C157.544 101.023 154.449 99.0239 151.448 97.4309Z" fill="#CECECE"/>
<path d="M145.395 86.6027C146.243 84.1679 147.101 81.7576 147.96 79.3905C150.261 79.9622 152.511 81.1319 154.686 82.7792C154.104 85.0988 153.587 87.5538 153.068 90.0323C150.462 88.4096 147.87 87.2291 145.395 86.6027Z" fill="#CACACA"/>
<path d="M153.068 90.0324C153.587 87.5538 154.104 85.0988 154.686 82.7792C156.861 84.4265 158.962 86.5523 160.965 89.0366C160.993 91.2509 160.925 93.6733 160.834 96.1164C158.297 93.7202 155.675 91.6547 153.068 90.0324Z" fill="#C7C7C7"/>
<path d="M160.566 103.325C160.63 101.025 160.743 98.5597 160.834 96.1162C163.371 98.5124 165.822 101.24 168.089 104.188C168.461 106.514 168.787 108.858 169.242 111.042C166.534 108.234 163.587 105.628 160.566 103.325Z" fill="#C5C5C5"/>
<path d="M169.242 111.042C168.787 108.858 168.46 106.514 168.088 104.188C170.355 107.137 172.435 110.304 174.23 113.581C175.038 115.702 175.789 117.842 176.481 119.972C174.419 116.861 171.95 113.851 169.242 111.042Z" fill="#B6B6B6"/>
<path d="M160.834 96.1168C165.907 100.91 170.64 107.028 174.23 113.581C173.422 111.459 172.559 109.355 171.644 107.294C168.592 100.41 164.971 94.0056 160.964 89.037C160.992 91.2512 160.925 93.6736 160.834 96.1168Z" fill="#BEBEBE"/>
<g opacity="0.800003">
<g opacity="0.800003">
<g opacity="0.800003">
<g opacity="0.800003">
<g opacity="0.800003">
<path opacity="0.800003" d="M131.135 158.723C133.386 166.76 135.133 173.725 136.278 178.491C137.134 178.228 137.988 177.962 138.842 177.69C143.429 176.222 147.958 174.61 152.402 172.796C151.828 166.871 150.295 159.728 148.193 152.08C142.677 154.112 136.887 156.35 131.135 158.723Z" fill="url(#paint8_radial)"/>
</g>
</g>
</g>
</g>
<g opacity="0.800003">
<g opacity="0.800003">
<g opacity="0.800003">
<g opacity="0.800003">
<path opacity="0.800003" d="M125.351 139.581C130.914 137.207 136.606 134.942 142.196 132.952C140.044 126.731 137.738 120.555 135.458 114.747C130.107 116.683 124.434 118.833 118.738 121.127C121.12 127.133 123.335 133.406 125.351 139.581Z" fill="url(#paint9_radial)"/>
</g>
</g>
</g>
</g>
<g opacity="0.800003">
<g opacity="0.800003">
<g opacity="0.800003">
<g opacity="0.800003">
<path opacity="0.800003" d="M98.8008 174.448C98.8976 174.592 98.9872 174.739 99.0839 174.882C100.974 177.664 103.042 180.311 105.842 182.273C106.638 182.52 107.434 182.766 108.229 183.012C110.819 182.986 113.43 183.158 115.996 182.897C116.151 182.881 116.304 182.857 116.459 182.841C115.778 178.018 114.577 172.558 113.032 166.778C107.827 169.305 102.988 171.885 98.8008 174.448Z" fill="url(#paint10_radial)"/>
</g>
</g>
</g>
</g>
<g opacity="0.800003">
<g opacity="0.800003">
<g opacity="0.800003">
<g opacity="0.800003">
<path opacity="0.800003" d="M86.1992 96.6786C83.0466 98.8166 80.1319 101.251 77.8364 104.364C77.2146 105.207 76.6831 106.115 76.1091 106.992C75.841 107.861 75.5723 108.728 75.3042 109.597C75.0669 112.972 75.2493 116.263 75.722 119.492C80.4477 117.028 86.3326 114.05 92.8628 110.934C90.0253 104.413 87.6324 99.3462 86.1992 96.6786Z" fill="url(#paint11_radial)"/>
</g>
</g>
</g>
</g>
<g opacity="0.800003">
<g opacity="0.800003">
<g opacity="0.800003">
<g opacity="0.800003">
<path opacity="0.800003" d="M127.781 96.2488C124.383 88.5202 121.716 83.0936 120.732 81.7174C120.713 81.6925 120.69 81.6722 120.671 81.6467C113.698 83.4617 106.933 85.8069 100.427 88.7889C103.907 92.19 107.261 97.1321 110.439 102.997C116.179 100.564 122.044 98.2514 127.781 96.2488Z" fill="url(#paint12_radial)"/>
</g>
</g>
</g>
</g>
<g opacity="0.800003">
<g opacity="0.800003">
<g opacity="0.800003">
<g opacity="0.800003">
<path opacity="0.800003" d="M171.35 163.25C173.846 161.639 176.204 159.834 178.266 157.627C179.252 156.571 180.008 155.299 180.871 154.127L181.34 152.607C181.428 149.908 181.709 147.198 181.569 144.509C181.515 143.472 181.428 142.44 181.324 141.412C178.99 141.874 173.702 143.384 166.735 145.643C168.667 152.549 170.227 158.659 171.35 163.25Z" fill="url(#paint13_radial)"/>
</g>
</g>
</g>
</g>
<g opacity="0.800003">
<g opacity="0.800003">
<g opacity="0.800003">
<g opacity="0.800003">
<path opacity="0.800003" d="M107.206 147.835C105.032 141.458 102.677 135.092 100.338 129.094C93.25 132.422 86.7015 135.868 81.3854 139.269C81.5201 139.635 81.6548 140 81.7908 140.366C83.9065 146.055 86.2497 151.635 88.8839 157.073C93.6587 154.554 100.008 151.295 107.206 147.835Z" fill="url(#paint14_radial)"/>
</g>
</g>
</g>
</g>
<g opacity="0.800003">
<g opacity="0.800003">
<g opacity="0.800003">
<g opacity="0.800003">
<path opacity="0.800003" d="M166.432 105.031C165.01 105.183 160.627 106.365 154.455 108.302C156.905 114.509 159.176 120.99 161.235 127.345C167.722 125.943 173.564 125.354 178.245 125.965C177.978 125.008 177.703 124.051 177.419 123.097C175.659 117.188 173.566 111.419 170.998 105.858C169.607 105.217 168.068 104.855 166.432 105.031Z" fill="url(#paint15_radial)"/>
</g>
</g>
</g>
</g>
<g opacity="0.800003">
<g opacity="0.800003">
<g opacity="0.800003">
<g opacity="0.800003">
<path opacity="0.800003" d="M146.59 90.8706C152.161 89.7323 157.215 89.2328 161.431 89.6062C159.13 86.6431 156.502 83.9671 153.278 81.8337C152.188 81.1119 151.006 80.5268 149.867 79.8788C149.071 79.6323 148.276 79.3865 147.479 79.1407C146.52 79.0354 145.563 78.9197 144.602 78.8275C142.649 78.6366 140.707 78.5974 138.773 78.6543C141.475 81.9691 144.09 86.1358 146.59 90.8706Z" fill="url(#paint16_radial)"/>
</g>
</g>
</g>
</g>
<g opacity="0.800003">
<g opacity="0.800003">
<g opacity="0.800003">
<g opacity="0.800003">
<path opacity="0.800003" d="M136.281 178.497C129.796 180.474 123.22 182.106 116.456 182.836C115.776 178.02 114.573 172.558 113.031 166.782C118.755 163.995 124.923 161.287 131.134 158.72C133.381 166.765 135.131 173.725 136.281 178.497Z" fill="url(#paint17_radial)"/>
</g>
</g>
</g>
</g>
<g opacity="0.800003">
<g opacity="0.800003">
<g opacity="0.800003">
<g opacity="0.800003">
<path opacity="0.800003" d="M110.44 102.991C104.328 105.589 98.3676 108.302 92.8586 110.937C90.0218 104.414 87.636 99.3477 86.2035 96.677C86.6429 96.3762 87.0914 96.0794 87.5491 95.7852C91.7079 93.1288 96.01 90.8143 100.429 88.7934C103.907 92.186 107.259 97.1346 110.44 102.991Z" fill="url(#paint18_radial)"/>
</g>
</g>
</g>
</g>
<g opacity="0.800003">
<g opacity="0.800003">
<g opacity="0.800003">
<g opacity="0.800003">
<path opacity="0.800003" d="M118.738 121.127C112.497 123.64 106.232 126.326 100.338 129.094C102.676 135.092 105.031 141.458 107.206 147.835C112.85 145.121 119.014 142.284 125.351 139.581C123.335 133.406 121.12 127.134 118.738 121.127Z" fill="url(#paint19_radial)"/>
</g>
</g>
</g>
</g>
<g opacity="0.800003">
<g opacity="0.800003">
<g opacity="0.800003">
<g opacity="0.800003">
<path opacity="0.800003" d="M171.355 163.251C169.563 164.401 167.721 165.455 165.842 166.469C161.474 168.843 156.985 170.931 152.407 172.795C151.832 166.871 150.296 159.73 148.195 152.078C154.992 149.574 161.364 147.384 166.737 145.638C168.673 152.546 170.231 158.654 171.355 163.251Z" fill="url(#paint20_radial)"/>
</g>
</g>
</g>
</g>
<g opacity="0.800003">
<g opacity="0.800003">
<g opacity="0.800003">
<g opacity="0.800003">
<path opacity="0.800003" d="M135.459 114.747C137.739 120.554 140.045 126.731 142.197 132.951C148.823 130.592 155.297 128.628 161.234 127.345C159.176 120.99 156.904 114.509 154.455 108.302C149.186 109.954 142.613 112.159 135.459 114.747Z" fill="url(#paint21_radial)"/>
</g>
</g>
</g>
</g>
<g opacity="0.800003">
<g opacity="0.800003">
<g opacity="0.800003">
<g opacity="0.800003">
<path opacity="0.800003" d="M146.587 90.8715C140.75 92.0686 134.353 93.9529 127.779 96.249C124.384 88.523 121.715 83.0925 120.733 81.7189C120.711 81.6921 120.689 81.6666 120.674 81.6509C122.27 81.2331 123.887 80.8414 125.506 80.4707C129.891 79.4894 134.308 78.7846 138.778 78.6512C141.475 81.9706 144.089 86.1373 146.587 90.8715Z" fill="url(#paint22_radial)"/>
</g>
</g>
</g>
</g>
<g opacity="0.800003">
<g opacity="0.800003">
<g opacity="0.800003">
<g opacity="0.800003">
<path opacity="0.800003" d="M98.8052 174.446C95.0491 168.877 91.7853 163.064 88.8824 157.075L98.8052 174.446Z" fill="url(#paint23_radial)"/>
</g>
</g>
</g>
</g>
<g opacity="0.800003">
<g opacity="0.800003">
<g opacity="0.800003">
<g opacity="0.800003">
<path opacity="0.800003" d="M181.326 141.414C178.995 141.871 173.704 143.386 166.737 145.639C165.139 139.945 163.294 133.709 161.23 127.346C167.725 125.947 173.564 125.354 178.247 125.971C179.659 131.043 180.799 136.17 181.326 141.414Z" fill="url(#paint24_radial)"/>
</g>
</g>
</g>
</g>
<g opacity="0.800003">
<g opacity="0.800003">
<g opacity="0.800003">
<g opacity="0.800003">
<path opacity="0.800003" d="M125.351 139.581C127.525 146.235 129.467 152.771 131.134 158.723C136.887 156.35 142.677 154.113 148.193 152.08C146.497 145.909 144.43 139.41 142.196 132.952C136.606 134.942 130.913 137.208 125.351 139.581Z" fill="url(#paint25_radial)"/>
</g>
</g>
</g>
</g>
<g opacity="0.800003">
<g opacity="0.800003">
<g opacity="0.800003">
<g opacity="0.800003">
<path opacity="0.800003" d="M113.032 166.778C111.405 160.697 109.398 154.262 107.206 147.835C100.008 151.296 93.6586 154.554 88.8839 157.073C91.7867 163.067 95.0518 168.882 98.8008 174.449C102.988 171.885 107.827 169.305 113.032 166.778Z" fill="url(#paint26_radial)"/>
</g>
</g>
</g>
</g>
<g opacity="0.800003">
<g opacity="0.800003">
<g opacity="0.800003">
<g opacity="0.800003">
<path opacity="0.800003" d="M107.207 147.834C109.398 154.261 111.405 160.696 113.032 166.778C118.761 163.998 124.925 161.283 131.135 158.722C129.468 152.77 127.525 146.234 125.352 139.58C119.014 142.284 112.851 145.12 107.207 147.834Z" fill="url(#paint27_radial)"/>
</g>
</g>
</g>
</g>
<g opacity="0.800003">
<g opacity="0.800003">
<g opacity="0.800003">
<g opacity="0.800003">
<path opacity="0.800003" d="M148.193 152.079C154.986 149.577 161.36 147.386 166.736 145.643C165.142 139.947 163.294 133.711 161.234 127.346C155.296 128.629 148.822 130.593 142.196 132.952C144.431 139.409 146.497 145.909 148.193 152.079Z" fill="url(#paint28_radial)"/>
</g>
</g>
</g>
</g>
<g opacity="0.800003">
<g opacity="0.800003">
<g opacity="0.800003">
<g opacity="0.800003">
<path opacity="0.800003" d="M100.339 129.09C93.2473 132.423 86.7041 135.868 81.3847 139.265C78.9859 132.798 76.7126 126.28 75.7208 119.496C80.4465 117.024 86.3288 114.05 92.8583 110.937C95.1519 116.203 97.7364 122.42 100.339 129.09Z" fill="url(#paint29_radial)"/>
</g>
</g>
</g>
</g>
<g opacity="0.800003">
<g opacity="0.800003">
<g opacity="0.800003">
<g opacity="0.800003">
<path opacity="0.800003" d="M170.995 105.858C169.606 105.222 168.066 104.854 166.436 105.033C165.012 105.187 160.625 106.367 154.451 108.301C151.998 102.074 149.36 96.1278 146.587 90.8719C152.159 89.7336 157.216 89.2367 161.429 89.6081C162.883 91.4741 164.21 93.459 165.471 95.5028C167.534 98.8555 169.367 102.315 170.995 105.858Z" fill="url(#paint30_radial)"/>
</g>
</g>
</g>
</g>
<g opacity="0.800003">
<g opacity="0.800003">
<g opacity="0.800003">
<g opacity="0.800003">
<path opacity="0.800003" d="M118.738 121.127C124.435 118.833 130.107 116.683 135.458 114.747C132.76 107.873 130.101 101.524 127.781 96.2482C122.044 98.2508 116.179 100.563 110.439 102.996C113.372 108.408 116.152 114.606 118.738 121.127Z" fill="url(#paint31_radial)"/>
</g>
</g>
</g>
</g>
<g opacity="0.800003">
<g opacity="0.800003">
<g opacity="0.800003">
<g opacity="0.800003">
<path opacity="0.800003" d="M110.439 102.996C104.33 105.585 98.3689 108.306 92.8626 110.934C95.1542 116.202 97.7354 122.417 100.338 129.093C106.232 126.326 112.497 123.64 118.738 121.127C116.152 114.606 113.372 108.407 110.439 102.996Z" fill="url(#paint32_radial)"/>
</g>
</g>
</g>
</g>
<g opacity="0.800003">
<g opacity="0.800003">
<g opacity="0.800003">
<g opacity="0.800003">
<path opacity="0.800003" d="M154.455 108.302C151.998 102.075 149.365 96.1278 146.59 90.8705C140.75 92.0644 134.351 93.9532 127.781 96.248C130.101 101.524 132.76 107.873 135.458 114.747C142.612 112.159 149.186 109.954 154.455 108.302Z" fill="url(#paint33_radial)"/>
</g>
</g>
</g>
</g>
</g>
<g opacity="0.800003">
<g opacity="0.800003">
<path opacity="0.800003" d="M154.454 108.303C154.454 108.302 154.453 108.302 154.453 108.3C156.089 107.788 157.595 107.33 158.959 106.929C157.595 107.332 156.09 107.79 154.454 108.303ZM181.568 144.51C181.515 143.473 181.428 142.442 181.325 141.414C181.325 141.414 181.326 141.414 181.327 141.414C180.798 136.17 179.659 131.043 178.247 125.971C174.367 125.461 169.686 125.789 164.505 126.709C169.684 125.788 174.366 125.461 178.244 125.966C177.977 125.009 177.702 124.053 177.418 123.098C175.657 117.19 173.565 111.42 170.997 105.859C170.996 105.858 170.994 105.858 170.993 105.858C169.366 102.315 167.533 98.8556 165.47 95.5042C164.21 93.4597 162.883 91.4748 161.429 89.6088C157.216 89.2368 152.161 89.7337 146.589 90.8726L146.589 90.872C146.587 90.872 146.587 90.8726 146.585 90.8726C144.904 87.6834 143.167 84.7602 141.389 82.1718C143.168 84.7589 144.905 87.682 146.589 90.872C152.16 89.733 157.214 89.2335 161.431 89.6068C159.129 86.6438 156.502 83.9678 153.278 81.8344C152.187 81.1126 151.006 80.5275 149.866 79.8795C149.07 79.633 148.275 79.3872 147.479 79.1414C146.52 79.0361 145.561 78.9211 144.602 78.8282C142.65 78.638 140.71 78.5981 138.778 78.655C138.778 78.6543 138.778 78.653 138.777 78.6523C134.308 78.7864 129.89 79.4905 125.505 80.4719C123.886 80.8419 122.271 81.2349 120.676 81.652C120.675 81.65 120.674 81.6487 120.672 81.6468C113.698 83.4617 106.933 85.8069 100.427 88.7889C103.29 91.5879 106.066 95.4414 108.732 99.9821C106.064 95.4434 103.29 91.5859 100.429 88.7942C96.0095 90.8151 91.7075 93.1295 87.5486 95.786C87.091 96.0802 86.6431 96.3777 86.2031 96.6777C86.9105 97.9971 87.852 99.9049 88.9635 102.28C87.8494 99.9049 86.9059 97.9978 86.1979 96.6804C83.0459 98.8177 80.1319 101.253 77.8364 104.366C77.2139 105.208 76.6824 106.116 76.1077 106.994C75.8403 107.862 75.5716 108.729 75.3035 109.598C75.0662 112.973 75.2486 116.264 75.7206 119.494C76.5268 119.073 77.378 118.633 78.2502 118.184C77.3787 118.633 76.5268 119.074 75.7206 119.496C76.7125 126.281 78.9864 132.799 81.3846 139.265C86.7033 135.869 93.2446 132.425 100.336 129.091L100.338 129.094C93.2498 132.423 86.7013 135.868 81.3846 139.271C81.5199 139.636 81.6546 140.001 81.7906 140.367C83.9063 146.055 86.2495 151.636 88.8837 157.074L88.8955 157.097L88.8824 157.075C89.716 158.794 90.5882 160.492 91.4826 162.181C93.7088 166.379 96.1272 170.479 98.8006 174.449C98.8974 174.593 98.987 174.74 99.0837 174.883C100.975 177.665 103.042 180.312 105.842 182.275C106.638 182.52 107.433 182.767 108.228 183.013C110.819 182.987 113.43 183.159 115.996 182.898C116.151 182.881 116.304 182.858 116.459 182.841C116.458 182.839 116.458 182.838 116.457 182.836C123.221 182.105 129.797 180.473 136.281 178.497C136.281 178.495 136.28 178.493 136.279 178.491C137.135 178.228 137.99 177.963 138.842 177.69C143.429 176.223 147.958 174.61 152.402 172.796C151.828 166.872 150.295 159.729 148.192 152.081C148.193 152.08 148.194 152.079 148.194 152.08C150.295 159.731 151.831 166.873 152.407 172.796C156.985 170.932 161.473 168.843 165.842 166.47C167.721 165.457 169.562 164.402 171.354 163.251C171.353 163.251 171.353 163.25 171.353 163.248C173.848 161.639 176.205 159.833 178.266 157.627C179.252 156.571 180.008 155.299 180.871 154.127L181.34 152.608C181.429 149.908 181.709 147.198 181.568 144.51Z" fill="#134DC4"/>
</g>
</g>
<path d="M131.134 158.722C133.385 166.76 135.133 173.725 136.278 178.491C137.134 178.228 137.989 177.962 138.841 177.69C143.429 176.222 147.957 174.61 152.402 172.796C151.828 166.871 150.296 159.728 148.193 152.079C142.677 154.112 136.888 156.351 131.134 158.722Z" fill="url(#paint34_radial)"/>
<path d="M118.738 121.127C121.119 127.134 123.335 133.406 125.351 139.581C130.914 137.207 136.606 134.942 142.196 132.951C140.045 126.732 137.738 120.555 135.457 114.748C130.107 116.683 124.434 118.832 118.738 121.127Z" fill="url(#paint35_radial)"/>
<path d="M77.8353 104.365C77.2142 105.207 76.6813 106.116 76.108 106.994C75.8399 107.862 75.5712 108.73 75.3025 109.598C75.0658 112.973 75.2482 116.264 75.7203 119.492C80.4466 117.03 86.3315 114.051 92.8617 110.935C90.0242 104.414 87.6313 99.3474 86.1981 96.6799C83.0455 98.8178 80.1308 101.253 77.8353 104.365Z" fill="url(#paint36_radial)"/>
<path d="M100.428 88.7885C103.907 92.1896 107.262 97.1317 110.439 102.996C116.179 100.565 122.044 98.251 127.782 96.2478C124.384 88.5192 121.715 83.0926 120.732 81.717C120.713 81.6915 120.692 81.6725 120.673 81.647C113.698 83.4613 106.934 85.8065 100.428 88.7885Z" fill="url(#paint37_radial)"/>
<path d="M166.736 145.644C168.667 152.549 170.227 158.659 171.35 163.25C173.846 161.639 176.204 159.834 178.265 157.628C179.252 156.57 180.009 155.299 180.871 154.126L181.341 152.608C181.429 149.909 181.709 147.197 181.567 144.509C181.515 143.473 181.428 142.441 181.324 141.412C178.99 141.875 173.701 143.384 166.736 145.644Z" fill="url(#paint38_radial)"/>
<path d="M81.3855 139.269C81.5195 139.635 81.6548 140 81.7908 140.366C83.9066 146.055 86.2498 151.635 88.8833 157.074C93.6594 154.553 100.008 151.295 107.206 147.835C105.03 141.458 102.676 135.091 100.338 129.093C93.2494 132.421 86.7016 135.868 81.3855 139.269Z" fill="url(#paint39_radial)"/>
<path d="M166.432 105.031C165.01 105.184 160.627 106.365 154.455 108.302C156.904 114.51 159.176 120.991 161.234 127.346C167.721 125.944 173.563 125.354 178.244 125.966C177.977 125.008 177.702 124.052 177.418 123.098C175.658 117.188 173.566 111.419 170.997 105.859C169.607 105.218 168.067 104.856 166.432 105.031Z" fill="url(#paint40_radial)"/>
<path d="M153.278 81.8338C152.187 81.1114 151.006 80.5269 149.866 79.879C149.071 79.6325 148.276 79.3866 147.48 79.1415C146.52 79.0355 145.562 78.9205 144.602 78.8276C142.648 78.6367 140.707 78.5968 138.774 78.6537C141.475 81.9692 144.089 86.1359 146.59 90.8714C152.161 89.7318 157.215 89.2323 161.431 89.6063C160.391 88.2666 159.283 86.9865 158.086 85.7881C156.633 84.3347 155.045 83.0035 153.278 81.8338Z" fill="url(#paint41_radial)"/>
<path d="M107.206 147.834C109.398 154.261 111.405 160.696 113.031 166.778C118.759 163.998 124.925 161.282 131.134 158.722C129.469 152.771 127.525 146.234 125.352 139.58C119.014 142.284 112.851 145.12 107.206 147.834Z" fill="url(#paint42_radial)"/>
<path d="M142.196 132.95C144.431 139.409 146.498 145.908 148.194 152.079C154.987 149.576 161.36 147.386 166.737 145.643C165.142 139.946 163.294 133.711 161.234 127.345C155.297 128.628 148.823 130.592 142.196 132.95Z" fill="url(#paint43_radial)"/>
<path d="M92.8623 110.934C95.1546 116.203 97.7352 122.417 100.338 129.093C106.232 126.326 112.496 123.639 118.738 121.127C116.152 114.606 113.371 108.408 110.439 102.996C104.33 105.585 98.3687 108.306 92.8623 110.934Z" fill="url(#paint44_radial)"/>
<path d="M127.782 96.2475C130.101 101.524 132.76 107.873 135.458 114.748C142.613 112.159 149.186 109.955 154.455 108.302C151.998 102.076 149.365 96.1279 146.59 90.8713C140.75 92.0645 134.351 93.9533 127.782 96.2475Z" fill="url(#paint45_radial)"/>
<path d="M98.8008 174.449C98.8976 174.593 98.9872 174.74 99.0846 174.883C100.974 177.664 103.042 180.311 105.842 182.273C106.639 182.521 107.434 182.766 108.229 183.012C110.819 182.986 113.43 183.158 115.995 182.897C116.151 182.881 116.304 182.857 116.459 182.841C115.778 178.019 114.577 172.559 113.031 166.779C107.827 169.305 102.988 171.884 98.8008 174.449Z" fill="url(#paint46_radial)"/>
<defs>
<linearGradient id="paint0_linear" x1="195.475" y1="38.2937" x2="144.283" y2="84.3966" gradientUnits="userSpaceOnUse">
<stop stop-color="#12347E"/>
<stop offset="0.421788" stop-color="#2959A2"/>
<stop offset="1" stop-color="#00204D"/>
</linearGradient>
<radialGradient id="paint1_radial" cx="0" cy="0" r="1" gradientUnits="userSpaceOnUse" gradientTransform="translate(162.421 59.0205) rotate(46.8338) scale(27.3185)">
<stop stop-color="#FFDB54"/>
<stop offset="0.634078" stop-color="#FFA43E"/>
<stop offset="1" stop-color="#FFC153"/>
</radialGradient>
<linearGradient id="paint2_linear" x1="55.5252" y1="1.29092" x2="78.3907" y2="10.0145" gradientUnits="userSpaceOnUse">
<stop stop-color="#12347E"/>
<stop offset="0.421788" stop-color="#2959A2"/>
<stop offset="1" stop-color="#00204D"/>
</linearGradient>
<linearGradient id="paint3_linear" x1="22.3309" y1="41.6913" x2="90.9628" y2="67.8756" gradientUnits="userSpaceOnUse">
<stop stop-color="#12347E"/>
<stop offset="0.421788" stop-color="#2959A2"/>
<stop offset="1" stop-color="#00204D"/>
</linearGradient>
<radialGradient id="paint4_radial" cx="0" cy="0" r="1" gradientUnits="userSpaceOnUse" gradientTransform="translate(60.2329 95.1512) rotate(20.8828) scale(39.374 32.2306)">
<stop stop-color="#FFDB54"/>
<stop offset="0.634078" stop-color="#FFA43E"/>
<stop offset="1" stop-color="#FFC153"/>
</radialGradient>
<radialGradient id="paint5_radial" cx="0" cy="0" r="1" gradientUnits="userSpaceOnUse" gradientTransform="translate(73.7195 28.2058) rotate(20.8828) scale(20.605 16.8668)">
<stop stop-color="#FFDB54"/>
<stop offset="0.634078" stop-color="#FFA43E"/>
<stop offset="1" stop-color="#FFC153"/>
</radialGradient>
<linearGradient id="paint6_linear" x1="109.843" y1="165.488" x2="63.131" y2="227.223" gradientUnits="userSpaceOnUse">
<stop stop-color="#FFDB54"/>
<stop offset="0.634078" stop-color="#FFA43E"/>
<stop offset="1" stop-color="#FFC153"/>
</linearGradient>
<linearGradient id="paint7_linear" x1="82.1389" y1="254.984" x2="112.025" y2="175.682" gradientUnits="userSpaceOnUse">
<stop stop-color="#12347E"/>
<stop offset="0.421788" stop-color="#2959A2"/>
<stop offset="1" stop-color="#00204D"/>
</linearGradient>
<radialGradient id="paint8_radial" cx="0" cy="0" r="1" gradientUnits="userSpaceOnUse" gradientTransform="translate(145.617 158.198) rotate(82.2745) scale(25.9669)">
<stop stop-color="#434343"/>
<stop offset="0.634078" stop-color="#222222"/>
<stop offset="1" stop-color="#2F2F2F"/>
</radialGradient>
<radialGradient id="paint9_radial" cx="0" cy="0" r="1" gradientUnits="userSpaceOnUse" gradientTransform="translate(133.402 119.753) rotate(88.1264) scale(21.5801)">
<stop stop-color="#434343"/>
<stop offset="0.634078" stop-color="#222222"/>
<stop offset="1" stop-color="#2F2F2F"/>
</radialGradient>
<radialGradient id="paint10_radial" cx="0" cy="0" r="1" gradientUnits="userSpaceOnUse" gradientTransform="translate(110.992 170.162) rotate(83.7868) scale(20.3919)">
<stop stop-color="#434343"/>
<stop offset="0.634078" stop-color="#222222"/>
<stop offset="1" stop-color="#2F2F2F"/>
</radialGradient>
<radialGradient id="paint11_radial" cx="0" cy="0" r="1" gradientUnits="userSpaceOnUse" gradientTransform="translate(83.7143 101.416) rotate(79.5692) scale(28.359)">
<stop stop-color="#434343"/>
<stop offset="0.634078" stop-color="#222222"/>
<stop offset="1" stop-color="#2F2F2F"/>
</radialGradient>
<radialGradient id="paint12_radial" cx="0" cy="0" r="1" gradientUnits="userSpaceOnUse" gradientTransform="translate(120.172 83.5254) rotate(79.3552) scale(21.4001)">
<stop stop-color="#434343"/>
<stop offset="0.634078" stop-color="#222222"/>
<stop offset="1" stop-color="#2F2F2F"/>
</radialGradient>
<radialGradient id="paint13_radial" cx="0" cy="0" r="1" gradientUnits="userSpaceOnUse" gradientTransform="translate(174.493 144.896) rotate(91.7247) scale(18.545)">
<stop stop-color="#434343"/>
<stop offset="0.634078" stop-color="#222222"/>
<stop offset="1" stop-color="#2F2F2F"/>
</radialGradient>
<radialGradient id="paint14_radial" cx="0" cy="0" r="1" gradientUnits="userSpaceOnUse" gradientTransform="translate(97.4616 132.411) rotate(82.245) scale(26.4371)">
<stop stop-color="#434343"/>
<stop offset="0.634078" stop-color="#222222"/>
<stop offset="1" stop-color="#2F2F2F"/>
</radialGradient>
<radialGradient id="paint15_radial" cx="0" cy="0" r="1" gradientUnits="userSpaceOnUse" gradientTransform="translate(165.583 110.002) rotate(87.7733) scale(19.6199)">
<stop stop-color="#434343"/>
<stop offset="0.634078" stop-color="#222222"/>
<stop offset="1" stop-color="#2F2F2F"/>
</radialGradient>
<radialGradient id="paint16_radial" cx="0" cy="0" r="1" gradientUnits="userSpaceOnUse" gradientTransform="translate(149.422 79.6925) rotate(60.4731) scale(17.4797)">
<stop stop-color="#434343"/>
<stop offset="0.634078" stop-color="#222222"/>
<stop offset="1" stop-color="#2F2F2F"/>
</radialGradient>
<radialGradient id="paint17_radial" cx="0" cy="0" r="1" gradientUnits="userSpaceOnUse" gradientTransform="translate(127.853 159.052) rotate(85.3188) scale(25.2259)">
<stop stop-color="#CFD0D5"/>
<stop offset="1" stop-color="#868689"/>
</radialGradient>
<radialGradient id="paint18_radial" cx="0" cy="0" r="1" gradientUnits="userSpaceOnUse" gradientTransform="translate(96.5955 90.2484) rotate(86.9037) scale(23.4641)">
<stop stop-color="#CFD0D5"/>
<stop offset="1" stop-color="#868689"/>
</radialGradient>
<radialGradient id="paint19_radial" cx="0" cy="0" r="1" gradientUnits="userSpaceOnUse" gradientTransform="translate(117.282 119.684) rotate(94.9022) scale(27.6904)">
<stop stop-color="#CFD0D5"/>
<stop offset="1" stop-color="#868689"/>
</radialGradient>
<radialGradient id="paint20_radial" cx="0" cy="0" r="1" gradientUnits="userSpaceOnUse" gradientTransform="translate(161.718 148.245) rotate(86.7348) scale(25.285)">
<stop stop-color="#CFD0D5"/>
<stop offset="1" stop-color="#868689"/>
</radialGradient>
<radialGradient id="paint21_radial" cx="0" cy="0" r="1" gradientUnits="userSpaceOnUse" gradientTransform="translate(148.463 120.669) rotate(17.1793) scale(13.8823)">
<stop stop-color="#CFD0D5"/>
<stop offset="1" stop-color="#868689"/>
</radialGradient>
<radialGradient id="paint22_radial" cx="0" cy="0" r="1" gradientUnits="userSpaceOnUse" gradientTransform="translate(134.076 80.56) rotate(82.8481) scale(17.6937)">
<stop stop-color="#CFD0D5"/>
<stop offset="1" stop-color="#868689"/>
</radialGradient>
<radialGradient id="paint23_radial" cx="0" cy="0" r="1" gradientUnits="userSpaceOnUse" gradientTransform="translate(93.8437 165.76) rotate(17.1793) scale(7.07283)">
<stop stop-color="#CFD0D5"/>
<stop offset="1" stop-color="#868689"/>
</radialGradient>
<radialGradient id="paint24_radial" cx="0" cy="0" r="1" gradientUnits="userSpaceOnUse" gradientTransform="translate(174.145 128.463) rotate(90.8776) scale(15.4827)">
<stop stop-color="#CFD0D5"/>
<stop offset="1" stop-color="#868689"/>
</radialGradient>
<radialGradient id="paint25_radial" cx="0" cy="0" r="1" gradientUnits="userSpaceOnUse" gradientTransform="translate(139.458 138.134) rotate(88.6467) scale(26.0234)">
<stop stop-color="#CFD0D5"/>
<stop offset="1" stop-color="#868689"/>
</radialGradient>
<radialGradient id="paint26_radial" cx="0" cy="0" r="1" gradientUnits="userSpaceOnUse" gradientTransform="translate(105.382 153.423) rotate(87.6985) scale(21.8598)">
<stop stop-color="#CFD0D5"/>
<stop offset="1" stop-color="#868689"/>
</radialGradient>
<radialGradient id="paint27_radial" cx="0" cy="0" r="1" gradientUnits="userSpaceOnUse" gradientTransform="translate(122.724 143.964) rotate(82.6369) scale(25.3136)">
<stop stop-color="#434343"/>
<stop offset="0.634078" stop-color="#222222"/>
<stop offset="1" stop-color="#2F2F2F"/>
</radialGradient>
<radialGradient id="paint28_radial" cx="0" cy="0" r="1" gradientUnits="userSpaceOnUse" gradientTransform="translate(157.527 132.495) rotate(83.145) scale(17.0385)">
<stop stop-color="#434343"/>
<stop offset="0.634078" stop-color="#222222"/>
<stop offset="1" stop-color="#2F2F2F"/>
</radialGradient>
<radialGradient id="paint29_radial" cx="0" cy="0" r="1" gradientUnits="userSpaceOnUse" gradientTransform="translate(89.5715 115.811) rotate(94.1241) scale(19.8598)">
<stop stop-color="#CFD0D5"/>
<stop offset="1" stop-color="#868689"/>
</radialGradient>
<radialGradient id="paint30_radial" cx="0" cy="0" r="1" gradientUnits="userSpaceOnUse" gradientTransform="translate(159.302 92.4693) rotate(89.1359) scale(19.4624)">
<stop stop-color="#CFD0D5"/>
<stop offset="1" stop-color="#868689"/>
</radialGradient>
<radialGradient id="paint31_radial" cx="0" cy="0" r="1" gradientUnits="userSpaceOnUse" gradientTransform="translate(126.556 99.6593) rotate(96.9833) scale(19.7995)">
<stop stop-color="#CFD0D5"/>
<stop offset="1" stop-color="#868689"/>
</radialGradient>
<radialGradient id="paint32_radial" cx="0" cy="0" r="1" gradientUnits="userSpaceOnUse" gradientTransform="translate(108.057 107.402) rotate(77.5599) scale(23.827)">
<stop stop-color="#434343"/>
<stop offset="0.634078" stop-color="#222222"/>
<stop offset="1" stop-color="#2F2F2F"/>
</radialGradient>
<radialGradient id="paint33_radial" cx="0" cy="0" r="1" gradientUnits="userSpaceOnUse" gradientTransform="translate(144.633 93.3995) rotate(77.3033) scale(22.7966)">
<stop stop-color="#434343"/>
<stop offset="0.634078" stop-color="#222222"/>
<stop offset="1" stop-color="#2F2F2F"/>
</radialGradient>
<radialGradient id="paint34_radial" cx="0" cy="0" r="1" gradientUnits="userSpaceOnUse" gradientTransform="translate(145.617 158.197) rotate(82.2745) scale(25.9669)">
<stop stop-color="#FFDB54"/>
<stop offset="0.634078" stop-color="#FFA43E"/>
<stop offset="1" stop-color="#FFC153"/>
</radialGradient>
<radialGradient id="paint35_radial" cx="0" cy="0" r="1" gradientUnits="userSpaceOnUse" gradientTransform="translate(133.402 119.753) rotate(88.1264) scale(21.5801)">
<stop stop-color="#FFDB54"/>
<stop offset="0.634078" stop-color="#FFA43E"/>
<stop offset="1" stop-color="#FFC153"/>
</radialGradient>
<radialGradient id="paint36_radial" cx="0" cy="0" r="1" gradientUnits="userSpaceOnUse" gradientTransform="translate(83.7132 101.417) rotate(79.5692) scale(28.359)">
<stop stop-color="#FFDB54"/>
<stop offset="0.634078" stop-color="#FFA43E"/>
<stop offset="1" stop-color="#FFC153"/>
</radialGradient>
<radialGradient id="paint37_radial" cx="0" cy="0" r="1" gradientUnits="userSpaceOnUse" gradientTransform="translate(120.172 83.5251) rotate(79.3552) scale(21.4001)">
<stop stop-color="#FFDB54"/>
<stop offset="0.634078" stop-color="#FFA43E"/>
<stop offset="1" stop-color="#FFC153"/>
</radialGradient>
<radialGradient id="paint38_radial" cx="0" cy="0" r="1" gradientUnits="userSpaceOnUse" gradientTransform="translate(174.493 144.896) rotate(91.7247) scale(18.545)">
<stop stop-color="#FFDB54"/>
<stop offset="0.634078" stop-color="#FFA43E"/>
<stop offset="1" stop-color="#FFC153"/>
</radialGradient>
<radialGradient id="paint39_radial" cx="0" cy="0" r="1" gradientUnits="userSpaceOnUse" gradientTransform="translate(97.4617 132.411) rotate(82.245) scale(26.4371)">
<stop stop-color="#FFDB54"/>
<stop offset="0.634078" stop-color="#FFA43E"/>
<stop offset="1" stop-color="#FFC153"/>
</radialGradient>
<radialGradient id="paint40_radial" cx="0" cy="0" r="1" gradientUnits="userSpaceOnUse" gradientTransform="translate(165.582 110.003) rotate(87.7733) scale(19.6199)">
<stop stop-color="#FFDB54"/>
<stop offset="0.634078" stop-color="#FFA43E"/>
<stop offset="1" stop-color="#FFC153"/>
</radialGradient>
<radialGradient id="paint41_radial" cx="0" cy="0" r="1" gradientUnits="userSpaceOnUse" gradientTransform="translate(149.422 79.6926) rotate(60.4731) scale(17.4797)">
<stop stop-color="#FFDB54"/>
<stop offset="0.634078" stop-color="#FFA43E"/>
<stop offset="1" stop-color="#FFC153"/>
</radialGradient>
<radialGradient id="paint42_radial" cx="0" cy="0" r="1" gradientUnits="userSpaceOnUse" gradientTransform="translate(122.724 143.964) rotate(82.6369) scale(25.3136)">
<stop stop-color="#FFDB54"/>
<stop offset="0.634078" stop-color="#FFA43E"/>
<stop offset="1" stop-color="#FFC153"/>
</radialGradient>
<radialGradient id="paint43_radial" cx="0" cy="0" r="1" gradientUnits="userSpaceOnUse" gradientTransform="translate(157.527 132.494) rotate(83.145) scale(17.0385)">
<stop stop-color="#FFDB54"/>
<stop offset="0.634078" stop-color="#FFA43E"/>
<stop offset="1" stop-color="#FFC153"/>
</radialGradient>
<radialGradient id="paint44_radial" cx="0" cy="0" r="1" gradientUnits="userSpaceOnUse" gradientTransform="translate(108.056 107.403) rotate(77.5599) scale(23.827)">
<stop stop-color="#FFDB54"/>
<stop offset="0.634078" stop-color="#FFA43E"/>
<stop offset="1" stop-color="#FFC153"/>
</radialGradient>
<radialGradient id="paint45_radial" cx="0" cy="0" r="1" gradientUnits="userSpaceOnUse" gradientTransform="translate(144.633 93.3996) rotate(77.3033) scale(22.7966)">
<stop stop-color="#FFDB54"/>
<stop offset="0.634078" stop-color="#FFA43E"/>
<stop offset="1" stop-color="#FFC153"/>
</radialGradient>
<radialGradient id="paint46_radial" cx="0" cy="0" r="1" gradientUnits="userSpaceOnUse" gradientTransform="translate(110.992 170.162) rotate(83.7868) scale(20.3919)">
<stop stop-color="#FFDB54"/>
<stop offset="0.634078" stop-color="#FFA43E"/>
<stop offset="1" stop-color="#FFC153"/>
</radialGradient>
</defs>
</svg>
