<svg width="439" height="408" viewBox="0 0 439 408" fill="none" xmlns="http://www.w3.org/2000/svg">
<path d="M275.231 226.84C275.231 226.84 280.046 187.453 270.338 156.67C260.631 125.892 234.037 99.2808 234.037 99.2808L239.259 116.131C239.259 116.131 223.95 108.364 202.553 112.799C226.861 134.231 244.665 152.008 253.633 168.932C267.481 195.063 267.648 226.475 267.648 226.475L275.231 226.84Z" fill="url(#paint0_linear)"/>
<path d="M277.136 221.646C277.136 221.646 296.165 186.826 298.519 154.638C300.875 122.45 286.001 87.8958 286.001 87.8958L280.487 105.983C280.487 105.983 273.268 92.6072 251.747 88.8201C266.412 117.72 277.041 142.247 278.466 159.856C280.853 189.335 270.222 218.506 270.222 218.506L277.136 221.646Z" fill="url(#paint1_linear)"/>
<path d="M317.134 237.032C322.112 241.257 327.069 245.725 331.792 250.271C326.782 247.685 321.622 245.167 316.456 242.859C312.272 236.887 307.917 230.985 303.661 226.234C308.064 229.551 312.609 233.191 317.134 237.032Z" fill="#A1A1A1"/>
<path d="M303.66 226.235C307.916 230.985 312.271 236.887 316.455 242.859C311.288 240.549 306.112 238.447 301.072 236.69C297.403 229.966 293.698 223.291 291.031 217.381C294.994 219.925 299.258 222.917 303.66 226.235Z" fill="#A9A9A9"/>
<path d="M331.792 250.27C321.773 245.101 311.154 240.202 301.073 236.69C302.906 240.051 304.731 243.427 306.414 246.722C317.161 249.65 327.99 253.683 338.675 257.127C336.456 254.836 334.153 252.544 331.792 250.27Z" fill="#A1A1A1"/>
<path d="M338.675 257.127C327.99 253.683 317.161 249.65 306.414 246.722C308.096 250.018 309.634 253.237 310.896 256.287C322.541 258.313 334.062 261.32 345.048 263.977C343.027 261.708 340.893 259.418 338.675 257.127Z" fill="#A1A1A1"/>
<path d="M291.032 217.38C283.106 212.292 276.377 208.992 272.117 208.473C272.295 212.271 272.502 216.086 272.742 219.914C278.129 220.154 286.407 222.609 295.676 226.729C293.958 223.481 292.365 220.335 291.032 217.38Z" fill="#B0B0B0"/>
<path d="M295.676 226.729C286.407 222.609 278.129 220.154 272.742 219.914C272.982 223.743 273.257 227.582 273.572 231.427C281.445 231.051 290.99 233.177 301.073 236.69C299.238 233.328 297.395 229.977 295.676 226.729Z" fill="#A5A5A5"/>
<path d="M301.073 236.69C290.99 233.178 281.445 231.052 273.572 231.428C273.887 235.272 274.242 239.122 274.644 242.967C285.001 241.978 295.667 243.796 306.414 246.722C304.731 243.427 302.906 240.052 301.073 236.69Z" fill="#999999"/>
<path d="M306.414 246.722C295.668 243.796 285.001 241.978 274.645 242.967C275.046 246.812 275.494 250.656 275.992 254.487C287.48 253.219 299.25 254.262 310.896 256.287C309.634 253.237 308.096 250.018 306.414 246.722Z" fill="#909090"/>
<path d="M272.117 208.474C269.231 208.124 265.121 209.419 260.231 211.951C260.002 215.766 259.81 219.592 259.668 223.422C264.607 221.013 269.467 219.711 272.742 219.916C272.501 216.087 272.295 212.272 272.117 208.474Z" fill="#B7B7B7"/>
<path d="M272.742 219.914C269.468 219.71 264.607 221.012 259.669 223.421C259.526 227.253 259.433 231.089 259.405 234.925C264.454 232.788 269.442 231.548 273.572 231.427C273.257 227.582 272.982 223.743 272.742 219.914Z" fill="#A1A1A1"/>
<path d="M273.571 231.428C269.442 231.549 264.453 232.788 259.404 234.926C259.375 238.764 259.408 242.601 259.52 246.436C264.679 244.571 269.657 243.414 274.644 242.968C274.242 239.122 273.887 235.272 273.571 231.428Z" fill="#909090"/>
<path d="M274.645 242.966C269.658 243.412 264.679 244.569 259.521 246.434C259.631 250.27 259.818 254.1 260.096 257.922C265.305 256.18 270.617 255.08 275.992 254.486C275.494 250.654 275.046 246.81 274.645 242.966Z" fill="#868686"/>
<path d="M260.232 211.949C256.702 213.777 252.766 216.249 248.592 219.211C248.02 222.847 247.386 226.549 246.759 230.276C251.498 227.523 255.892 225.192 259.668 223.421C259.811 219.591 260.003 215.765 260.232 211.949Z" fill="#B8B8B8"/>
<path d="M259.669 223.421C255.893 225.192 251.498 227.522 246.759 230.276C246.133 234.006 245.513 237.763 244.974 241.513C250.195 238.841 255.089 236.575 259.405 234.925C259.433 231.088 259.526 227.252 259.669 223.421Z" fill="#A0A0A0"/>
<path d="M248.592 219.211C244.418 222.174 240.004 225.627 235.52 229.418C234.194 232.662 232.938 236.126 231.775 239.686C236.933 236.213 242.02 233.032 246.759 230.277C247.386 226.549 248.02 222.848 248.592 219.211Z" fill="#B8B8B8"/>
<path d="M246.758 230.278C242.019 233.033 236.932 236.214 231.774 239.687C230.611 243.249 229.538 246.907 228.58 250.538C234.204 247.264 239.752 244.186 244.973 241.515C245.513 237.764 246.132 234.008 246.758 230.278Z" fill="#A3A3A3"/>
<path d="M259.404 234.926C255.088 236.576 250.195 238.843 244.974 241.515C244.434 245.263 243.972 249.006 243.659 252.704C249.308 250.146 254.664 247.966 259.52 246.436C259.408 242.601 259.375 238.764 259.404 234.926Z" fill="#8F8F8F"/>
<path d="M259.52 246.436C254.664 247.965 249.308 250.146 243.659 252.704C243.348 256.403 243.185 260.058 243.242 263.635C249.29 261.375 254.995 259.398 260.095 257.923C259.817 254.101 259.63 250.272 259.52 246.436Z" fill="#848484"/>
<path d="M244.974 241.514C239.752 244.185 234.204 247.262 228.58 250.537C227.62 254.168 226.772 257.774 226.058 261.231C232.075 258.196 238.012 255.261 243.659 252.703C243.972 249.005 244.434 245.262 244.974 241.514Z" fill="#939393"/>
<path d="M243.659 252.704C238.012 255.262 232.074 258.197 226.058 261.232C225.343 264.689 224.763 267.996 224.334 271.031C230.804 268.434 237.194 265.893 243.242 263.635C243.185 260.058 243.348 256.403 243.659 252.704Z" fill="#888888"/>
<path d="M235.52 229.417C226.551 236.997 217.297 245.925 209.096 254.972C204.25 260.319 199.772 265.705 195.94 270.88C205.781 264.425 217.332 257.086 228.581 250.537C230.5 243.273 232.868 235.905 235.52 229.417Z" fill="#B8B8B8"/>
<path d="M228.58 250.538C222.955 253.812 217.256 257.284 211.732 260.744C210.346 264.048 209.107 267.309 207.985 270.366C213.947 267.404 220.043 264.267 226.059 261.232C226.772 257.775 227.621 254.169 228.58 250.538Z" fill="#9D9D9D"/>
<path d="M226.059 261.232C220.042 264.267 213.947 267.404 207.985 270.366C206.863 273.423 205.86 276.277 204.947 278.771C211.315 276.283 217.864 273.628 224.334 271.031C224.763 267.996 225.343 264.688 226.059 261.232Z" fill="#939393"/>
<path d="M211.732 260.745C206.207 264.205 200.86 267.653 195.939 270.881C194.023 273.469 192.268 276.003 190.708 278.452C196.192 276.115 202.022 273.328 207.985 270.366C209.107 267.309 210.346 264.049 211.732 260.745Z" fill="#AAAAAA"/>
<path d="M207.985 270.365C202.023 273.327 196.193 276.114 190.709 278.451C189.149 280.9 187.786 283.265 186.652 285.513C192.394 283.581 198.58 281.259 204.947 278.77C205.86 276.277 206.863 273.422 207.985 270.365L207.985 270.365Z" fill="#A3A3A3"/>
<path d="M345.048 263.977C331.49 260.697 317.12 256.887 302.704 255.044C304.074 258.546 305.531 262.646 306.948 266.706C322.378 267.631 337.689 270.112 351.804 272.018C349.743 269.394 347.475 266.702 345.048 263.977Z" fill="#A1A1A1"/>
<path d="M351.804 272.016C337.689 270.11 322.379 267.63 306.948 266.704C308.368 270.763 309.75 274.78 310.97 278.115C326.906 278.048 342.652 279.124 357.324 279.658C355.721 277.201 353.866 274.642 351.804 272.016Z" fill="#A1A1A1"/>
<path d="M302.704 255.045C288.29 253.201 273.831 253.328 260.095 257.923C260.407 262.204 260.83 266.473 261.384 270.726C275.971 266.411 291.519 265.78 306.948 266.706C305.53 262.647 304.074 258.546 302.704 255.045Z" fill="#898989"/>
<path d="M306.949 266.704C291.52 265.778 275.972 266.409 261.385 270.724C261.941 274.977 262.627 279.212 263.464 283.424C278.904 279.39 295.033 278.181 310.971 278.115C309.75 274.78 308.368 270.763 306.949 266.704Z" fill="#8C8C8C"/>
<path d="M357.324 279.658C360.834 285.036 363.138 289.923 363.757 293.946C349.353 296.85 333.594 299.198 317.479 301.784C316.245 295.184 313.644 285.433 310.97 278.115C326.906 278.048 342.652 279.124 357.324 279.658Z" fill="#A1A1A1"/>
<path d="M310.97 278.116C313.644 285.434 316.245 295.185 317.479 301.785C301.367 304.371 284.9 307.195 269.086 311.045C267.234 301.867 265.304 292.686 263.463 283.426C278.903 279.392 295.032 278.182 310.97 278.116Z" fill="#929292"/>
<path d="M363.757 293.947C349.353 296.85 333.593 299.198 317.479 301.784C318.577 307.675 319.153 315.131 319.098 322.848C334.362 318.128 349.134 312.858 361.6 307.34C363.519 302.303 364.339 297.739 363.757 293.947Z" fill="#A1A1A1"/>
<path d="M361.601 307.34C359.683 312.377 356.668 317.885 352.857 323.565C347.59 327.631 341.862 331.554 335.82 335.238C338.888 329.166 340.62 322.076 341.399 315.393C348.557 312.795 355.368 310.099 361.601 307.34Z" fill="#A1A1A1"/>
<path d="M341.4 315.392C340.62 322.075 338.889 329.165 335.821 335.237C329.779 338.921 323.428 342.365 316.918 345.476C318.353 338.543 319.043 330.565 319.098 322.848C326.73 320.487 334.24 317.989 341.4 315.392Z" fill="#B1B1B1"/>
<path d="M317.479 301.785C301.367 304.371 284.9 307.195 269.086 311.045C270.697 319.033 272.251 327.019 273.637 335.054C288.077 331.738 303.833 327.57 319.097 322.849C319.153 315.132 318.577 307.676 317.479 301.785Z" fill="#A9A9A9"/>
<path d="M319.097 322.848C311.465 325.208 303.71 327.43 296.058 329.478C296.338 333.558 296.541 337.667 296.698 341.73C303.943 339.603 311.307 337.166 318.525 334.456C318.883 330.63 319.069 326.707 319.097 322.848Z" fill="#BCBCBC"/>
<path d="M318.525 334.457C311.308 337.167 303.944 339.603 296.698 341.731C296.855 345.795 296.965 349.812 297.065 353.709C303.739 351.364 310.407 348.588 316.918 345.477C317.635 342.011 318.166 338.283 318.525 334.457Z" fill="#C3C3C3"/>
<path d="M296.058 329.478C288.406 331.524 280.856 333.395 273.637 335.054C274.328 339.072 274.979 343.102 275.574 347.152C282.322 345.678 289.451 343.859 296.698 341.731C296.541 337.668 296.338 333.558 296.058 329.478Z" fill="#C3C3C3"/>
<path d="M296.698 341.731C289.451 343.859 282.322 345.678 275.573 347.152C276.169 351.201 276.708 355.269 277.179 359.362C283.71 357.972 290.39 356.056 297.065 353.71C296.965 349.813 296.855 345.796 296.698 341.731Z" fill="#CBCBCB"/>
<path d="M260.095 257.922C260.619 265.122 261.46 272.29 262.711 279.4C257.123 280.829 250.909 282.543 244.339 284.369C243.218 277.805 243.257 270.553 243.242 263.634C249.291 261.374 254.996 259.397 260.095 257.922Z" fill="#818181"/>
<path d="M243.243 263.634C243.258 270.553 243.218 277.805 244.339 284.369C237.769 286.194 230.844 288.133 223.836 290.014C222.999 284.652 223.233 277.335 224.335 271.03C230.805 268.433 237.195 265.892 243.243 263.634Z" fill="#848484"/>
<path d="M224.335 271.03C223.233 277.334 222.999 284.652 223.836 290.014C216.828 291.896 209.736 293.722 202.831 295.321C202.28 291.157 202.728 284.459 204.948 278.77C211.315 276.282 217.865 273.627 224.335 271.03Z" fill="#8F8F8F"/>
<path d="M204.947 278.771C202.728 284.46 202.28 291.158 202.831 295.321C195.926 296.92 189.209 298.295 182.953 299.273C182.531 295.656 183.925 290.922 186.652 285.513C192.394 283.581 198.579 281.259 204.947 278.771Z" fill="#A0A0A0"/>
<path d="M262.711 279.401C262.946 280.744 263.198 282.086 263.464 283.426C257.842 284.765 251.589 286.345 244.979 288.007C244.737 286.791 244.547 285.582 244.339 284.37C250.909 282.544 257.123 280.83 262.711 279.401Z" fill="#8A8A8A"/>
<path d="M244.339 284.369C244.547 285.581 244.737 286.79 244.979 288.006C238.368 289.666 231.401 291.409 224.349 293.072C224.16 292.131 223.983 290.939 223.836 290.015C230.844 288.133 237.769 286.195 244.339 284.369Z" fill="#8D8D8D"/>
<path d="M223.836 290.014C223.983 290.938 224.16 292.13 224.35 293.071C217.297 294.736 210.161 296.321 203.213 297.67C203.077 297.001 202.918 295.955 202.832 295.321C209.736 293.722 216.828 291.897 223.836 290.014Z" fill="#959595"/>
<path d="M202.831 295.322C202.917 295.957 203.076 297.002 203.213 297.672C196.264 299.019 189.507 300.131 183.209 300.846C183.097 300.302 183.011 299.777 182.952 299.274C189.209 298.295 195.926 296.921 202.831 295.322Z" fill="#A2A2A2"/>
<path d="M263.464 283.425C265.985 296.113 268.675 308.652 271.102 321.242C266.167 322.305 260.21 323.085 253.699 323.581C250.47 311.468 247.272 299.513 244.979 288.006C251.59 286.344 257.842 284.765 263.464 283.425Z" fill="#8E8E8E"/>
<path d="M244.979 288.006C247.272 299.513 250.47 311.468 253.699 323.581C247.186 324.077 240.119 324.291 232.962 324.222C229.212 312.907 226.137 301.983 224.349 293.072C231.401 291.408 238.368 289.666 244.979 288.006Z" fill="#909090"/>
<path d="M271.101 321.243C266.166 322.306 260.209 323.086 253.698 323.583C255.312 329.638 256.935 335.734 258.455 341.833C264.528 341.63 270.031 341.065 274.496 340.19C273.465 333.846 272.316 327.537 271.101 321.243Z" fill="#B8B8B8"/>
<path d="M274.496 340.19C270.032 341.065 264.528 341.629 258.456 341.832C259.977 347.929 261.396 354.031 262.607 360.098C267.968 360.384 272.927 360.15 277.179 359.362C276.438 352.917 275.527 346.534 274.496 340.19Z" fill="#CACACA"/>
<path d="M253.698 323.581C247.186 324.077 240.118 324.291 232.961 324.222C234.835 329.88 236.877 335.635 239.013 341.286C245.746 341.869 252.384 342.033 258.456 341.831C256.935 335.733 255.313 329.637 253.698 323.581Z" fill="#B7B7B7"/>
<path d="M258.456 341.832C252.384 342.033 245.746 341.87 239.013 341.287C241.148 346.937 243.374 352.482 245.617 357.721C251.479 359.009 257.245 359.814 262.607 360.099C261.396 354.031 259.977 347.929 258.456 341.832Z" fill="#C7C7C7"/>
<path d="M224.349 293.072C226.137 301.983 229.211 312.908 232.961 324.223C225.802 324.155 218.553 323.806 211.678 323.177C207.43 313.27 204.496 303.985 203.212 297.672C210.16 296.322 217.296 294.737 224.349 293.072Z" fill="#979797"/>
<path d="M203.213 297.671C204.497 303.985 207.43 313.269 211.679 323.176C204.805 322.55 198.305 321.642 192.643 320.457C187.65 312.853 184.266 305.98 183.209 300.846C189.507 300.13 196.265 299.019 203.213 297.671Z" fill="#A3A3A3"/>
<path d="M232.962 324.223C225.802 324.155 218.553 323.806 211.679 323.177C213.803 328.132 216.258 333.243 218.999 338.218C225.451 339.699 232.279 340.702 239.013 341.287C236.877 335.636 234.835 329.881 232.962 324.223Z" fill="#B4B4B4"/>
<path d="M239.013 341.287C232.279 340.702 225.451 339.698 218.999 338.218C221.74 343.192 224.769 348.028 228.044 352.437C233.795 354.658 239.755 356.432 245.617 357.72C243.374 352.482 241.147 346.936 239.013 341.287Z" fill="#C0C0C0"/>
<path d="M211.678 323.176C215.928 333.086 221.494 343.621 228.044 352.437C222.295 350.215 216.752 347.544 211.726 344.459C204.236 336.398 197.635 328.062 192.642 320.457C198.304 321.642 204.804 322.55 211.678 323.176Z" fill="#AFAFAF"/>
<path d="M352.857 323.565C351.003 326.33 348.959 329.138 346.764 331.949C341.852 336.563 336.484 341.063 330.858 345.288C332.682 341.735 334.373 338.182 335.866 335.211C341.889 331.535 347.603 327.622 352.857 323.565Z" fill="#A1A1A1"/>
<path d="M335.866 335.21C334.373 338.182 332.682 341.735 330.858 345.287C325.233 349.513 319.352 353.464 313.413 356.977C314.915 352.922 316.322 348.856 317.016 345.431C323.508 342.325 329.841 338.886 335.866 335.21Z" fill="#B6B6B6"/>
<path d="M346.763 331.95C336.937 341.177 325.29 349.95 313.412 356.978C311.911 361.034 310.319 365.077 309.257 368.455C319.845 360.663 330.608 350.714 339.752 340.372C342.219 337.581 344.567 334.763 346.763 331.95Z" fill="#A1A1A1"/>
<path d="M317.015 345.431C316.321 348.857 314.914 352.923 313.412 356.978C307.474 360.493 301.478 363.572 295.623 366.053C296.497 361.806 297.32 357.535 297.215 353.656C303.872 351.311 310.523 348.537 317.015 345.431Z" fill="#C5C5C5"/>
<path d="M297.216 353.655C297.32 357.534 296.498 361.805 295.623 366.052C289.768 368.533 284.055 370.418 278.682 371.544C278.277 367.49 277.843 363.404 277.376 359.319C283.895 357.921 290.558 356.002 297.216 353.655Z" fill="#CECECE"/>
<path d="M313.413 356.977C311.912 361.033 310.32 365.076 309.258 368.454C303.963 372.35 298.713 375.706 293.728 378.303C293.825 374.521 294.749 370.299 295.623 366.053C301.478 363.571 307.474 360.493 313.413 356.977Z" fill="#BEBEBE"/>
<path d="M295.623 366.053C294.749 370.3 293.825 374.522 293.728 378.303C288.744 380.901 284.026 382.736 279.801 383.592C279.458 379.628 279.086 375.601 278.681 371.545C284.055 370.42 289.768 368.534 295.623 366.053Z" fill="#C6C6C6"/>
<path d="M277.375 359.319C277.309 359.333 277.243 359.347 277.179 359.361C277.647 363.446 278.083 367.53 278.488 371.585C278.553 371.573 278.618 371.558 278.682 371.545C278.277 367.49 277.843 363.404 277.375 359.319L277.375 359.319Z" fill="#D1D1D1"/>
<path d="M278.681 371.545C278.617 371.559 278.553 371.574 278.488 371.585C278.894 375.641 279.268 379.666 279.613 383.63C279.676 383.617 279.738 383.604 279.801 383.592C279.458 379.628 279.085 375.601 278.681 371.545L278.681 371.545Z" fill="#CACACA"/>
<path d="M277.179 359.361C277.646 363.447 278.083 367.531 278.488 371.585C274.524 372.336 270.025 372.37 265.209 371.78C264.302 367.883 263.378 363.949 262.607 360.098C267.968 360.384 272.927 360.15 277.179 359.361Z" fill="#D1D1D1"/>
<path d="M262.607 360.098C263.378 363.949 264.302 367.883 265.209 371.78C260.393 371.189 255.262 369.976 250.03 368.23C248.534 364.667 247.056 361.059 245.617 357.721C251.479 359.008 257.245 359.813 262.607 360.098Z" fill="#CECECE"/>
<path d="M278.488 371.584C278.895 375.64 279.268 379.665 279.613 383.629C275.934 384.342 271.933 384.163 267.72 383.25C267.008 379.538 266.117 375.676 265.209 371.779C270.025 372.369 274.524 372.335 278.488 371.584Z" fill="#CACACA"/>
<path d="M265.208 371.781C266.116 375.677 267.008 379.54 267.719 383.251C263.504 382.338 259.08 380.69 254.555 378.464C253.042 375.309 251.527 371.792 250.03 368.231C255.261 369.976 260.393 371.189 265.208 371.781Z" fill="#C7C7C7"/>
<path d="M245.616 357.721C247.056 361.059 248.533 364.667 250.029 368.23C244.799 366.486 239.47 364.207 234.259 361.492C232.179 358.407 230.151 355.264 228.044 352.438C233.795 354.659 239.754 356.433 245.616 357.721Z" fill="#C5C5C5"/>
<path d="M228.045 352.436C230.152 355.262 232.18 358.405 234.261 361.491C229.051 358.775 223.962 355.62 219.209 352.119C216.639 349.616 214.137 347.051 211.727 344.458C216.753 347.544 222.296 350.214 228.045 352.436Z" fill="#B6B6B6"/>
<path d="M250.03 368.229C239.569 364.737 228.714 359.12 219.209 352.118C221.778 354.622 224.416 357.063 227.098 359.408C236.056 367.241 245.506 374.01 254.556 378.463C253.043 375.307 251.527 371.791 250.03 368.229Z" fill="#BEBEBE"/>
<g opacity="0.800003">
<g opacity="0.800003">
<g opacity="0.800003">
<g opacity="0.800003">
<g opacity="0.800003">
<path opacity="0.800003" d="M250.917 258.744C242.339 248.723 235.198 239.907 230.385 233.838C229.333 234.784 228.286 235.734 227.246 236.693C221.648 241.849 216.231 247.174 211.07 252.733C215.834 260.841 222.786 270.055 230.892 279.618C237.443 273.034 244.249 265.973 250.917 258.744Z" fill="url(#paint2_radial)"/>
</g>
</g>
</g>
</g>
<g opacity="0.800003">
<g opacity="0.800003">
<g opacity="0.800003">
<g opacity="0.800003">
<path opacity="0.800003" d="M271.945 282.325C265.552 289.429 258.904 296.465 252.219 303.037C259.443 310.519 266.86 317.837 273.992 324.64C280.371 318.305 287.071 311.448 293.708 304.368C286.295 297.345 278.944 289.832 271.945 282.325Z" fill="url(#paint3_radial)"/>
</g>
</g>
</g>
</g>
<g opacity="0.800003">
<g opacity="0.800003">
<g opacity="0.800003">
<g opacity="0.800003">
<path opacity="0.800003" d="M286.783 214.684C286.548 214.543 286.324 214.39 286.09 214.249C281.529 211.52 276.802 209.105 271.483 208.157C270.18 208.333 268.875 208.51 267.571 208.687C263.877 210.45 260.022 211.939 256.518 214.023C256.307 214.149 256.102 214.283 255.892 214.411C260.077 220.868 265.433 227.891 271.496 235.147C277.273 228.062 282.49 221.144 286.783 214.684Z" fill="url(#paint4_radial)"/>
</g>
</g>
</g>
</g>
<g opacity="0.800003">
<g opacity="0.800003">
<g opacity="0.800003">
<g opacity="0.800003">
<path opacity="0.800003" d="M356.612 317.739C359.708 312.579 362.263 307.148 363.48 301.159C363.81 299.539 363.97 297.884 364.207 296.243C364.013 294.821 363.82 293.399 363.627 291.976C361.72 286.982 359.268 282.387 356.442 278.074C351.309 284.75 344.857 292.936 337.574 301.747C345.981 309.203 352.783 314.873 356.612 317.739Z" fill="url(#paint5_radial)"/>
</g>
</g>
</g>
</g>
<g opacity="0.800003">
<g opacity="0.800003">
<g opacity="0.800003">
<g opacity="0.800003">
<path opacity="0.800003" d="M297.308 346.041C307.321 354.856 314.758 360.855 317.083 362.173C317.127 362.196 317.172 362.211 317.215 362.233C326.002 354.99 334.135 347.127 341.474 338.522C334.223 335.963 326.127 331.115 317.667 324.826C311.062 332.133 304.198 339.35 297.308 346.041Z" fill="url(#paint6_radial)"/>
</g>
</g>
</g>
</g>
<g opacity="0.800003">
<g opacity="0.800003">
<g opacity="0.800003">
<g opacity="0.800003">
<path opacity="0.800003" d="M190.27 279.025C187.765 282.995 185.59 287.152 184.104 291.688C183.393 293.858 183.155 296.182 182.7 298.438C182.813 299.267 182.925 300.098 183.038 300.927C184.709 304.856 186.111 308.925 188.102 312.684C188.87 314.136 189.68 315.557 190.515 316.961C193.55 314.745 200.124 309.061 208.604 301.186C201.239 292.575 194.936 284.857 190.27 279.025Z" fill="url(#paint7_radial)"/>
</g>
</g>
</g>
</g>
<g opacity="0.800003">
<g opacity="0.800003">
<g opacity="0.800003">
<g opacity="0.800003">
<path opacity="0.800003" d="M292.454 258.416C299.817 266.109 307.428 273.663 314.773 280.702C322.714 271.215 329.805 261.918 335.159 253.503L333.847 252.202C327.029 245.458 319.956 239.02 312.561 232.982C307.397 239.772 300.464 248.666 292.454 258.416Z" fill="url(#paint8_radial)"/>
</g>
</g>
</g>
</g>
<g opacity="0.800003">
<g opacity="0.800003">
<g opacity="0.800003">
<g opacity="0.800003">
<path opacity="0.800003" d="M236.074 359.182C238.009 358.015 243.503 353.405 251.059 346.521C243.418 339.257 235.849 331.482 228.67 323.742C220.306 330.07 212.325 334.803 205.21 337.045C206.23 338.238 207.261 339.427 208.304 340.603C214.76 347.902 221.598 354.775 228.98 361.035C231.399 361.029 233.847 360.522 236.074 359.182Z" fill="url(#paint9_radial)"/>
</g>
</g>
</g>
</g>
<g opacity="0.800003">
<g opacity="0.800003">
<g opacity="0.800003">
<g opacity="0.800003">
<path opacity="0.800003" d="M273.935 366.266C266.709 371.607 259.799 375.686 253.509 377.957C258.779 380.671 264.326 382.757 270.364 383.669C272.41 383.979 274.492 384.029 276.556 384.2C277.86 384.023 279.165 383.846 280.469 383.669C281.912 383.181 283.361 382.707 284.8 382.204C287.726 381.175 290.535 379.939 293.268 378.571C287.19 375.619 280.671 371.388 273.935 366.266Z" fill="url(#paint10_radial)"/>
</g>
</g>
</g>
</g>
<g opacity="0.800003">
<g opacity="0.800003">
<g opacity="0.800003">
<g opacity="0.800003">
<path opacity="0.800003" d="M230.377 233.834C238.354 226.683 246.692 219.969 255.898 214.417C260.079 220.868 265.439 227.895 271.494 235.145C265.145 242.949 258.112 250.936 250.918 258.749C242.343 248.716 235.201 239.909 230.377 233.834Z" fill="url(#paint11_radial)"/>
</g>
</g>
</g>
</g>
<g opacity="0.800003">
<g opacity="0.800003">
<g opacity="0.800003">
<g opacity="0.800003">
<path opacity="0.800003" d="M317.671 324.83C324.7 317.04 331.437 309.185 337.577 301.741C345.984 309.2 352.776 314.872 356.607 317.748C356.177 318.469 355.733 319.195 355.272 319.921C351.08 326.496 346.456 332.677 341.47 338.515C334.229 335.967 326.128 331.106 317.671 324.83Z" fill="url(#paint12_radial)"/>
</g>
</g>
</g>
</g>
<g opacity="0.800003">
<g opacity="0.800003">
<g opacity="0.800003">
<g opacity="0.800003">
<path opacity="0.800003" d="M293.709 304.368C300.979 296.612 308.168 288.593 314.774 280.702C307.428 273.663 299.817 266.108 292.454 258.416C286.172 266.064 279.229 274.231 271.946 282.324C278.945 289.831 286.296 297.345 293.709 304.368Z" fill="url(#paint13_radial)"/>
</g>
</g>
</g>
</g>
<g opacity="0.800003">
<g opacity="0.800003">
<g opacity="0.800003">
<g opacity="0.800003">
<path opacity="0.800003" d="M190.264 279.026C192.066 276.186 194.003 273.448 196.02 270.744C200.702 264.435 205.744 258.453 211.064 252.736C215.831 260.84 222.786 270.052 230.892 279.62C222.819 287.732 215.144 295.113 208.605 301.191C201.235 292.579 194.934 284.865 190.264 279.026Z" fill="url(#paint14_radial)"/>
</g>
</g>
</g>
</g>
<g opacity="0.800003">
<g opacity="0.800003">
<g opacity="0.800003">
<g opacity="0.800003">
<path opacity="0.800003" d="M273.992 324.639C266.861 317.836 259.444 310.518 252.22 303.036C244.295 310.828 236.324 317.951 228.67 323.742C235.849 331.481 243.419 339.256 251.06 346.52C257.51 340.645 265.463 333.111 273.992 324.639Z" fill="url(#paint15_radial)"/>
</g>
</g>
</g>
</g>
<g opacity="0.800003">
<g opacity="0.800003">
<g opacity="0.800003">
<g opacity="0.800003">
<path opacity="0.800003" d="M273.937 366.261C281.506 360.661 289.419 353.701 297.311 346.036C307.32 354.847 314.761 360.854 317.081 362.169C317.131 362.192 317.179 362.215 317.209 362.225C315.202 363.886 313.146 365.524 311.071 367.134C305.441 371.459 299.58 375.411 293.265 378.575C287.188 375.614 280.669 371.383 273.937 366.261Z" fill="url(#paint16_radial)"/>
</g>
</g>
</g>
</g>
<g opacity="0.800003">
<g opacity="0.800003">
<g opacity="0.800003">
<g opacity="0.800003">
<path opacity="0.800003" d="M286.779 214.689C295.869 220.171 304.414 226.328 312.561 232.978L286.779 214.689Z" fill="url(#paint17_radial)"/>
</g>
</g>
</g>
</g>
<g opacity="0.800003">
<g opacity="0.800003">
<g opacity="0.800003">
<g opacity="0.800003">
<path opacity="0.800003" d="M190.511 316.96C193.546 314.752 200.121 309.06 208.604 301.193C214.684 308.29 221.479 315.997 228.673 323.743C220.298 330.071 212.325 334.806 205.203 337.041C199.802 330.713 194.757 324.123 190.511 316.96Z" fill="url(#paint18_radial)"/>
</g>
</g>
</g>
</g>
<g opacity="0.800003">
<g opacity="0.800003">
<g opacity="0.800003">
<g opacity="0.800003">
<path opacity="0.800003" d="M271.945 282.324C264.401 274.236 257.266 266.162 250.917 258.743C244.249 265.972 237.443 273.033 230.893 279.618C237.43 287.332 244.717 295.271 252.22 303.037C258.905 296.464 265.553 289.429 271.945 282.324Z" fill="url(#paint19_radial)"/>
</g>
</g>
</g>
</g>
<g opacity="0.800003">
<g opacity="0.800003">
<g opacity="0.800003">
<g opacity="0.800003">
<path opacity="0.800003" d="M271.496 235.147C277.875 242.78 285.035 250.665 292.454 258.415C300.464 248.665 307.397 239.771 312.561 232.981C304.412 226.324 295.861 220.164 286.783 214.683C282.49 221.144 277.273 228.062 271.496 235.147Z" fill="url(#paint20_radial)"/>
</g>
</g>
</g>
</g>
<g opacity="0.800003">
<g opacity="0.800003">
<g opacity="0.800003">
<g opacity="0.800003">
<path opacity="0.800003" d="M292.454 258.417C285.034 250.666 277.874 242.781 271.496 235.148C265.139 242.945 258.111 250.941 250.917 258.744C257.266 266.163 264.401 274.237 271.945 282.325C279.228 274.232 286.171 266.065 292.454 258.417Z" fill="url(#paint21_radial)"/>
</g>
</g>
</g>
</g>
<g opacity="0.800003">
<g opacity="0.800003">
<g opacity="0.800003">
<g opacity="0.800003">
<path opacity="0.800003" d="M230.893 279.618C222.823 287.728 215.147 295.108 208.604 301.186C214.679 308.288 221.478 315.992 228.67 323.743C236.324 317.952 244.295 310.829 252.22 303.037C244.717 295.272 237.43 287.332 230.893 279.618Z" fill="url(#paint22_radial)"/>
</g>
</g>
</g>
</g>
<g opacity="0.800003">
<g opacity="0.800003">
<g opacity="0.800003">
<g opacity="0.800003">
<path opacity="0.800003" d="M314.773 280.709C322.719 271.211 329.802 261.919 335.162 253.51C342.905 261.181 350.502 269.009 356.441 278.071C351.312 284.756 344.862 292.936 337.577 301.742C330.784 295.722 322.943 288.533 314.773 280.709Z" fill="url(#paint23_radial)"/>
</g>
</g>
</g>
</g>
<g opacity="0.800003">
<g opacity="0.800003">
<g opacity="0.800003">
<g opacity="0.800003">
<path opacity="0.800003" d="M228.984 361.032C231.397 361.023 233.849 360.522 236.067 359.181C238.006 358.011 243.505 353.401 251.067 346.52C258.726 353.809 266.465 360.575 273.938 366.261C266.711 371.604 259.796 375.681 253.509 377.952C250.184 376.247 246.96 374.284 243.795 372.195C238.605 368.765 233.675 365.027 228.984 361.032Z" fill="url(#paint24_radial)"/>
</g>
</g>
</g>
</g>
<g opacity="0.800003">
<g opacity="0.800003">
<g opacity="0.800003">
<g opacity="0.800003">
<path opacity="0.800003" d="M293.709 304.367C287.072 311.447 280.372 318.303 273.993 324.639C282.437 332.693 290.472 340.023 297.309 346.04C304.199 339.349 311.063 332.131 317.668 324.824C309.864 319.019 301.755 311.99 293.709 304.367Z" fill="url(#paint25_radial)"/>
</g>
</g>
</g>
</g>
<g opacity="0.800003">
<g opacity="0.800003">
<g opacity="0.800003">
<g opacity="0.800003">
<path opacity="0.800003" d="M317.668 324.824C324.701 317.046 331.432 309.179 337.574 301.747C330.783 295.724 322.948 288.536 314.774 280.701C308.168 288.591 300.979 296.611 293.709 304.366C301.755 311.99 309.864 319.019 317.668 324.824Z" fill="url(#paint26_radial)"/>
</g>
</g>
</g>
</g>
<g opacity="0.800003">
<g opacity="0.800003">
<g opacity="0.800003">
<g opacity="0.800003">
<path opacity="0.800003" d="M251.059 346.52C258.726 353.808 266.459 360.579 273.935 366.265C281.508 360.667 289.42 353.699 297.309 346.04C290.471 340.023 282.436 332.693 273.992 324.639C265.462 333.111 257.51 340.645 251.059 346.52Z" fill="url(#paint27_radial)"/>
</g>
</g>
</g>
</g>
</g>
<g opacity="0.800003">
<g opacity="0.800003">
<path opacity="0.800003" d="M251.06 346.521C251.06 346.523 251.062 346.524 251.063 346.525C249.059 348.348 247.207 350.005 245.52 351.488C247.206 350.004 249.058 348.347 251.06 346.521ZM188.101 312.683C188.867 314.134 189.679 315.554 190.512 316.958C190.511 316.957 190.51 316.959 190.51 316.959C194.757 324.123 199.802 330.712 205.203 337.041C211.102 335.189 217.592 331.603 224.406 326.835C217.597 331.604 211.103 335.189 205.21 337.045C206.231 338.239 207.261 339.427 208.304 340.605C214.758 347.902 221.599 354.776 228.981 361.036C228.983 361.035 228.985 361.035 228.987 361.036C233.677 365.03 238.605 368.767 243.794 372.195C246.959 374.285 250.184 376.248 253.509 377.955C259.792 375.682 266.707 371.605 273.933 366.264C273.934 366.264 273.934 366.266 273.934 366.266C273.936 366.265 273.937 366.264 273.939 366.263C278.472 369.713 282.907 372.746 287.178 375.272C282.906 372.749 278.471 369.716 273.934 366.266C266.708 371.607 259.797 375.687 253.508 377.959C258.779 380.673 264.324 382.758 270.365 383.67C272.408 383.979 274.492 384.029 276.556 384.201C277.859 384.023 279.163 383.846 280.468 383.668C281.912 383.182 283.362 382.707 284.801 382.204C287.722 381.175 290.529 379.941 293.26 378.575L293.265 378.577C299.579 375.411 305.441 371.46 311.07 367.134C313.145 365.526 315.201 363.89 317.208 362.229L317.215 362.233C326.003 354.99 334.135 347.127 341.473 338.522C335.506 336.417 328.964 332.743 322.123 328.01C328.965 332.739 335.509 336.418 341.469 338.515C346.456 332.678 351.08 326.497 355.271 319.923C355.732 319.195 356.176 318.472 356.606 317.75C354.714 316.33 352.096 314.221 348.922 311.56C352.099 314.219 354.72 316.326 356.611 317.741C359.706 312.58 362.262 307.151 363.479 301.162C363.809 299.54 363.968 297.885 364.205 296.243C364.013 294.823 363.82 293.4 363.625 291.977C361.717 286.984 359.267 282.388 356.441 278.075C355.566 279.214 354.637 280.412 353.688 281.636C354.638 280.411 355.564 279.211 356.439 278.07C350.501 269.008 342.904 261.181 335.162 253.511C329.801 261.919 322.72 271.209 314.776 280.706C314.774 280.705 314.773 280.704 314.773 280.704C322.715 271.215 329.805 261.918 335.159 253.503L333.847 252.202C327.029 245.458 319.954 239.021 312.561 232.982C312.551 232.974 312.539 232.965 312.529 232.956L312.562 232.978C310.225 231.072 307.843 229.217 305.438 227.394C299.452 222.86 293.256 218.594 286.782 214.683C286.547 214.542 286.323 214.39 286.089 214.249C281.528 211.52 276.802 209.106 271.483 208.157C270.18 208.333 268.875 208.51 267.571 208.687C263.876 210.449 260.022 211.939 256.518 214.024C256.306 214.149 256.101 214.285 255.892 214.411C255.893 214.413 255.896 214.415 255.897 214.417C246.692 219.969 238.354 226.684 230.377 233.833C230.379 233.834 230.381 233.837 230.383 233.84C229.332 234.785 228.286 235.735 227.246 236.694C221.648 241.851 216.231 247.176 211.069 252.732C215.835 260.841 222.786 270.055 230.892 279.618C230.891 279.619 230.889 279.618 230.889 279.62C222.784 270.052 215.831 260.841 211.063 252.736C205.744 258.455 200.701 264.436 196.02 270.745C194.002 273.448 192.066 276.188 190.264 279.027C190.265 279.028 190.266 279.03 190.267 279.031C187.764 282.999 185.588 287.155 184.103 291.688C183.393 293.858 183.155 296.184 182.699 298.438C182.814 299.268 182.924 300.097 183.039 300.927C184.709 304.856 186.111 308.926 188.101 312.683Z" fill="#134DC4"/>
</g>
</g>
<path d="M250.916 258.741C242.34 248.721 235.199 239.905 230.388 233.837C229.334 234.783 228.287 235.732 227.247 236.692C221.647 241.848 216.232 247.173 211.071 252.731C215.835 260.839 222.787 270.053 230.893 279.617C237.444 273.032 244.25 265.971 250.916 258.741Z" fill="url(#paint28_radial)"/>
<path d="M293.708 304.366C286.295 297.344 278.944 289.83 271.945 282.323C265.553 289.426 258.904 296.463 252.219 303.035C259.443 310.518 266.86 317.835 273.992 324.638C280.371 318.303 287.071 311.447 293.708 304.366Z" fill="url(#paint29_radial)"/>
<path d="M286.783 214.682C286.549 214.541 286.323 214.388 286.09 214.248C281.529 211.519 276.802 209.104 271.483 208.155C270.18 208.331 268.875 208.508 267.571 208.686C263.876 210.447 260.022 211.937 256.518 214.022C256.309 214.146 256.101 214.283 255.892 214.409C260.077 220.866 265.434 227.89 271.496 235.146C277.275 228.062 282.49 221.144 286.783 214.682Z" fill="url(#paint30_radial)"/>
<path d="M363.479 301.16C363.809 299.54 363.969 297.885 364.206 296.244C364.014 294.823 363.819 293.4 363.627 291.976C361.718 286.983 359.266 282.389 356.441 278.075C351.308 284.751 344.856 292.937 337.572 301.749C345.981 309.205 352.782 314.874 356.611 317.741C359.707 312.58 362.261 307.151 363.479 301.16Z" fill="url(#paint31_radial)"/>
<path d="M317.083 362.172C317.127 362.196 317.173 362.209 317.216 362.231C326.004 354.99 334.135 347.126 341.474 338.522C334.223 335.963 326.127 331.114 317.669 324.826C311.062 332.132 304.198 339.349 297.309 346.039C307.248 354.788 314.647 360.766 317.03 362.141C317.049 362.152 317.066 362.162 317.083 362.172Z" fill="url(#paint32_radial)"/>
<path d="M208.605 301.184C201.239 292.571 194.938 284.856 190.271 279.022C187.766 282.993 185.59 287.15 184.105 291.684C183.393 293.857 183.155 296.181 182.701 298.436C182.814 299.265 182.926 300.095 183.041 300.925C184.71 304.854 186.112 308.923 188.103 312.682C188.871 314.133 189.681 315.554 190.515 316.958C193.552 314.742 200.125 309.059 208.605 301.184Z" fill="url(#paint33_radial)"/>
<path d="M335.16 253.503L333.847 252.201C327.029 245.457 319.956 239.021 312.561 232.981C307.397 239.771 300.466 248.666 292.454 258.415C299.817 266.108 307.427 273.663 314.774 280.701C322.715 271.212 329.805 261.917 335.16 253.503Z" fill="url(#paint34_radial)"/>
<path d="M236.074 359.181C238.006 358.016 243.504 353.404 251.06 346.519C243.418 339.257 235.847 331.483 228.669 323.743C220.305 330.071 212.324 334.804 205.21 337.045C206.231 338.239 207.261 339.426 208.303 340.605C214.759 347.902 221.598 354.775 228.98 361.036C231.4 361.028 233.847 360.523 236.074 359.181Z" fill="url(#paint35_radial)"/>
<path d="M270.365 383.668C272.409 383.975 274.492 384.028 276.556 384.199C277.861 384.022 279.165 383.845 280.469 383.667C281.913 383.179 283.362 382.706 284.801 382.202C287.726 381.173 290.536 379.936 293.269 378.568C287.191 375.616 280.671 371.386 273.934 366.264C266.709 371.606 259.798 375.683 253.509 377.956C258.779 380.671 264.326 382.756 270.365 383.668Z" fill="url(#paint36_radial)"/>
<path d="M292.453 258.416C285.035 250.665 277.874 242.781 271.495 235.147C265.138 242.946 258.111 250.94 250.915 258.743C257.266 266.163 264.401 274.237 271.945 282.325C279.228 274.232 286.17 266.064 292.453 258.416Z" fill="url(#paint37_radial)"/>
<path d="M252.22 303.037C244.717 295.271 237.43 287.332 230.893 279.618C222.823 287.728 215.147 295.108 208.604 301.186C214.679 308.288 221.478 315.992 228.67 323.742C236.323 317.953 244.295 310.828 252.22 303.037Z" fill="url(#paint38_radial)"/>
<path d="M337.573 301.748C330.783 295.725 322.945 288.537 314.774 280.701C308.168 288.592 300.979 296.611 293.708 304.367C301.754 311.99 309.864 319.019 317.669 324.825C324.7 317.046 331.431 309.18 337.573 301.748Z" fill="url(#paint39_radial)"/>
<path d="M297.309 346.038C290.472 340.022 282.436 332.693 273.992 324.638C265.461 333.109 257.511 340.645 251.06 346.518C258.726 353.808 266.459 360.578 273.933 366.264C281.508 360.667 289.422 353.7 297.309 346.038Z" fill="url(#paint40_radial)"/>
<path d="M93.7576 192.08L95.8763 194.023C100.729 183.956 99.0799 170.383 91.5615 158.514C87.1058 151.482 80.8357 145.182 76.101 138.245C71.567 131.604 68.4996 123.702 70.8248 117.838C67.2154 118.878 64.2618 120.848 62.7532 123.895C59.8136 129.825 62.9667 138.142 67.6977 145.079C72.4338 152.016 78.707 158.314 83.1618 165.348C90.6802 177.217 92.3282 190.789 87.4775 200.855L93.7576 192.08Z" fill="url(#paint41_radial)"/>
<path d="M70.8252 117.837C73.9956 116.92 77.6697 116.72 81.3384 117.165C89.1838 118.117 97.1104 121.478 104.881 124.661C112.652 127.848 120.697 130.965 128.434 131.359C137.766 131.837 145.472 127.995 150.18 121.885C146.33 123.781 141.821 124.781 136.834 124.527C129.096 124.129 121.053 121.013 113.283 117.83C105.512 114.645 97.5858 111.283 89.7389 110.33C83.4984 109.575 77.231 110.667 73.4976 114.02L64.6771 121.272L70.8252 117.837Z" fill="url(#paint42_linear)"/>
<path d="M159.14 114.276C161.56 110.865 163.087 106.818 163.479 102.441C164.616 89.6624 157.38 75.0337 146.581 63.2844L145.675 71.0591L138.178 70.1167C148.98 81.8691 156.213 96.4961 155.075 109.274C154.658 113.958 152.942 118.273 150.22 121.828C148.184 124.006 145.716 126.019 143.08 127.961C143.08 127.961 154.699 121.854 159.14 114.276Z" fill="url(#paint43_radial)"/>
<defs>
<linearGradient id="paint0_linear" x1="263.833" y1="235.22" x2="231.71" y2="117.186" gradientUnits="userSpaceOnUse">
<stop stop-color="#FFDB54"/>
<stop offset="0.634078" stop-color="#FFA43E"/>
<stop offset="1" stop-color="#FFC153"/>
</linearGradient>
<linearGradient id="paint1_linear" x1="275.93" y1="87.6794" x2="273.041" y2="221.558" gradientUnits="userSpaceOnUse">
<stop stop-color="#12347E"/>
<stop offset="0.421788" stop-color="#2959A2"/>
<stop offset="1" stop-color="#00204D"/>
</linearGradient>
<radialGradient id="paint2_radial" cx="0" cy="0" r="1" gradientUnits="userSpaceOnUse" gradientTransform="translate(230.51 269.136) rotate(-122.638) scale(41.0311)">
<stop stop-color="#434343"/>
<stop offset="0.634078" stop-color="#222222"/>
<stop offset="1" stop-color="#2F2F2F"/>
</radialGradient>
<radialGradient id="paint3_radial" cx="0" cy="0" r="1" gradientUnits="userSpaceOnUse" gradientTransform="translate(273.606 316.099) rotate(-116.786) scale(34.0993)">
<stop stop-color="#434343"/>
<stop offset="0.634078" stop-color="#222222"/>
<stop offset="1" stop-color="#2F2F2F"/>
</radialGradient>
<radialGradient id="paint4_radial" cx="0" cy="0" r="1" gradientUnits="userSpaceOnUse" gradientTransform="translate(272.166 228.941) rotate(-121.125) scale(32.2216)">
<stop stop-color="#434343"/>
<stop offset="0.634078" stop-color="#222222"/>
<stop offset="1" stop-color="#2F2F2F"/>
</radialGradient>
<radialGradient id="paint5_radial" cx="0" cy="0" r="1" gradientUnits="userSpaceOnUse" gradientTransform="translate(357.019 309.298) rotate(-125.343) scale(44.8107)">
<stop stop-color="#434343"/>
<stop offset="0.634078" stop-color="#222222"/>
<stop offset="1" stop-color="#2F2F2F"/>
</radialGradient>
<radialGradient id="paint6_radial" cx="0" cy="0" r="1" gradientUnits="userSpaceOnUse" gradientTransform="translate(316.682 359.208) rotate(-125.557) scale(33.8149)">
<stop stop-color="#434343"/>
<stop offset="0.634078" stop-color="#222222"/>
<stop offset="1" stop-color="#2F2F2F"/>
</radialGradient>
<radialGradient id="paint7_radial" cx="0" cy="0" r="1" gradientUnits="userSpaceOnUse" gradientTransform="translate(197.984 307.421) rotate(-113.187) scale(29.3035)">
<stop stop-color="#434343"/>
<stop offset="0.634078" stop-color="#222222"/>
<stop offset="1" stop-color="#2F2F2F"/>
</radialGradient>
<radialGradient id="paint8_radial" cx="0" cy="0" r="1" gradientUnits="userSpaceOnUse" gradientTransform="translate(316.685 274.034) rotate(-122.667) scale(41.7739)">
<stop stop-color="#434343"/>
<stop offset="0.634078" stop-color="#222222"/>
<stop offset="1" stop-color="#2F2F2F"/>
</radialGradient>
<radialGradient id="paint9_radial" cx="0" cy="0" r="1" gradientUnits="userSpaceOnUse" gradientTransform="translate(233.981 351.492) rotate(-117.139) scale(31.002)">
<stop stop-color="#434343"/>
<stop offset="0.634078" stop-color="#222222"/>
<stop offset="1" stop-color="#2F2F2F"/>
</radialGradient>
<radialGradient id="paint10_radial" cx="0" cy="0" r="1" gradientUnits="userSpaceOnUse" gradientTransform="translate(277.317 384.17) rotate(-144.439) scale(27.6199)">
<stop stop-color="#434343"/>
<stop offset="0.634078" stop-color="#222222"/>
<stop offset="1" stop-color="#2F2F2F"/>
</radialGradient>
<radialGradient id="paint11_radial" cx="0" cy="0" r="1" gradientUnits="userSpaceOnUse" gradientTransform="translate(255.397 256.089) rotate(-119.593) scale(39.8604)">
<stop stop-color="#CFD0D5"/>
<stop offset="1" stop-color="#868689"/>
</radialGradient>
<radialGradient id="paint12_radial" cx="0" cy="0" r="1" gradientUnits="userSpaceOnUse" gradientTransform="translate(345.993 333.877) rotate(-118.008) scale(37.0762)">
<stop stop-color="#CFD0D5"/>
<stop offset="1" stop-color="#868689"/>
</radialGradient>
<radialGradient id="paint13_radial" cx="0" cy="0" r="1" gradientUnits="userSpaceOnUse" gradientTransform="translate(296.753 305.466) rotate(-110.01) scale(43.7544)">
<stop stop-color="#CFD0D5"/>
<stop offset="1" stop-color="#868689"/>
</radialGradient>
<radialGradient id="paint14_radial" cx="0" cy="0" r="1" gradientUnits="userSpaceOnUse" gradientTransform="translate(214.062 294.116) rotate(-118.177) scale(39.9538)">
<stop stop-color="#CFD0D5"/>
<stop offset="1" stop-color="#868689"/>
</radialGradient>
<radialGradient id="paint15_radial" cx="0" cy="0" r="1" gradientUnits="userSpaceOnUse" gradientTransform="translate(251.415 324.809) rotate(172.267) scale(21.9358)">
<stop stop-color="#CFD0D5"/>
<stop offset="1" stop-color="#868689"/>
</radialGradient>
<radialGradient id="paint16_radial" cx="0" cy="0" r="1" gradientUnits="userSpaceOnUse" gradientTransform="translate(298.731 372.711) rotate(-122.064) scale(27.9583)">
<stop stop-color="#CFD0D5"/>
<stop offset="1" stop-color="#868689"/>
</radialGradient>
<radialGradient id="paint17_radial" cx="0" cy="0" r="1" gradientUnits="userSpaceOnUse" gradientTransform="translate(299.67 223.834) rotate(172.267) scale(11.1759)">
<stop stop-color="#CFD0D5"/>
<stop offset="1" stop-color="#868689"/>
</radialGradient>
<radialGradient id="paint18_radial" cx="0" cy="0" r="1" gradientUnits="userSpaceOnUse" gradientTransform="translate(209.422 330.739) rotate(-114.034) scale(24.4648)">
<stop stop-color="#CFD0D5"/>
<stop offset="1" stop-color="#868689"/>
</radialGradient>
<radialGradient id="paint19_radial" cx="0" cy="0" r="1" gradientUnits="userSpaceOnUse" gradientTransform="translate(252.692 293.789) rotate(-116.265) scale(41.1202)">
<stop stop-color="#CFD0D5"/>
<stop offset="1" stop-color="#868689"/>
</radialGradient>
<radialGradient id="paint20_radial" cx="0" cy="0" r="1" gradientUnits="userSpaceOnUse" gradientTransform="translate(291.348 249.194) rotate(-117.214) scale(34.5412)">
<stop stop-color="#CFD0D5"/>
<stop offset="1" stop-color="#868689"/>
</radialGradient>
<radialGradient id="paint21_radial" cx="0" cy="0" r="1" gradientUnits="userSpaceOnUse" gradientTransform="translate(272.791 274.294) rotate(-122.275) scale(39.9986)">
<stop stop-color="#434343"/>
<stop offset="0.634078" stop-color="#222222"/>
<stop offset="1" stop-color="#2F2F2F"/>
</radialGradient>
<radialGradient id="paint22_radial" cx="0" cy="0" r="1" gradientUnits="userSpaceOnUse" gradientTransform="translate(230.552 313.898) rotate(-121.767) scale(26.9231)">
<stop stop-color="#434343"/>
<stop offset="0.634078" stop-color="#222222"/>
<stop offset="1" stop-color="#2F2F2F"/>
</radialGradient>
<radialGradient id="paint23_radial" cx="0" cy="0" r="1" gradientUnits="userSpaceOnUse" gradientTransform="translate(339.042 292.57) rotate(-110.788) scale(31.381)">
<stop stop-color="#CFD0D5"/>
<stop offset="1" stop-color="#868689"/>
</radialGradient>
<radialGradient id="paint24_radial" cx="0" cy="0" r="1" gradientUnits="userSpaceOnUse" gradientTransform="translate(254.654 372.436) rotate(-115.776) scale(30.7531)">
<stop stop-color="#CFD0D5"/>
<stop offset="1" stop-color="#868689"/>
</radialGradient>
<radialGradient id="paint25_radial" cx="0" cy="0" r="1" gradientUnits="userSpaceOnUse" gradientTransform="translate(296.794 340.335) rotate(-107.929) scale(31.2856)">
<stop stop-color="#CFD0D5"/>
<stop offset="1" stop-color="#868689"/>
</radialGradient>
<radialGradient id="paint26_radial" cx="0" cy="0" r="1" gradientUnits="userSpaceOnUse" gradientTransform="translate(318.15 316.923) rotate(-127.352) scale(37.6495)">
<stop stop-color="#434343"/>
<stop offset="0.634078" stop-color="#222222"/>
<stop offset="1" stop-color="#2F2F2F"/>
</radialGradient>
<radialGradient id="paint27_radial" cx="0" cy="0" r="1" gradientUnits="userSpaceOnUse" gradientTransform="translate(275.055 361.339) rotate(-127.609) scale(36.0217)">
<stop stop-color="#434343"/>
<stop offset="0.634078" stop-color="#222222"/>
<stop offset="1" stop-color="#2F2F2F"/>
</radialGradient>
<radialGradient id="paint28_radial" cx="0" cy="0" r="1" gradientUnits="userSpaceOnUse" gradientTransform="translate(230.511 269.135) rotate(-122.638) scale(41.0311)">
<stop stop-color="#FFDB54"/>
<stop offset="0.634078" stop-color="#FFA43E"/>
<stop offset="1" stop-color="#FFC153"/>
</radialGradient>
<radialGradient id="paint29_radial" cx="0" cy="0" r="1" gradientUnits="userSpaceOnUse" gradientTransform="translate(273.606 316.097) rotate(-116.786) scale(34.0993)">
<stop stop-color="#FFDB54"/>
<stop offset="0.634078" stop-color="#FFA43E"/>
<stop offset="1" stop-color="#FFC153"/>
</radialGradient>
<radialGradient id="paint30_radial" cx="0" cy="0" r="1" gradientUnits="userSpaceOnUse" gradientTransform="translate(272.166 228.939) rotate(-121.125) scale(32.2216)">
<stop stop-color="#FFDB54"/>
<stop offset="0.634078" stop-color="#FFA43E"/>
<stop offset="1" stop-color="#FFC153"/>
</radialGradient>
<radialGradient id="paint31_radial" cx="0" cy="0" r="1" gradientUnits="userSpaceOnUse" gradientTransform="translate(357.018 309.299) rotate(-125.343) scale(44.8107)">
<stop stop-color="#FFDB54"/>
<stop offset="0.634078" stop-color="#FFA43E"/>
<stop offset="1" stop-color="#FFC153"/>
</radialGradient>
<radialGradient id="paint32_radial" cx="0" cy="0" r="1" gradientUnits="userSpaceOnUse" gradientTransform="translate(316.682 359.208) rotate(-125.557) scale(33.8149)">
<stop stop-color="#FFDB54"/>
<stop offset="0.634078" stop-color="#FFA43E"/>
<stop offset="1" stop-color="#FFC153"/>
</radialGradient>
<radialGradient id="paint33_radial" cx="0" cy="0" r="1" gradientUnits="userSpaceOnUse" gradientTransform="translate(197.985 307.419) rotate(-113.187) scale(29.3035)">
<stop stop-color="#FFDB54"/>
<stop offset="0.634078" stop-color="#FFA43E"/>
<stop offset="1" stop-color="#FFC153"/>
</radialGradient>
<radialGradient id="paint34_radial" cx="0" cy="0" r="1" gradientUnits="userSpaceOnUse" gradientTransform="translate(316.685 274.033) rotate(-122.667) scale(41.7739)">
<stop stop-color="#FFDB54"/>
<stop offset="0.634078" stop-color="#FFA43E"/>
<stop offset="1" stop-color="#FFC153"/>
</radialGradient>
<radialGradient id="paint35_radial" cx="0" cy="0" r="1" gradientUnits="userSpaceOnUse" gradientTransform="translate(233.98 351.492) rotate(-117.139) scale(31.002)">
<stop stop-color="#FFDB54"/>
<stop offset="0.634078" stop-color="#FFA43E"/>
<stop offset="1" stop-color="#FFC153"/>
</radialGradient>
<radialGradient id="paint36_radial" cx="0" cy="0" r="1" gradientUnits="userSpaceOnUse" gradientTransform="translate(277.317 384.169) rotate(-144.439) scale(27.6199)">
<stop stop-color="#FFDB54"/>
<stop offset="0.634078" stop-color="#FFA43E"/>
<stop offset="1" stop-color="#FFC153"/>
</radialGradient>
<radialGradient id="paint37_radial" cx="0" cy="0" r="1" gradientUnits="userSpaceOnUse" gradientTransform="translate(272.791 274.293) rotate(-122.275) scale(39.9986)">
<stop stop-color="#FFDB54"/>
<stop offset="0.634078" stop-color="#FFA43E"/>
<stop offset="1" stop-color="#FFC153"/>
</radialGradient>
<radialGradient id="paint38_radial" cx="0" cy="0" r="1" gradientUnits="userSpaceOnUse" gradientTransform="translate(230.552 313.897) rotate(-121.767) scale(26.9231)">
<stop stop-color="#FFDB54"/>
<stop offset="0.634078" stop-color="#FFA43E"/>
<stop offset="1" stop-color="#FFC153"/>
</radialGradient>
<radialGradient id="paint39_radial" cx="0" cy="0" r="1" gradientUnits="userSpaceOnUse" gradientTransform="translate(318.15 316.924) rotate(-127.352) scale(37.6495)">
<stop stop-color="#FFDB54"/>
<stop offset="0.634078" stop-color="#FFA43E"/>
<stop offset="1" stop-color="#FFC153"/>
</radialGradient>
<radialGradient id="paint40_radial" cx="0" cy="0" r="1" gradientUnits="userSpaceOnUse" gradientTransform="translate(275.055 361.338) rotate(-127.609) scale(36.0217)">
<stop stop-color="#FFDB54"/>
<stop offset="0.634078" stop-color="#FFA43E"/>
<stop offset="1" stop-color="#FFC153"/>
</radialGradient>
<radialGradient id="paint41_radial" cx="0" cy="0" r="1" gradientUnits="userSpaceOnUse" gradientTransform="translate(79.0481 159.276) rotate(-146.032) scale(36.8137 27.4295)">
<stop stop-color="#FFDB54"/>
<stop offset="0.634078" stop-color="#FFA43E"/>
<stop offset="1" stop-color="#FFC153"/>
</radialGradient>
<linearGradient id="paint42_linear" x1="136.974" y1="141.484" x2="77.8836" y2="101.67" gradientUnits="userSpaceOnUse">
<stop stop-color="#12347E"/>
<stop offset="0.421788" stop-color="#2959A2"/>
<stop offset="1" stop-color="#00204D"/>
</linearGradient>
<radialGradient id="paint43_radial" cx="0" cy="0" r="1" gradientUnits="userSpaceOnUse" gradientTransform="translate(145.89 96.3366) rotate(-146.032) scale(30.288 22.5673)">
<stop stop-color="#FFDB54"/>
<stop offset="0.634078" stop-color="#FFA43E"/>
<stop offset="1" stop-color="#FFC153"/>
</radialGradient>
</defs>
</svg>
