<svg width="338" height="273" viewBox="0 0 338 273" fill="none" xmlns="http://www.w3.org/2000/svg">
<path d="M115.104 137.796C115.104 137.796 125.07 171.583 143.835 193.238C162.596 214.891 193.647 227.193 193.647 227.193L183.45 215.306C183.45 215.306 198.662 216.235 214.53 205.077C187.169 196.188 166.395 187.983 153.121 177.358C132.623 160.952 121.411 135.418 121.411 135.418L115.104 137.796Z" fill="url(#paint0_linear)"/>
<path d="M115.384 142.699C115.384 142.699 112.159 177.777 121.592 204.832C131.023 231.886 155.327 254.792 155.327 254.792L153.441 238.112C153.441 238.112 164.039 246.464 182.908 241.96C160.769 223.587 143.46 207.353 136.09 193.509C123.749 170.334 122.123 142.819 122.123 142.819L115.384 142.699Z" fill="url(#paint1_linear)"/>
<path d="M77.371 144.269C71.8257 142.582 66.2115 140.69 60.7603 138.652C65.7539 138.992 70.8454 139.223 75.8687 139.282C81.3834 142.673 87.013 145.945 92.1554 148.314C87.3985 147.166 82.4118 145.802 77.371 144.269Z" fill="#A1A1A1"/>
<path d="M92.1558 148.314C87.0135 145.944 81.3838 142.672 75.8691 139.281C80.8937 139.342 85.8513 139.229 90.5771 138.883C95.9378 143.067 101.31 147.199 105.567 151.074C101.441 150.399 96.9125 149.464 92.1558 148.314Z" fill="#A9A9A9"/>
<path d="M60.7605 138.652C70.7464 139.331 81.1252 139.577 90.5768 138.883C87.8979 136.791 85.2207 134.685 82.6877 132.594C72.8993 133.998 62.6546 134.531 52.735 135.493C55.3512 136.577 58.0357 137.632 60.7605 138.652Z" fill="#A1A1A1"/>
<path d="M52.735 135.493C62.6546 134.531 72.8993 133.998 82.6877 132.594C80.1549 130.501 77.7668 128.421 75.6634 126.381C65.4612 128.837 55.015 130.451 45.1276 132.16C47.5743 133.295 50.1205 134.408 52.735 135.493Z" fill="#A1A1A1"/>
<path d="M105.567 151.075C113.818 152.425 120.464 152.741 124.117 151.661C122.633 148.63 121.12 145.595 119.574 142.56C115.1 144.265 107.49 145.183 98.4864 145.096C101.031 147.136 103.438 149.137 105.567 151.075Z" fill="#B0B0B0"/>
<path d="M98.4867 145.096C107.491 145.183 115.101 144.265 119.574 142.56C118.028 139.526 116.45 136.495 114.838 133.473C108.556 136.556 100.03 138.19 90.5771 138.884C93.2574 140.976 95.9407 143.055 98.4867 145.096Z" fill="#A5A5A5"/>
<path d="M90.5766 138.883C100.03 138.189 108.556 136.555 114.838 133.472C113.225 130.452 111.579 127.441 109.895 124.449C101.806 128.907 92.4747 131.188 82.6875 132.594C85.2204 134.685 87.8977 136.791 90.5766 138.883Z" fill="#999999"/>
<path d="M82.6875 132.594C92.4746 131.188 101.806 128.908 109.895 124.45C108.212 121.459 106.492 118.485 104.735 115.539C95.8226 120.624 85.8656 123.924 75.6632 126.381C77.7666 128.421 80.1547 130.501 82.6875 132.594Z" fill="#909090"/>
<path d="M124.117 151.66C126.592 150.928 129.484 148.424 132.575 144.636C131.416 141.447 130.223 138.263 128.988 135.092C125.814 138.796 122.314 141.571 119.574 142.559C121.12 145.593 122.633 148.628 124.117 151.66Z" fill="#B7B7B7"/>
<path d="M119.574 142.56C122.314 141.572 125.814 138.797 128.988 135.093C127.754 131.921 126.477 128.763 125.147 125.628C121.787 129.15 118.16 131.919 114.838 133.473C116.45 136.495 118.028 139.526 119.574 142.56Z" fill="#A1A1A1"/>
<path d="M114.838 133.472C118.16 131.918 121.787 129.149 125.147 125.627C123.817 122.49 122.437 119.375 120.994 116.29C117.448 119.629 113.8 122.327 109.895 124.449C111.579 127.44 113.226 130.452 114.838 133.472Z" fill="#909090"/>
<path d="M109.895 124.451C113.8 122.329 117.448 119.63 120.994 116.292C119.551 113.206 118.048 110.152 116.474 107.136C112.844 110.392 108.904 113.161 104.735 115.54C106.492 118.486 108.213 121.46 109.895 124.451Z" fill="#868686"/>
<path d="M132.575 144.638C134.807 141.904 137.141 138.502 139.497 134.617C138.681 131.453 137.893 128.214 137.089 124.955C134.199 128.87 131.44 132.318 128.989 135.093C130.223 138.264 131.416 141.448 132.575 144.638Z" fill="#B8B8B8"/>
<path d="M128.989 135.094C131.44 132.319 134.198 128.871 137.089 124.956C136.284 121.696 135.463 118.417 134.58 115.171C131.269 119.189 128.081 122.761 125.147 125.628C126.477 128.763 127.754 131.922 128.989 135.094Z" fill="#A0A0A0"/>
<path d="M139.497 134.617C141.853 130.731 144.232 126.361 146.548 121.692C146.484 118.581 146.286 115.316 145.978 112.005C143 116.654 139.978 121.039 137.089 124.955C137.892 128.213 138.681 131.453 139.497 134.617Z" fill="#B8B8B8"/>
<path d="M137.089 124.954C139.978 121.038 143.001 116.653 145.978 112.005C145.67 108.692 145.254 105.334 144.754 102.037C141.327 106.689 137.892 111.152 134.58 115.17C135.464 118.416 136.284 121.695 137.089 124.954Z" fill="#A3A3A3"/>
<path d="M125.147 125.627C128.081 122.76 131.269 119.188 134.58 115.17C133.698 111.926 132.754 108.714 131.705 105.591C128.005 109.666 124.41 113.332 120.994 116.29C122.437 119.375 123.817 122.49 125.147 125.627Z" fill="#8F8F8F"/>
<path d="M120.994 116.29C124.41 113.332 128.005 109.666 131.705 105.591C130.654 102.468 129.498 99.4318 128.19 96.5378C124.059 100.512 120.109 104.134 116.474 107.134C118.048 110.15 119.551 113.204 120.994 116.29Z" fill="#848484"/>
<path d="M134.58 115.171C137.892 111.153 141.327 106.689 144.754 102.038C144.256 98.7415 143.675 95.5047 143.038 92.4364C139.207 97.0308 135.404 101.516 131.705 105.591C132.755 108.714 133.698 111.927 134.58 115.171Z" fill="#939393"/>
<path d="M131.705 105.59C135.404 101.515 139.207 97.0299 143.038 92.4356C142.401 89.3674 141.708 86.4677 140.987 83.844C136.632 88.2418 132.322 92.5651 128.191 96.5375C129.498 99.4315 130.654 102.467 131.705 105.59Z" fill="#888888"/>
<path d="M146.548 121.692C151.182 112.354 155.573 101.817 159.064 91.5542C161.127 85.4896 162.876 79.5218 164.173 73.9546C158.432 82.684 151.609 92.7364 144.754 102.039C145.752 108.634 146.421 115.471 146.548 121.692Z" fill="#B8B8B8"/>
<path d="M144.754 102.038C148.182 97.3871 151.601 92.5484 154.881 87.7818C154.845 84.6008 154.705 81.5076 154.541 78.6214C150.728 83.1368 146.868 87.842 143.037 92.4364C143.675 95.5047 144.255 98.7414 144.754 102.038Z" fill="#9D9D9D"/>
<path d="M143.037 92.4362C146.868 87.8419 150.728 83.1366 154.541 78.6212C154.377 75.735 154.188 73.0556 154.052 70.7021C149.742 74.9748 145.342 79.4469 140.987 83.8447C141.708 86.4683 142.401 89.3681 143.037 92.4362Z" fill="#939393"/>
<path d="M154.881 87.781C158.162 83.0131 161.303 78.3187 164.173 73.9533C164.822 71.1697 165.358 68.4859 165.765 65.9406C162.121 69.7782 158.354 74.1051 154.541 78.6205C154.705 81.5067 154.845 84.6 154.881 87.781Z" fill="#AAAAAA"/>
<path d="M154.541 78.6218C158.354 74.1064 162.121 69.7795 165.765 65.9419C166.172 63.3965 166.449 60.9895 166.58 58.7579C162.583 62.3566 158.362 66.4299 154.052 70.7027C154.188 73.0562 154.377 75.7356 154.541 78.6218L154.541 78.6218Z" fill="#A3A3A3"/>
<path d="M45.1276 132.16C57.3295 130.051 70.3811 128.088 82.7751 124.505C80.4248 122.136 77.7918 119.308 75.2057 116.501C62.3079 121.188 48.9596 124.567 36.7879 127.991C39.3922 129.402 42.1894 130.796 45.1276 132.16Z" fill="#A1A1A1"/>
<path d="M36.788 127.992C48.9598 124.568 62.308 121.19 75.2059 116.502C72.6182 113.696 70.0759 110.911 67.9055 108.624C54.9456 114.299 41.738 118.975 29.5966 123.714C31.7684 125.15 34.1824 126.58 36.788 127.992Z" fill="#A1A1A1"/>
<path d="M82.7751 124.505C95.1689 120.924 106.904 115.722 116.474 107.134C114.711 103.756 112.86 100.428 110.909 97.1582C100.547 105.818 88.102 111.815 75.2057 116.501C77.7918 119.308 80.4248 122.136 82.7751 124.505Z" fill="#898989"/>
<path d="M75.2057 116.502C88.102 111.816 100.547 105.819 110.909 97.1598C108.956 93.8917 106.904 90.683 104.737 87.5464C93.5803 96.2775 80.8666 102.951 67.9053 108.625C70.0757 110.911 72.618 113.696 75.2057 116.502Z" fill="#8C8C8C"/>
<path d="M29.5963 123.713C24.8401 120.569 21.2398 117.4 19.3164 114.341C30.0275 106.896 42.0391 99.4258 54.2555 91.636C57.5886 96.5784 63.1459 103.605 67.9052 108.624C54.9454 114.298 41.7377 118.974 29.5963 123.713Z" fill="#A1A1A1"/>
<path d="M67.9055 108.623C63.1461 103.604 57.5889 96.5774 54.2558 91.635C66.4706 83.8465 78.8902 75.7389 90.4162 67.0259C95.1621 73.8502 99.9716 80.65 104.737 87.5446C93.5805 96.2757 80.8668 102.949 67.9055 108.623Z" fill="#929292"/>
<path d="M19.3167 114.341C30.0277 106.896 42.0394 99.4256 54.2558 91.6358C51.2838 87.2242 48.1854 81.3528 45.5092 75.0455C34.738 84.274 24.5616 93.7766 16.3508 102.669C16.5635 107.449 17.5048 111.456 19.3167 114.341Z" fill="#A1A1A1"/>
<path d="M16.3505 102.669C16.1364 97.8889 16.6508 92.3382 17.7521 86.3664C20.6096 81.1966 23.8933 75.9806 27.516 70.8486C27.1574 76.8773 28.2475 83.2645 29.9689 88.984C25.0533 93.625 20.4551 98.2233 16.3505 102.669Z" fill="#A1A1A1"/>
<path d="M29.9689 88.9851C28.2475 83.2656 27.1574 76.8785 27.5159 70.8497C31.1386 65.7177 35.0984 60.6725 39.3053 55.8424C40.5815 61.9965 42.8327 68.7392 45.5089 75.0465C40.1233 79.6607 34.8859 84.3442 29.9689 88.9851Z" fill="#B1B1B1"/>
<path d="M54.2557 91.6353C66.4705 83.8468 78.8901 75.7391 90.4161 67.0262C86.2869 61.0862 82.2047 55.1285 78.2425 49.0704C67.6474 56.8638 56.2803 65.8165 45.5091 75.045C48.1853 81.3522 51.2837 87.2237 54.2557 91.6353Z" fill="#A9A9A9"/>
<path d="M45.5094 75.0456C50.895 70.4313 56.4302 65.8865 61.942 61.5197C60.275 58.2948 58.6604 55.0181 57.0996 51.7635C51.947 56.0517 46.8068 60.6335 41.8826 65.3864C42.9397 68.6305 44.1713 71.8919 45.5094 75.0456Z" fill="#BCBCBC"/>
<path d="M41.8824 65.3861C46.8067 60.6331 51.9469 56.0513 57.0995 51.7631C55.5388 48.5071 54.0321 45.2732 52.5767 42.1335C47.9665 46.3976 43.5126 51.0111 39.3057 55.8411C39.9438 58.9182 40.8253 62.142 41.8824 65.3861Z" fill="#C3C3C3"/>
<path d="M61.9417 61.5194C67.4547 57.1543 72.9456 52.9674 78.2425 49.0706C76.2622 46.0409 74.3108 42.9871 72.3982 39.8972C67.42 43.4779 62.2534 47.4737 57.0993 51.7631C58.6601 55.0177 60.2747 58.2945 61.9417 61.5194Z" fill="#C3C3C3"/>
<path d="M57.0993 51.7626C62.2535 47.4732 67.42 43.4774 72.3982 39.8967C70.4855 36.8083 68.6116 33.6839 66.7848 30.5157C61.9536 33.9513 57.1868 37.8674 52.5765 42.133C54.0319 45.2727 55.5387 48.5066 57.0993 51.7626Z" fill="#CBCBCB"/>
<path d="M116.474 107.135C113.509 101.454 110.296 95.9107 106.77 90.5598C110.818 87.4243 115.276 83.837 119.985 80.0328C123.213 84.9846 125.738 90.907 128.19 96.5388C124.059 100.513 120.109 104.135 116.474 107.135Z" fill="#818181"/>
<path d="M128.19 96.5389C125.738 90.9071 123.213 84.9848 119.985 80.0329C124.694 76.2287 129.652 72.2074 134.698 68.2034C137.271 72.2767 139.661 78.3208 140.987 83.8455C136.631 88.2433 132.321 92.5666 128.19 96.5389Z" fill="#848484"/>
<path d="M140.987 83.8456C139.661 78.3209 137.271 72.2768 134.698 68.2035C139.744 64.1981 144.878 60.2102 149.94 56.4727C151.857 59.6702 153.854 65.2855 154.052 70.703C149.742 74.9757 145.342 79.4479 140.987 83.8456Z" fill="#8F8F8F"/>
<path d="M154.052 70.7025C153.854 65.2849 151.857 59.6697 149.94 56.4722C155.001 52.7348 159.989 49.2463 164.741 46.2428C166.361 49.0412 166.894 53.3893 166.58 58.7577C162.583 62.3564 158.362 66.4297 154.052 70.7025Z" fill="#A0A0A0"/>
<path d="M106.769 90.5588C106.104 89.5473 105.426 88.543 104.737 87.5447C108.845 84.4711 113.381 80.9797 118.181 77.2944C118.807 78.2001 119.388 79.1179 119.985 80.0318C115.276 83.836 110.818 87.4233 106.769 90.5588Z" fill="#8A8A8A"/>
<path d="M119.985 80.0321C119.388 79.1182 118.807 78.2003 118.181 77.2947C122.982 73.611 128.043 69.7347 133.202 65.8929C133.688 66.5928 134.253 67.5015 134.698 68.2026C129.653 72.2065 124.694 76.2279 119.985 80.0321Z" fill="#8D8D8D"/>
<path d="M134.698 68.2035C134.253 67.5024 133.688 66.5937 133.202 65.8937C138.361 62.0504 143.616 58.2428 148.8 54.6932C149.147 55.1905 149.646 55.9859 149.94 56.4727C144.878 60.2101 139.744 64.1981 134.698 68.2035Z" fill="#959595"/>
<path d="M149.94 56.4714C149.646 55.9847 149.148 55.1892 148.8 54.6919C153.986 51.1439 159.099 47.8552 163.978 45.0514C164.261 45.4559 164.516 45.8528 164.741 46.242C159.989 49.2456 155.001 52.734 149.94 56.4714Z" fill="#A2A2A2"/>
<path d="M104.737 87.5453C98.2081 78.0975 91.5949 68.8309 85.178 59.4293C88.8241 56.823 93.4022 54.0872 98.5318 51.3862C105.434 60.1163 112.255 68.7284 118.181 77.295C113.382 80.9802 108.845 84.4716 104.737 87.5453Z" fill="#8E8E8E"/>
<path d="M118.181 77.2952C112.255 68.7286 105.434 60.1165 98.5318 51.3864C103.663 48.6856 109.346 46.0197 115.201 43.5516C122.246 51.4475 128.603 59.2639 133.202 65.8933C128.043 69.7352 122.981 73.6115 118.181 77.2952Z" fill="#909090"/>
<path d="M85.178 59.4279C88.824 56.8216 93.4021 54.0858 98.5318 51.3849C95.0812 47.0206 91.6095 42.6265 88.2204 38.1941C83.3446 40.5005 79.0598 42.9013 75.7313 45.1885C78.8083 49.9942 81.9687 54.7285 85.178 59.4279Z" fill="#B8B8B8"/>
<path d="M75.7314 45.1894C79.0598 42.9022 83.3447 40.5014 88.2204 38.195C84.831 33.7641 81.523 29.2933 78.3966 24.7771C73.9287 26.4348 69.9706 28.3743 66.7848 30.5159C69.6612 35.5053 72.6544 40.3837 75.7314 45.1894Z" fill="#CACACA"/>
<path d="M98.5319 51.3861C103.663 48.6853 109.346 46.0194 115.201 43.5513C111.679 39.6027 107.986 35.6343 104.253 31.7828C98.5622 33.6825 93.096 35.8903 88.2205 38.1954C91.6096 42.6277 95.0813 47.0219 98.5319 51.3861Z" fill="#B7B7B7"/>
<path d="M88.2201 38.1948C93.0957 35.8898 98.5618 33.682 104.253 31.7822C100.521 27.9324 96.7518 24.1996 93.0771 20.7223C87.8469 21.7408 82.8659 23.1179 78.3964 24.7769C81.5227 29.2931 84.8308 33.7638 88.2201 38.1948Z" fill="#C7C7C7"/>
<path d="M133.202 65.8924C128.603 59.263 122.246 51.4466 115.201 43.5507C121.057 41.0813 127.086 38.8098 132.909 36.8978C139.864 43.4712 145.528 50.001 148.8 54.6918C143.616 58.2414 138.361 62.049 133.202 65.8924Z" fill="#979797"/>
<path d="M148.8 54.6924C145.527 50.0016 139.864 43.4718 132.909 36.8984C138.73 34.9848 144.346 33.4324 149.377 32.401C156.126 36.8356 161.306 41.2421 163.978 45.0519C159.099 47.8557 153.986 51.1444 148.8 54.6924Z" fill="#A3A3A3"/>
<path d="M115.2 43.5508C121.057 41.0814 127.086 38.81 132.909 36.898C129.431 33.6098 125.628 30.3115 121.641 27.2248C115.862 28.2942 109.945 29.8842 104.253 31.7823C107.986 35.6338 111.679 39.6022 115.2 43.5508Z" fill="#B4B4B4"/>
<path d="M104.253 31.7827C109.945 29.8846 115.862 28.2946 121.641 27.2253C117.653 24.14 113.48 21.2677 109.257 18.8307C103.788 19.0491 98.3076 19.7058 93.0775 20.7228C96.7522 24.2001 100.522 27.9329 104.253 31.7827Z" fill="#C0C0C0"/>
<path d="M132.909 36.8982C125.953 30.3232 117.702 23.7028 109.257 18.8306C114.725 18.6135 120.182 18.835 125.365 19.5761C134.31 23.5021 142.627 27.9661 149.377 32.4008C144.346 33.4322 138.73 34.9846 132.909 36.8982Z" fill="#AFAFAF"/>
<path d="M17.7521 86.3663C18.2878 83.4597 18.9625 80.452 19.7595 77.3875C22.1348 71.8957 24.9214 66.3373 28.0153 60.9112C27.7814 64.4487 27.657 67.9396 27.4883 70.8872C23.8773 76.0061 20.6023 81.2086 17.7521 86.3663Z" fill="#A1A1A1"/>
<path d="M27.4885 70.8874C27.6571 67.9398 27.7815 64.4489 28.0155 60.9114C31.1079 55.4852 34.5061 50.1928 38.1056 45.2361C38.312 49.069 38.5993 52.8779 39.2421 55.9136C35.048 60.7335 31.1009 65.7687 27.4885 70.8874Z" fill="#B6B6B6"/>
<path d="M19.7601 77.3862C24.512 66.4043 30.9069 55.1494 38.1061 45.2345C37.8982 41.4015 37.7697 37.5457 37.444 34.4194C31.5651 44.5014 26.3049 56.4025 22.5029 68.0526C21.4769 71.1962 20.5573 74.3203 19.7601 77.3862Z" fill="#A1A1A1"/>
<path d="M39.2423 55.9129C38.5995 52.8773 38.3122 49.0683 38.1058 45.2354C41.704 40.2771 45.5036 35.6545 49.3989 31.5681C50.1842 35.3363 51.0199 39.106 52.4729 42.2296C47.8764 46.488 43.4365 51.0929 39.2423 55.9129Z" fill="#C5C5C5"/>
<path d="M52.4726 42.2308C51.0196 39.1073 50.1838 35.3376 49.3985 31.5694C53.2938 27.483 57.2833 23.9327 61.2641 21.1206C63.0239 24.281 64.818 27.457 66.6396 30.6202C61.8212 34.0574 57.0693 37.9709 52.4726 42.2308Z" fill="#CECECE"/>
<path d="M38.1056 45.2358C37.8978 41.4027 37.7692 37.5469 37.4436 34.4207C40.3831 29.379 43.4767 24.7934 46.6226 20.9199C47.8769 24.0349 48.6134 27.8003 49.3987 31.5685C45.5034 35.6549 41.7038 40.2775 38.1056 45.2358Z" fill="#BEBEBE"/>
<path d="M49.3987 31.5681C48.6134 27.7999 47.8769 24.0345 46.6226 20.9195C49.767 17.0458 52.9634 13.8869 56.1038 11.6996C57.7812 14.8085 59.5047 17.9575 61.2642 21.1194C57.2834 23.9315 53.2939 27.4818 49.3987 31.5681Z" fill="#C6C6C6"/>
<path d="M66.6398 30.6196C66.6887 30.5848 66.7375 30.5499 66.7848 30.5162C64.9631 27.353 63.1673 24.1797 61.4075 21.0193C61.359 21.0513 61.3115 21.0863 61.2642 21.1199C63.024 24.2803 64.818 27.4563 66.6397 30.6195L66.6398 30.6196Z" fill="#D1D1D1"/>
<path d="M61.2645 21.1192C61.3118 21.0856 61.3592 21.0506 61.4078 21.0186C59.6466 17.858 57.923 14.7105 56.244 11.6028C56.1969 11.6349 56.1512 11.6673 56.1041 11.6994C57.7815 14.8084 59.505 17.9574 61.2646 21.1193L61.2645 21.1192Z" fill="#CACACA"/>
<path d="M66.785 30.5157C64.9633 27.3525 63.1674 24.1792 61.4077 21.0187C64.3728 19.0093 68.0257 17.3947 72.1578 16.177C74.2711 19.0325 76.4105 21.9114 78.3968 24.7768C73.9288 26.4346 69.9707 28.3741 66.785 30.5157Z" fill="#D1D1D1"/>
<path d="M78.3966 24.7771C76.4103 21.9116 74.2708 19.0328 72.1576 16.1772C76.2895 14.9609 80.898 14.1397 85.7759 13.717C88.2513 16.0922 90.7276 18.5109 93.0773 20.7225C87.8471 21.741 82.8662 23.1181 78.3966 24.7771Z" fill="#CECECE"/>
<path d="M61.4077 21.0197C59.6465 17.8591 57.9229 14.7115 56.2439 11.6038C58.9898 9.72527 62.3129 8.46026 66.0674 7.71823C67.9559 10.4914 70.0443 13.3238 72.1578 16.1779C68.0256 17.3956 64.3727 19.0102 61.4077 21.0197Z" fill="#CACACA"/>
<path d="M72.1578 16.1763C70.0444 13.3222 67.9559 10.4898 66.0675 7.71667C69.8235 6.97479 74.0092 6.75713 78.4803 6.9746C80.8256 9.01212 83.3004 11.3424 85.7761 13.7162C80.8983 14.1388 76.2898 14.9601 72.1578 16.1763Z" fill="#C7C7C7"/>
<path d="M93.0776 20.7218C90.7279 18.5102 88.2516 16.0915 85.7761 13.7163C90.6525 13.2935 95.7981 13.2707 101 13.645C103.783 15.425 106.544 17.2705 109.257 18.8297C103.788 19.0481 98.3077 19.7048 93.0776 20.7218Z" fill="#C5C5C5"/>
<path d="M109.257 18.8312C106.544 17.272 103.783 15.4265 101 13.6465C106.202 14.0223 111.46 14.798 116.567 15.9744C119.544 17.107 122.487 18.3138 125.364 19.5767C120.181 18.8357 114.724 18.6142 109.257 18.8312Z" fill="#B6B6B6"/>
<path d="M85.7762 13.7178C95.5302 12.8738 106.354 13.6218 116.568 15.9744C113.592 14.8405 110.582 13.7822 107.57 12.8177C97.5094 9.59445 87.4238 7.41281 78.4804 6.97625C80.8256 9.01377 83.3005 11.3441 85.7762 13.7178Z" fill="#BEBEBE"/>
<g opacity="0.800003">
<g opacity="0.800003">
<g opacity="0.800003">
<g opacity="0.800003">
<g opacity="0.800003">
<path opacity="0.800003" d="M123.662 103.229C134.184 108.368 143.111 113.033 149.172 116.28C149.695 115.138 150.214 113.995 150.723 112.846C153.465 106.672 156.001 100.423 158.246 94.0746C151.505 89.1488 142.592 84.0935 132.615 79.161C129.6 86.8355 126.545 94.9884 123.662 103.229Z" fill="url(#paint2_radial)"/>
</g>
</g>
</g>
</g>
<g opacity="0.800003">
<g opacity="0.800003">
<g opacity="0.800003">
<g opacity="0.800003">
<path opacity="0.800003" d="M98.2146 91.4329C100.918 83.3905 103.853 75.3141 106.981 67.6024C98.4573 64.0541 89.8345 60.7076 81.6251 57.6801C78.6618 65.091 75.6215 73.0396 72.7107 81.1484C81.2264 84.2558 89.8651 87.7848 98.2146 91.4329Z" fill="url(#paint3_radial)"/>
</g>
</g>
</g>
</g>
<g opacity="0.800003">
<g opacity="0.800003">
<g opacity="0.800003">
<g opacity="0.800003">
<path opacity="0.800003" d="M109.979 151.773C110.22 151.805 110.456 151.85 110.697 151.882C115.375 152.497 120.077 152.798 124.745 151.695C125.745 151.092 126.746 150.488 127.746 149.884C130.133 147.145 132.749 144.572 134.869 141.638C134.996 141.462 135.116 141.28 135.242 141.102C129.556 137.317 122.715 133.484 115.217 129.71C113.009 137.52 111.198 144.996 109.979 151.773Z" fill="url(#paint4_radial)"/>
</g>
</g>
</g>
</g>
<g opacity="0.800003">
<g opacity="0.800003">
<g opacity="0.800003">
<g opacity="0.800003">
<path opacity="0.800003" d="M16.7475 92.4367C16.0448 97.7329 15.8779 103.058 16.9988 108.367C17.3009 109.803 17.7547 111.208 18.14 112.629C18.7992 113.718 19.4582 114.809 20.1172 115.9C23.4324 119.297 27.0503 122.176 30.8731 124.693C32.7007 117.444 35.0711 108.499 37.8971 98.7529C28.4189 95.6423 20.8777 93.4224 16.7475 92.4367Z" fill="url(#paint5_radial)"/>
</g>
</g>
</g>
</g>
<g opacity="0.800003">
<g opacity="0.800003">
<g opacity="0.800003">
<g opacity="0.800003">
<path opacity="0.800003" d="M55.082 48.4664C43.816 44.8158 35.6415 42.5508 33.2828 42.2974C33.2388 42.2938 33.1968 42.2978 33.1543 42.2944C28.5495 51.2946 24.6967 60.5685 21.7516 70.1665C28.5612 69.6947 36.8666 70.7897 45.977 72.9304C48.7818 64.6479 51.8288 56.3474 55.082 48.4664Z" fill="url(#paint6_radial)"/>
</g>
</g>
</g>
</g>
<g opacity="0.800003">
<g opacity="0.800003">
<g opacity="0.800003">
<g opacity="0.800003">
<path opacity="0.800003" d="M165.92 65.3199C166.56 61.2016 166.867 57.0478 166.478 52.8282C166.292 50.8099 165.666 48.8324 165.241 46.8338C164.857 46.1983 164.472 45.5613 164.088 44.9258C161.342 42.3136 158.764 39.4928 155.816 37.1329C154.679 36.2207 153.518 35.3487 152.342 34.4988C150.651 37.3742 147.3 44.3239 143.168 53.73C152.205 58.1479 160.061 62.2131 165.92 65.3199Z" fill="url(#paint7_radial)"/>
</g>
</g>
</g>
</g>
<g opacity="0.800003">
<g opacity="0.800003">
<g opacity="0.800003">
<g opacity="0.800003">
<path opacity="0.800003" d="M89.937 118.143C81.2258 114.473 72.3611 111.002 63.8942 107.857C60.7702 118.387 58.2721 128.462 56.8775 137.205L58.4054 137.803C66.3379 140.893 74.3704 143.644 82.5247 145.956C84.3377 138.603 86.8492 128.912 89.937 118.143Z" fill="url(#paint8_radial)"/>
</g>
</g>
</g>
</g>
<g opacity="0.800003">
<g opacity="0.800003">
<g opacity="0.800003">
<g opacity="0.800003">
<path opacity="0.800003" d="M100.336 16.1669C99.1714 17.7995 96.3207 23.4932 92.5925 31.7667C101.379 34.9899 110.288 38.6553 118.866 42.429C123.449 34.3239 128.282 27.6537 133.288 23.3187C132.036 22.7059 130.777 22.1011 129.512 21.5104C121.679 17.8405 113.684 14.6526 105.462 12.1554C103.493 13.0137 101.678 14.2896 100.336 16.1669Z" fill="url(#paint9_radial)"/>
</g>
</g>
</g>
</g>
<g opacity="0.800003">
<g opacity="0.800003">
<g opacity="0.800003">
<g opacity="0.800003">
<path opacity="0.800003" d="M66.9927 23.7465C70.9961 16.8469 75.1877 11.0875 79.5112 7.01885C74.2604 6.66656 69.006 6.92268 63.7646 8.30913C61.9891 8.77787 60.2749 9.47146 58.5329 10.0596C57.5328 10.6639 56.5326 11.2683 55.5324 11.8726C54.5284 12.7786 53.5151 13.6762 52.5202 14.5937C50.4997 16.4637 48.6467 18.4611 46.9028 20.5393C52.8958 20.8012 59.6988 21.9492 66.9927 23.7465Z" fill="url(#paint10_radial)"/>
</g>
</g>
</g>
</g>
<g opacity="0.800003">
<g opacity="0.800003">
<g opacity="0.800003">
<g opacity="0.800003">
<path opacity="0.800003" d="M149.181 116.28C145.203 124.919 140.777 133.33 135.235 141.099C129.554 137.318 122.709 133.483 115.22 129.711C117.64 121.115 120.553 112.128 123.659 103.225C134.183 108.375 143.108 113.032 149.181 116.28Z" fill="url(#paint11_radial)"/>
</g>
</g>
</g>
</g>
<g opacity="0.800003">
<g opacity="0.800003">
<g opacity="0.800003">
<g opacity="0.800003">
<path opacity="0.800003" d="M45.9728 72.9281C42.9926 81.7532 40.2744 90.5287 37.8963 98.7583C28.4169 95.6462 20.8837 93.4197 16.7484 92.4276C16.8441 91.6891 16.9498 90.9413 17.0697 90.1864C18.1665 83.3522 19.7535 76.6858 21.757 70.1713C28.5554 69.6937 36.8687 70.797 45.9728 72.9281Z" fill="url(#paint12_radial)"/>
</g>
</g>
</g>
</g>
<g opacity="0.800003">
<g opacity="0.800003">
<g opacity="0.800003">
<g opacity="0.800003">
<path opacity="0.800003" d="M72.7107 81.1487C69.5223 90.0313 66.4933 99.0997 63.8941 107.858C72.361 111.002 81.2257 114.473 89.937 118.144C92.3579 109.697 95.1346 100.595 98.2145 91.4332C89.865 87.7851 81.2263 84.2561 72.7107 81.1487Z" fill="url(#paint13_radial)"/>
</g>
</g>
</g>
</g>
<g opacity="0.800003">
<g opacity="0.800003">
<g opacity="0.800003">
<g opacity="0.800003">
<path opacity="0.800003" d="M165.924 65.3168C165.457 68.2655 164.845 71.1797 164.156 74.0938C162.566 80.8844 160.567 87.5358 158.249 94.0702C151.508 89.1488 142.593 84.0962 132.615 79.1592C136.332 69.7037 139.981 60.984 143.165 53.726C152.207 58.143 160.061 62.2064 165.924 65.3168Z" fill="url(#paint14_radial)"/>
</g>
</g>
</g>
</g>
<g opacity="0.800003">
<g opacity="0.800003">
<g opacity="0.800003">
<g opacity="0.800003">
<path opacity="0.800003" d="M81.6251 57.6812C89.8344 60.7087 98.4573 64.0551 106.981 67.6034C110.69 58.4611 114.672 49.8466 118.866 42.4298C110.288 38.656 101.379 34.9906 92.5925 31.7675C89.4089 38.8285 85.587 47.7711 81.6251 57.6812Z" fill="url(#paint15_radial)"/>
</g>
</g>
</g>
</g>
<g opacity="0.800003">
<g opacity="0.800003">
<g opacity="0.800003">
<g opacity="0.800003">
<path opacity="0.800003" d="M66.9925 23.7511C62.801 30.983 58.8082 39.4437 55.0817 48.4714C43.8199 44.8228 35.64 42.5528 33.2857 42.2998C33.237 42.2986 33.1899 42.2961 33.1614 42.2988C34.2115 40.2381 35.3088 38.1785 36.4309 36.135C39.4929 30.6258 42.8742 25.3401 46.9036 20.5352C52.8987 20.8047 59.7017 21.9527 66.9925 23.7511Z" fill="url(#paint16_radial)"/>
</g>
</g>
</g>
</g>
<g opacity="0.800003">
<g opacity="0.800003">
<g opacity="0.800003">
<g opacity="0.800003">
<path opacity="0.800003" d="M109.98 151.767C100.642 150.507 91.5082 148.504 82.5261 145.959L109.98 151.767Z" fill="url(#paint17_radial)"/>
</g>
</g>
</g>
</g>
<g opacity="0.800003">
<g opacity="0.800003">
<g opacity="0.800003">
<g opacity="0.800003">
<path opacity="0.800003" d="M152.346 34.4985C150.652 37.3676 147.303 44.3235 143.165 53.7245C135.71 50.0864 127.456 46.2034 118.863 42.4293C123.455 34.3209 128.281 27.6512 133.295 23.3187C139.926 26.5697 146.361 30.1594 152.346 34.4985Z" fill="url(#paint18_radial)"/>
</g>
</g>
</g>
</g>
<g opacity="0.800003">
<g opacity="0.800003">
<g opacity="0.800003">
<g opacity="0.800003">
<path opacity="0.800003" d="M98.2145 91.4331C107.213 95.3622 115.873 99.424 123.662 103.23C126.545 94.9887 129.6 86.8358 132.615 79.1612C124.569 75.1823 115.832 71.2835 106.981 67.6026C103.853 75.3144 100.918 83.3907 98.2145 91.4331Z" fill="url(#paint19_radial)"/>
</g>
</g>
</g>
</g>
<g opacity="0.800003">
<g opacity="0.800003">
<g opacity="0.800003">
<g opacity="0.800003">
<path opacity="0.800003" d="M115.217 129.711C107.328 125.741 98.7148 121.842 89.937 118.144C86.8492 128.912 84.3377 138.603 82.5247 145.956C91.5121 148.506 100.65 150.509 109.979 151.773C111.198 144.996 113.009 137.52 115.217 129.711Z" fill="url(#paint20_radial)"/>
</g>
</g>
</g>
</g>
<g opacity="0.800003">
<g opacity="0.800003">
<g opacity="0.800003">
<g opacity="0.800003">
<path opacity="0.800003" d="M89.9371 118.143C98.7149 121.841 107.329 125.74 115.217 129.71C117.646 121.116 120.552 112.123 123.662 103.229C115.873 99.4233 107.213 95.3615 98.2146 91.4324C95.1348 100.594 92.3581 109.696 89.9371 118.143Z" fill="url(#paint21_radial)"/>
</g>
</g>
</g>
</g>
<g opacity="0.800003">
<g opacity="0.800003">
<g opacity="0.800003">
<g opacity="0.800003">
<path opacity="0.800003" d="M132.615 79.1609C136.33 69.7082 139.981 60.9887 143.168 53.7297C135.714 50.0858 127.458 46.207 118.866 42.4286C114.672 49.8454 110.69 58.4599 106.981 67.6023C115.832 71.2832 124.569 75.182 132.615 79.1609Z" fill="url(#paint22_radial)"/>
</g>
</g>
</g>
</g>
<g opacity="0.800003">
<g opacity="0.800003">
<g opacity="0.800003">
<g opacity="0.800003">
<path opacity="0.800003" d="M63.8918 107.852C60.7681 118.392 58.2738 128.46 56.8721 137.201C47.8589 133.682 38.9094 129.984 30.8755 124.695C32.6965 117.439 35.0662 108.501 37.8963 98.7576C45.5538 101.267 54.4771 104.359 63.8918 107.852Z" fill="url(#paint23_radial)"/>
</g>
</g>
</g>
</g>
<g opacity="0.800003">
<g opacity="0.800003">
<g opacity="0.800003">
<g opacity="0.800003">
<path opacity="0.800003" d="M105.46 12.159C103.497 13.0179 101.676 14.2902 100.342 16.1655C99.1755 17.8023 96.3202 23.4969 92.5862 31.7698C83.776 28.5321 75.085 25.7495 66.9921 23.7517C70.9957 16.8507 75.1918 11.0904 79.5122 7.0228C82.8232 7.2397 86.1414 7.70183 89.457 8.28814C94.8949 9.25164 100.229 10.5587 105.46 12.159Z" fill="url(#paint24_radial)"/>
</g>
</g>
</g>
</g>
<g opacity="0.800003">
<g opacity="0.800003">
<g opacity="0.800003">
<g opacity="0.800003">
<path opacity="0.800003" d="M72.7106 81.1496C75.6214 73.0408 78.6617 65.0922 81.625 57.6813C71.9053 54.097 62.7741 50.9584 55.0819 48.4677C51.8286 56.3487 48.7817 64.6492 45.9768 72.9317C54.3816 74.9093 63.4673 77.7759 72.7106 81.1496Z" fill="url(#paint25_radial)"/>
</g>
</g>
</g>
</g>
<g opacity="0.800003">
<g opacity="0.800003">
<g opacity="0.800003">
<g opacity="0.800003">
<path opacity="0.800003" d="M45.977 72.9319C42.9903 81.7489 40.2802 90.5312 37.8972 98.7529C45.5543 101.265 54.4716 104.358 63.8943 107.859C66.4934 99.1008 69.5225 90.0324 72.7108 81.1499C63.4675 77.7762 54.3818 74.9095 45.977 72.9319Z" fill="url(#paint26_radial)"/>
</g>
</g>
</g>
</g>
<g opacity="0.800003">
<g opacity="0.800003">
<g opacity="0.800003">
<g opacity="0.800003">
<path opacity="0.800003" d="M92.5928 31.7672C83.7763 28.5332 75.0891 25.7437 66.9931 23.747C62.7973 30.9784 58.8082 39.4454 55.0823 48.4673C62.7745 50.958 71.9058 54.0966 81.6254 57.6809C85.5873 47.7709 89.4092 38.8282 92.5928 31.7672Z" fill="url(#paint27_radial)"/>
</g>
</g>
</g>
</g>
</g>
<g opacity="0.800003">
<g opacity="0.800003">
<path opacity="0.800003" d="M92.5922 31.7665C92.5909 31.7649 92.5895 31.7647 92.588 31.7646C93.5777 29.5725 94.5025 27.5699 95.354 25.7663C94.504 27.5701 93.5792 29.5727 92.5922 31.7665ZM155.818 37.133C154.682 36.221 153.52 35.3504 152.346 34.5006C152.347 34.5008 152.348 34.4994 152.348 34.4994C146.361 30.16 139.927 26.5705 133.295 23.3194C129.142 26.9086 125.12 32.1187 121.249 38.4055C125.115 32.1196 129.141 26.9084 133.288 23.3185C132.036 22.7057 130.777 22.1009 129.512 21.5088C121.68 17.8405 113.684 14.6524 105.462 12.1553C105.46 12.1566 105.459 12.1579 105.457 12.1577C100.228 10.5576 94.8948 9.25068 89.4584 8.28735C86.1427 7.70104 82.8231 7.23872 79.5123 7.02037C75.1948 11.0883 70.9987 16.8486 66.9953 23.7482C66.9938 23.748 66.994 23.7465 66.994 23.7465C66.9924 23.7478 66.9922 23.7493 66.9906 23.7506C62.0807 22.5385 57.3978 21.6312 53.0277 21.08C57.3981 21.6283 62.081 22.5356 66.994 23.7465C70.9974 16.847 75.1891 11.0861 79.5111 7.01727C74.2604 6.66499 69.0074 6.92129 63.7644 8.30902C61.9903 8.77793 60.2747 9.47138 58.5327 10.0595C57.534 10.664 56.5338 11.2683 55.5337 11.8726C54.5283 12.7785 53.5149 13.6761 52.52 14.5936C50.5026 16.4624 48.6513 18.4571 46.9076 20.5339L46.9032 20.5334C42.8752 25.3399 39.4924 30.6254 36.4319 36.1348C35.3085 38.1766 34.2113 40.2348 33.1613 42.2955L33.154 42.2946C28.5492 51.2949 24.6964 60.5687 21.7527 70.167C27.3559 69.7778 33.9812 70.4638 41.2242 71.9071C33.9824 70.4669 27.3529 69.7775 21.7583 70.1706C19.7533 76.6849 18.1663 83.3513 17.0695 90.1855C16.9511 90.9406 16.8441 91.6867 16.7482 92.4267C18.7907 92.9162 21.6675 93.711 25.1919 94.7599C21.6657 93.7137 18.7871 92.9217 16.7472 92.4355C16.0459 97.7318 15.8778 103.056 16.9987 108.364C17.302 109.802 17.7559 111.207 18.1412 112.628C18.7989 113.717 19.4579 114.808 20.1183 115.899C23.4337 119.294 27.0501 122.174 30.8742 124.692C31.1846 123.455 31.519 122.152 31.8612 120.82C31.5188 122.153 31.1874 123.457 30.8768 124.695C38.9107 129.984 47.8602 133.682 56.872 137.201C58.2751 128.46 60.7676 118.395 63.8912 107.856C63.8926 107.856 63.8941 107.856 63.8941 107.856C60.7699 118.388 58.2719 128.462 56.8773 137.206L58.4052 137.803C66.3376 140.893 74.3717 143.643 82.5245 145.956C82.536 145.959 82.549 145.962 82.5603 145.966L82.5256 145.959C85.1019 146.688 87.6966 147.36 90.2983 147.997C96.7741 149.579 103.327 150.87 109.98 151.773C110.221 151.805 110.457 151.85 110.698 151.883C115.376 152.498 120.077 152.798 124.745 151.695C125.745 151.092 126.745 150.488 127.746 149.884C130.135 147.145 132.749 144.572 134.869 141.638C134.997 141.462 135.116 141.279 135.242 141.102C135.241 141.1 135.238 141.1 135.236 141.098C140.777 133.329 145.203 124.919 149.18 116.281C149.179 116.281 149.176 116.279 149.174 116.278C149.697 115.137 150.214 113.994 150.723 112.847C153.465 106.671 156 100.422 158.247 94.075C151.504 89.1491 142.592 84.0937 132.616 79.1613C132.616 79.1599 132.618 79.16 132.618 79.1586C142.594 84.0955 151.507 89.1479 158.25 94.0695C160.567 87.5349 162.566 80.8835 164.155 74.0929C164.846 71.179 165.457 68.2646 165.924 65.3159C165.923 65.3157 165.921 65.3141 165.92 65.3139C166.56 61.1986 166.867 57.0447 166.479 52.8283C166.292 50.8098 165.666 48.8309 165.242 46.8338C164.856 46.1982 164.474 45.5614 164.088 44.9257C161.341 42.3135 158.764 39.4927 155.818 37.133Z" fill="#134DC4"/>
</g>
</g>
<path d="M123.664 103.231C134.184 108.37 143.111 113.035 149.171 116.282C149.695 115.14 150.214 113.997 150.723 112.848C153.467 106.673 156.001 100.425 158.246 94.0764C151.505 89.1506 142.592 84.0953 132.615 79.1627C129.6 86.8373 126.545 94.9902 123.664 103.231Z" fill="url(#paint28_radial)"/>
<path d="M72.7116 81.1498C81.2273 84.2572 89.866 87.7861 98.2154 91.4343C100.918 83.3933 103.854 75.3155 106.982 67.6037C98.4582 64.0554 89.8353 60.709 81.626 57.6815C78.6626 65.0924 75.6223 73.041 72.7116 81.1498Z" fill="url(#paint29_radial)"/>
<path d="M109.98 151.774C110.22 151.806 110.458 151.852 110.697 151.884C115.375 152.499 120.078 152.8 124.746 151.696C125.746 151.094 126.746 150.489 127.746 149.885C130.135 147.147 132.75 144.574 134.87 141.64C134.997 141.465 135.117 141.28 135.243 141.103C129.556 137.319 122.716 133.485 115.218 129.712C113.008 137.521 111.199 144.996 109.98 151.774Z" fill="url(#paint30_radial)"/>
<path d="M16.9995 108.366C17.3015 109.802 17.7553 111.207 18.1406 112.628C18.7983 113.717 19.4588 114.808 20.1176 115.9C23.433 119.295 27.0511 122.173 30.8737 124.692C32.7013 117.443 35.0717 108.498 37.8979 98.7501C28.4181 95.6408 20.8783 93.421 16.7481 92.4354C16.0454 97.7315 15.8787 103.056 16.9995 108.366Z" fill="url(#paint31_radial)"/>
<path d="M33.2831 42.2979C33.239 42.2942 33.1969 42.2997 33.1544 42.2963C28.5483 51.2949 24.697 60.569 21.7518 70.167C28.5615 69.6951 36.8668 70.7902 45.9757 72.9307C48.7821 64.6484 51.829 56.3479 55.0821 48.4683C43.9003 44.8453 35.7638 42.5847 33.3371 42.3041C33.3181 42.3019 33.3006 42.2999 33.2831 42.2979Z" fill="url(#paint32_radial)"/>
<path d="M143.168 53.7321C152.206 58.1516 160.06 62.215 165.92 65.3219C166.56 61.2037 166.867 57.0498 166.478 52.8318C166.292 50.8105 165.666 48.833 165.241 46.8359C164.857 46.2004 164.473 45.5634 164.087 44.9277C161.342 42.3157 158.764 39.4949 155.817 37.135C154.679 36.2228 153.518 35.3508 152.344 34.501C150.651 37.3777 147.3 44.326 143.168 53.7321Z" fill="url(#paint33_radial)"/>
<path d="M56.8764 137.206L58.4058 137.804C66.3383 140.894 74.3709 143.644 82.5251 145.957C84.3381 138.604 86.8481 128.912 89.9374 118.144C81.2262 114.474 72.3616 111.002 63.8945 107.858C60.7704 118.39 58.2725 128.463 56.8764 137.206Z" fill="url(#paint34_radial)"/>
<path d="M100.337 16.168C99.1738 17.7979 96.3212 23.4943 92.593 31.7678C101.38 34.9895 110.289 38.6534 118.867 42.4287C123.449 34.3236 128.283 27.6533 133.289 23.3184C132.035 22.7053 130.778 22.1022 129.513 21.5086C121.68 17.8402 113.685 14.6522 105.463 12.1551C103.494 13.0148 101.679 14.2892 100.337 16.168Z" fill="url(#paint35_radial)"/>
<path d="M63.765 8.31041C61.9907 8.78078 60.2753 9.47274 58.5333 10.0609C57.5331 10.6652 56.5329 11.2695 55.5328 11.8739C54.5286 12.7814 53.5155 13.6775 52.5206 14.595C50.5001 16.4649 48.6469 18.4639 46.903 20.5421C52.896 20.8039 59.6992 21.9504 66.9946 23.7479C70.9965 16.8482 75.1895 11.089 79.5116 7.02013C74.261 6.66638 69.0064 6.92397 63.765 8.31041Z" fill="url(#paint36_radial)"/>
<path d="M89.9376 118.143C98.7152 121.843 107.329 125.74 115.218 129.71C117.647 121.115 120.553 112.124 123.664 103.229C115.874 99.4236 107.213 95.3618 98.2151 91.4328C95.1352 100.595 92.36 109.697 89.9376 118.143Z" fill="url(#paint37_radial)"/>
<path d="M106.981 67.6028C115.832 71.2837 124.569 75.1825 132.615 79.1614C136.33 69.7087 139.981 60.9892 143.168 53.7301C135.714 50.0863 127.458 46.2075 118.866 42.4291C114.673 49.8445 110.69 58.4604 106.981 67.6028Z" fill="url(#paint38_radial)"/>
<path d="M37.8977 98.751C45.5532 101.264 54.4736 104.356 63.8947 107.859C66.4938 99.1004 69.5229 90.0321 72.7112 81.1495C63.4679 77.7758 54.3822 74.9091 45.9759 72.9314C42.9907 81.7485 40.2806 90.5309 37.8977 98.751Z" fill="url(#paint39_radial)"/>
<path d="M55.0824 48.4693C62.7746 50.96 71.906 54.0971 81.6257 57.6814C85.589 47.7715 89.408 38.8285 92.5929 31.7691C83.7765 28.5337 75.0893 25.7442 66.9948 23.7477C62.7975 30.9789 58.8069 39.4457 55.0824 48.4693Z" fill="url(#paint40_radial)"/>
<path d="M275.21 102.121L272.798 101.285C272.394 111.197 278.525 121.674 288.835 128.693C294.945 132.851 302.275 135.772 308.579 139.754C314.615 143.566 319.9 148.922 320.074 154.519C322.648 152.399 324.359 149.753 324.514 146.738C324.818 140.87 319.316 135.206 313.015 131.223C306.71 127.241 299.379 124.322 293.269 120.163C282.958 113.145 276.829 102.668 277.231 92.7565L275.21 102.121Z" fill="url(#paint41_radial)"/>
<path d="M320.074 154.52C317.814 156.385 314.892 157.844 311.746 158.775C305.018 160.766 297.375 160.823 289.921 160.97C282.467 161.114 274.814 161.411 268.371 163.818C260.599 166.72 255.676 172.568 253.995 179.205C256.464 176.303 259.784 173.899 263.937 172.347C270.382 169.942 278.033 169.645 285.485 169.498C292.94 169.352 300.583 169.297 307.312 167.306C312.662 165.72 317.383 162.62 319.243 158.572L323.872 149.554L320.074 154.52Z" fill="url(#paint42_linear)"/>
<path d="M249.379 188.565C248.609 192.197 248.792 196.033 250.017 199.737C253.597 210.549 264.651 219.915 277.592 225.679L275.588 219.026L282.028 217.15C269.084 211.384 258.033 202.018 254.454 191.206C253.142 187.243 253.018 183.122 253.983 179.267C254.874 176.774 256.174 174.264 257.636 171.752C257.636 171.752 250.324 180.824 249.379 188.565Z" fill="url(#paint43_radial)"/>
<defs>
<linearGradient id="paint0_linear" x1="121.434" y1="126.949" x2="189.229" y2="211.784" gradientUnits="userSpaceOnUse">
<stop stop-color="#FFDB54"/>
<stop offset="0.634078" stop-color="#FFA43E"/>
<stop offset="1" stop-color="#FFC153"/>
</linearGradient>
<linearGradient id="paint1_linear" x1="163.608" y1="251.417" x2="118.75" y2="141.327" gradientUnits="userSpaceOnUse">
<stop stop-color="#12347E"/>
<stop offset="0.421788" stop-color="#2959A2"/>
<stop offset="1" stop-color="#00204D"/>
</linearGradient>
<radialGradient id="paint2_radial" cx="0" cy="0" r="1" gradientUnits="userSpaceOnUse" gradientTransform="translate(136.623 87.5658) rotate(33.9576) scale(36.4254)">
<stop stop-color="#434343"/>
<stop offset="0.634078" stop-color="#222222"/>
<stop offset="1" stop-color="#2F2F2F"/>
</radialGradient>
<radialGradient id="paint3_radial" cx="0" cy="0" r="1" gradientUnits="userSpaceOnUse" gradientTransform="translate(84.9514 64.5022) rotate(39.8095) scale(30.2718)">
<stop stop-color="#434343"/>
<stop offset="0.634078" stop-color="#222222"/>
<stop offset="1" stop-color="#2F2F2F"/>
</radialGradient>
<radialGradient id="paint4_radial" cx="0" cy="0" r="1" gradientUnits="userSpaceOnUse" gradientTransform="translate(116.86 135.003) rotate(35.4699) scale(28.6048)">
<stop stop-color="#434343"/>
<stop offset="0.634078" stop-color="#222222"/>
<stop offset="1" stop-color="#2F2F2F"/>
</radialGradient>
<radialGradient id="paint5_radial" cx="0" cy="0" r="1" gradientUnits="userSpaceOnUse" gradientTransform="translate(19.3923 99.4578) rotate(31.2523) scale(39.7808)">
<stop stop-color="#434343"/>
<stop offset="0.634078" stop-color="#222222"/>
<stop offset="1" stop-color="#2F2F2F"/>
</radialGradient>
<radialGradient id="paint6_radial" cx="0" cy="0" r="1" gradientUnits="userSpaceOnUse" gradientTransform="translate(34.6554 44.5707) rotate(31.0383) scale(30.0193)">
<stop stop-color="#434343"/>
<stop offset="0.634078" stop-color="#222222"/>
<stop offset="1" stop-color="#2F2F2F"/>
</radialGradient>
<radialGradient id="paint7_radial" cx="0" cy="0" r="1" gradientUnits="userSpaceOnUse" gradientTransform="translate(149.621 44.9049) rotate(43.4078) scale(26.0142)">
<stop stop-color="#434343"/>
<stop offset="0.634078" stop-color="#222222"/>
<stop offset="1" stop-color="#2F2F2F"/>
</radialGradient>
<radialGradient id="paint8_radial" cx="0" cy="0" r="1" gradientUnits="userSpaceOnUse" gradientTransform="translate(64.6887 113.964) rotate(33.9281) scale(37.0849)">
<stop stop-color="#434343"/>
<stop offset="0.634078" stop-color="#222222"/>
<stop offset="1" stop-color="#2F2F2F"/>
</radialGradient>
<radialGradient id="paint9_radial" cx="0" cy="0" r="1" gradientUnits="userSpaceOnUse" gradientTransform="translate(104.754 21.6941) rotate(39.4564) scale(27.5222)">
<stop stop-color="#434343"/>
<stop offset="0.634078" stop-color="#222222"/>
<stop offset="1" stop-color="#2F2F2F"/>
</radialGradient>
<radialGradient id="paint10_radial" cx="0" cy="0" r="1" gradientUnits="userSpaceOnUse" gradientTransform="translate(57.9238 10.3525) rotate(12.1562) scale(24.5197)">
<stop stop-color="#434343"/>
<stop offset="0.634078" stop-color="#222222"/>
<stop offset="1" stop-color="#2F2F2F"/>
</radialGradient>
<radialGradient id="paint11_radial" cx="0" cy="0" r="1" gradientUnits="userSpaceOnUse" gradientTransform="translate(120.948 106.971) rotate(37.0019) scale(35.3862)">
<stop stop-color="#CFD0D5"/>
<stop offset="1" stop-color="#868689"/>
</radialGradient>
<radialGradient id="paint12_radial" cx="0" cy="0" r="1" gradientUnits="userSpaceOnUse" gradientTransform="translate(19.7074 75.5444) rotate(38.5868) scale(32.9145)">
<stop stop-color="#CFD0D5"/>
<stop offset="1" stop-color="#868689"/>
</radialGradient>
<radialGradient id="paint13_radial" cx="0" cy="0" r="1" gradientUnits="userSpaceOnUse" gradientTransform="translate(69.8425 81.3273) rotate(46.5853) scale(38.8431)">
<stop stop-color="#CFD0D5"/>
<stop offset="1" stop-color="#868689"/>
</radialGradient>
<radialGradient id="paint14_radial" cx="0" cy="0" r="1" gradientUnits="userSpaceOnUse" gradientTransform="translate(141.215 61.4149) rotate(38.4179) scale(35.4691)">
<stop stop-color="#CFD0D5"/>
<stop offset="1" stop-color="#868689"/>
</radialGradient>
<radialGradient id="paint15_radial" cx="0" cy="0" r="1" gradientUnits="userSpaceOnUse" gradientTransform="translate(99.9589 49.5805) rotate(-31.1376) scale(19.4736)">
<stop stop-color="#CFD0D5"/>
<stop offset="1" stop-color="#868689"/>
</radialGradient>
<radialGradient id="paint16_radial" cx="0" cy="0" r="1" gradientUnits="userSpaceOnUse" gradientTransform="translate(44.5185 27.2398) rotate(34.5312) scale(24.8201)">
<stop stop-color="#CFD0D5"/>
<stop offset="1" stop-color="#868689"/>
</radialGradient>
<radialGradient id="paint17_radial" cx="0" cy="0" r="1" gradientUnits="userSpaceOnUse" gradientTransform="translate(96.2526 148.863) rotate(-31.1376) scale(9.92146)">
<stop stop-color="#CFD0D5"/>
<stop offset="1" stop-color="#868689"/>
</radialGradient>
<radialGradient id="paint18_radial" cx="0" cy="0" r="1" gradientUnits="userSpaceOnUse" gradientTransform="translate(132.08 29.9407) rotate(42.5607) scale(21.7187)">
<stop stop-color="#CFD0D5"/>
<stop offset="1" stop-color="#868689"/>
</radialGradient>
<radialGradient id="paint19_radial" cx="0" cy="0" r="1" gradientUnits="userSpaceOnUse" gradientTransform="translate(109.857 75.3035) rotate(40.3298) scale(36.5046)">
<stop stop-color="#CFD0D5"/>
<stop offset="1" stop-color="#868689"/>
</radialGradient>
<radialGradient id="paint20_radial" cx="0" cy="0" r="1" gradientUnits="userSpaceOnUse" gradientTransform="translate(94.0902 125.267) rotate(39.3816) scale(30.664)">
<stop stop-color="#CFD0D5"/>
<stop offset="1" stop-color="#868689"/>
</radialGradient>
<radialGradient id="paint21_radial" cx="0" cy="0" r="1" gradientUnits="userSpaceOnUse" gradientTransform="translate(100.357 98.274) rotate(34.32) scale(35.5089)">
<stop stop-color="#434343"/>
<stop offset="0.634078" stop-color="#222222"/>
<stop offset="1" stop-color="#2F2F2F"/>
</radialGradient>
<radialGradient id="paint22_radial" cx="0" cy="0" r="1" gradientUnits="userSpaceOnUse" gradientTransform="translate(120.804 51.1134) rotate(34.8281) scale(23.901)">
<stop stop-color="#434343"/>
<stop offset="0.634078" stop-color="#222222"/>
<stop offset="1" stop-color="#2F2F2F"/>
</radialGradient>
<radialGradient id="paint23_radial" cx="0" cy="0" r="1" gradientUnits="userSpaceOnUse" gradientTransform="translate(39.9368 106.747) rotate(45.8072) scale(27.8586)">
<stop stop-color="#CFD0D5"/>
<stop offset="1" stop-color="#868689"/>
</radialGradient>
<radialGradient id="paint24_radial" cx="0" cy="0" r="1" gradientUnits="userSpaceOnUse" gradientTransform="translate(80.5251 11.9204) rotate(40.819) scale(27.3012)">
<stop stop-color="#CFD0D5"/>
<stop offset="1" stop-color="#868689"/>
</radialGradient>
<radialGradient id="paint25_radial" cx="0" cy="0" r="1" gradientUnits="userSpaceOnUse" gradientTransform="translate(57.5134 52.9342) rotate(48.6664) scale(27.7738)">
<stop stop-color="#CFD0D5"/>
<stop offset="1" stop-color="#868689"/>
</radialGradient>
<radialGradient id="paint26_radial" cx="0" cy="0" r="1" gradientUnits="userSpaceOnUse" gradientTransform="translate(48.3703 79.5386) rotate(29.243) scale(33.4235)">
<stop stop-color="#434343"/>
<stop offset="0.634078" stop-color="#222222"/>
<stop offset="1" stop-color="#2F2F2F"/>
</radialGradient>
<radialGradient id="paint27_radial" cx="0" cy="0" r="1" gradientUnits="userSpaceOnUse" gradientTransform="translate(67.818 28.1558) rotate(28.9864) scale(31.9784)">
<stop stop-color="#434343"/>
<stop offset="0.634078" stop-color="#222222"/>
<stop offset="1" stop-color="#2F2F2F"/>
</radialGradient>
<radialGradient id="paint28_radial" cx="0" cy="0" r="1" gradientUnits="userSpaceOnUse" gradientTransform="translate(136.623 87.5676) rotate(33.9576) scale(36.4254)">
<stop stop-color="#FFDB54"/>
<stop offset="0.634078" stop-color="#FFA43E"/>
<stop offset="1" stop-color="#FFC153"/>
</radialGradient>
<radialGradient id="paint29_radial" cx="0" cy="0" r="1" gradientUnits="userSpaceOnUse" gradientTransform="translate(84.9523 64.5036) rotate(39.8095) scale(30.2718)">
<stop stop-color="#FFDB54"/>
<stop offset="0.634078" stop-color="#FFA43E"/>
<stop offset="1" stop-color="#FFC153"/>
</radialGradient>
<radialGradient id="paint30_radial" cx="0" cy="0" r="1" gradientUnits="userSpaceOnUse" gradientTransform="translate(116.86 135.005) rotate(35.4699) scale(28.6048)">
<stop stop-color="#FFDB54"/>
<stop offset="0.634078" stop-color="#FFA43E"/>
<stop offset="1" stop-color="#FFC153"/>
</radialGradient>
<radialGradient id="paint31_radial" cx="0" cy="0" r="1" gradientUnits="userSpaceOnUse" gradientTransform="translate(19.3929 99.4565) rotate(31.2523) scale(39.7808)">
<stop stop-color="#FFDB54"/>
<stop offset="0.634078" stop-color="#FFA43E"/>
<stop offset="1" stop-color="#FFC153"/>
</radialGradient>
<radialGradient id="paint32_radial" cx="0" cy="0" r="1" gradientUnits="userSpaceOnUse" gradientTransform="translate(34.6556 44.5712) rotate(31.0383) scale(30.0193)">
<stop stop-color="#FFDB54"/>
<stop offset="0.634078" stop-color="#FFA43E"/>
<stop offset="1" stop-color="#FFC153"/>
</radialGradient>
<radialGradient id="paint33_radial" cx="0" cy="0" r="1" gradientUnits="userSpaceOnUse" gradientTransform="translate(149.622 44.9069) rotate(43.4078) scale(26.0142)">
<stop stop-color="#FFDB54"/>
<stop offset="0.634078" stop-color="#FFA43E"/>
<stop offset="1" stop-color="#FFC153"/>
</radialGradient>
<radialGradient id="paint34_radial" cx="0" cy="0" r="1" gradientUnits="userSpaceOnUse" gradientTransform="translate(64.6891 113.965) rotate(33.9281) scale(37.0849)">
<stop stop-color="#FFDB54"/>
<stop offset="0.634078" stop-color="#FFA43E"/>
<stop offset="1" stop-color="#FFC153"/>
</radialGradient>
<radialGradient id="paint35_radial" cx="0" cy="0" r="1" gradientUnits="userSpaceOnUse" gradientTransform="translate(104.754 21.6937) rotate(39.4564) scale(27.5222)">
<stop stop-color="#FFDB54"/>
<stop offset="0.634078" stop-color="#FFA43E"/>
<stop offset="1" stop-color="#FFC153"/>
</radialGradient>
<radialGradient id="paint36_radial" cx="0" cy="0" r="1" gradientUnits="userSpaceOnUse" gradientTransform="translate(57.9241 10.3538) rotate(12.1562) scale(24.5197)">
<stop stop-color="#FFDB54"/>
<stop offset="0.634078" stop-color="#FFA43E"/>
<stop offset="1" stop-color="#FFC153"/>
</radialGradient>
<radialGradient id="paint37_radial" cx="0" cy="0" r="1" gradientUnits="userSpaceOnUse" gradientTransform="translate(100.358 98.2744) rotate(34.32) scale(35.5089)">
<stop stop-color="#FFDB54"/>
<stop offset="0.634078" stop-color="#FFA43E"/>
<stop offset="1" stop-color="#FFC153"/>
</radialGradient>
<radialGradient id="paint38_radial" cx="0" cy="0" r="1" gradientUnits="userSpaceOnUse" gradientTransform="translate(120.804 51.1139) rotate(34.8281) scale(23.901)">
<stop stop-color="#FFDB54"/>
<stop offset="0.634078" stop-color="#FFA43E"/>
<stop offset="1" stop-color="#FFC153"/>
</radialGradient>
<radialGradient id="paint39_radial" cx="0" cy="0" r="1" gradientUnits="userSpaceOnUse" gradientTransform="translate(48.3707 79.5382) rotate(29.243) scale(33.4235)">
<stop stop-color="#FFDB54"/>
<stop offset="0.634078" stop-color="#FFA43E"/>
<stop offset="1" stop-color="#FFC153"/>
</radialGradient>
<radialGradient id="paint40_radial" cx="0" cy="0" r="1" gradientUnits="userSpaceOnUse" gradientTransform="translate(67.8182 28.1562) rotate(28.9864) scale(31.9784)">
<stop stop-color="#FFDB54"/>
<stop offset="0.634078" stop-color="#FFA43E"/>
<stop offset="1" stop-color="#FFC153"/>
</radialGradient>
<radialGradient id="paint41_radial" cx="0" cy="0" r="1" gradientUnits="userSpaceOnUse" gradientTransform="translate(298.761 123.659) rotate(10.5632) scale(32.6814 24.3506)">
<stop stop-color="#FFDB54"/>
<stop offset="0.634078" stop-color="#FFA43E"/>
<stop offset="1" stop-color="#FFC153"/>
</radialGradient>
<linearGradient id="paint42_linear" x1="257.843" y1="158.581" x2="320.024" y2="170.181" gradientUnits="userSpaceOnUse">
<stop stop-color="#12347E"/>
<stop offset="0.421788" stop-color="#2959A2"/>
<stop offset="1" stop-color="#00204D"/>
</linearGradient>
<radialGradient id="paint43_radial" cx="0" cy="0" r="1" gradientUnits="userSpaceOnUse" gradientTransform="translate(266.499 198.508) rotate(10.5632) scale(26.8882 20.0342)">
<stop stop-color="#FFDB54"/>
<stop offset="0.634078" stop-color="#FFA43E"/>
<stop offset="1" stop-color="#FFC153"/>
</radialGradient>
</defs>
</svg>
