<?xml version="1.0" encoding="UTF-8" standalone="no"?>
<svg
   xmlns:dc="http://purl.org/dc/elements/1.1/"
   xmlns:cc="http://creativecommons.org/ns#"
   xmlns:rdf="http://www.w3.org/1999/02/22-rdf-syntax-ns#"
   xmlns:svg="http://www.w3.org/2000/svg"
   xmlns="http://www.w3.org/2000/svg"
   xmlns:sodipodi="http://sodipodi.sourceforge.net/DTD/sodipodi-0.dtd"
   xmlns:inkscape="http://www.inkscape.org/namespaces/inkscape"
   width="759"
   height="706"
   viewBox="0 0 759 706"
   fill="none"
   version="1.1"
   id="svg183"
   sodipodi:docname="person.svg"
   inkscape:version="1.0.2 (1.0.2+r75+1)">
  <metadata
     id="metadata187">
    <rdf:RDF>
      <cc:Work
         rdf:about="">
        <dc:format>image/svg+xml</dc:format>
        <dc:type
           rdf:resource="http://purl.org/dc/dcmitype/StillImage" />
      </cc:Work>
    </rdf:RDF>
  </metadata>
  <sodipodi:namedview
     pagecolor="#ffffff"
     bordercolor="#666666"
     borderopacity="1"
     objecttolerance="10"
     gridtolerance="10"
     guidetolerance="10"
     inkscape:pageopacity="0"
     inkscape:pageshadow="2"
     inkscape:window-width="1366"
     inkscape:window-height="700"
     id="namedview185"
     showgrid="false"
     inkscape:zoom="0.79461756"
     inkscape:cx="379.5"
     inkscape:cy="353"
     inkscape:window-x="0"
     inkscape:window-y="0"
     inkscape:window-maximized="1"
     inkscape:current-layer="svg183" />
  <g
     clip-path="url(#clip0)"
     id="g176">
    <path
       d="M591.476 148.159C591.476 206.072 544.528 253.021 486.611 253.021C428.699 253.021 381.749 206.072 381.749 148.159C381.749 90.2445 428.699 43.2947 486.611 43.2947C544.528 43.2947 591.476 90.2445 591.476 148.159Z"
       fill="#FFA43E"
       id="path4" />
    <path
       d="M576.221 149.927C576.221 202.882 533.294 245.807 480.341 245.807C427.387 245.807 384.46 202.882 384.46 149.927C384.46 96.9735 427.387 54.0462 480.341 54.0462C533.294 54.0462 576.221 96.9735 576.221 149.927Z"
       fill="#FFC153"
       id="path6" />
    <path
       d="M748.494 179.074C724.617 164.165 722.67 150.51 722.67 150.51C722.67 150.51 717.726 163.386 691.127 172.594C691.127 172.594 640.489 189.069 678.013 246.995L667.403 347.223H611.86C612.343 346.691 613.293 345.611 614.587 343.96C645.994 303.876 629.021 244.625 581.324 226.781C575.12 224.458 568.158 222.338 560.456 220.674C541.682 216.62 523.194 211.306 505.367 204.148C489.823 197.904 473.295 190.154 462.965 182.117L461.706 163.341C478.204 161.821 491.384 148.747 493.041 132.273C487.945 141.645 477.528 147.675 465.861 146.379C453.016 144.951 442.743 134.325 441.701 121.445C440.715 109.236 447.718 98.5492 458.038 94.0595C439.059 94.2729 423.755 109.723 423.755 128.764C423.755 146.793 437.496 161.618 455.093 163.323L453.831 182.117C443.504 190.154 426.974 197.904 411.429 204.148C393.603 211.306 375.114 216.62 356.34 220.674C348.639 222.338 341.678 224.458 335.473 226.781C287.777 244.625 270.802 303.876 302.21 343.96C303.504 345.611 304.454 346.691 304.937 347.223H249.396L238.784 246.995C276.307 189.069 225.67 172.594 225.67 172.594C199.07 163.386 194.127 150.51 194.127 150.51C194.127 150.51 192.18 164.165 168.305 179.074C168.305 179.074 122.299 206.607 172.604 255.008L172.871 254.977L177.17 347.223L187.054 559.355H271.856H458.397H644.941H729.742H729.744L739.629 347.223L743.925 254.977L744.193 255.008C794.498 206.607 748.494 179.074 748.494 179.074"
       fill="#2F3274"
       id="path8" />
    <path
       d="M223.489 243.101L184.101 245.486C179.499 245.765 179.468 252.988 184.101 252.707L223.489 250.322C228.091 250.041 228.122 242.82 223.489 243.101"
       fill="#4C4197"
       id="path10" />
    <path
       d="M202.909 228.273C201.483 228.435 200.196 227.408 200.034 225.98L198.983 216.677C198.821 215.251 199.848 213.964 201.276 213.802C202.702 213.641 203.989 214.667 204.151 216.093L205.202 225.396C205.361 226.824 204.337 228.111 202.909 228.273"
       fill="#4C4197"
       id="path12" />
    <path
       d="M187.704 230.849C186.307 231.188 184.903 230.33 184.564 228.933L182.356 219.835C182.017 218.44 182.875 217.034 184.272 216.695C185.667 216.358 187.073 217.214 187.412 218.611L189.618 227.709C189.957 229.104 189.099 230.51 187.704 230.849Z"
       fill="#4C4197"
       id="path14" />
    <path
       d="M172.474 235.155C171.146 235.701 169.626 235.069 169.078 233.742L165.507 225.088C164.961 223.759 165.592 222.241 166.92 221.693C168.247 221.144 169.767 221.776 170.315 223.103L173.887 231.759C174.432 233.086 173.801 234.607 172.474 235.155Z"
       fill="#4C4197"
       id="path16" />
    <path
       d="M218.307 227.393C219.743 227.411 220.924 226.261 220.942 224.826L221.063 215.464C221.081 214.029 219.934 212.85 218.498 212.83C217.061 212.812 215.882 213.962 215.864 215.397L215.74 224.758C215.722 226.193 216.87 227.373 218.307 227.393Z"
       fill="#4C4197"
       id="path18" />
    <path
       d="M234.115 228.192C235.529 228.43 236.87 227.473 237.108 226.059L238.658 216.825C238.896 215.41 237.942 214.07 236.524 213.831C235.109 213.593 233.769 214.548 233.531 215.965L231.979 225.196C231.741 226.613 232.697 227.954 234.115 228.192Z"
       fill="#4C4197"
       id="path20" />
    <path
       d="M713.888 228.273C715.317 228.435 716.603 227.408 716.763 225.98L717.814 216.677C717.976 215.251 716.949 213.964 715.521 213.802C714.097 213.641 712.808 214.667 712.646 216.093L711.595 225.396C711.436 226.824 712.46 228.111 713.888 228.273"
       fill="#4C4197"
       id="path22" />
    <path
       d="M729.093 230.849C730.49 231.188 731.894 230.33 732.235 228.933L734.441 219.835C734.78 218.44 733.922 217.034 732.527 216.695C731.132 216.358 729.726 217.214 729.385 218.611L727.18 227.709C726.84 229.104 727.698 230.51 729.093 230.849Z"
       fill="#4C4197"
       id="path24" />
    <path
       d="M744.326 235.155C745.651 235.701 747.171 235.069 747.719 233.742L751.29 225.088C751.836 223.759 751.205 222.241 749.878 221.693C748.55 221.144 747.03 221.776 746.484 223.103L742.913 231.759C742.365 233.086 742.996 234.607 744.326 235.155Z"
       fill="#4C4197"
       id="path26" />
    <path
       d="M698.489 227.393C697.054 227.411 695.873 226.261 695.857 224.826L695.734 215.464C695.716 214.029 696.866 212.85 698.301 212.83C699.736 212.812 700.915 213.962 700.935 215.397L701.057 224.758C701.075 226.193 699.927 227.373 698.489 227.393Z"
       fill="#4C4197"
       id="path28" />
    <path
       d="M682.685 228.192C681.267 228.43 679.927 227.473 679.688 226.059L678.139 216.825C677.901 215.41 678.855 214.07 680.272 213.831C681.69 213.593 683.03 214.548 683.269 215.965L684.818 225.196C685.056 226.613 684.1 227.954 682.685 228.192Z"
       fill="#4C4197"
       id="path30" />
    <path
       d="M693.531 242.263L732.781 246.331C737.368 246.805 737.089 254.023 732.474 253.545L693.225 249.477C688.639 249.001 688.915 241.785 693.531 242.263"
       fill="#4C4197"
       id="path32" />
    <path
       d="M223.266 242.263L184.016 246.331C179.429 246.805 179.708 254.023 184.326 253.545L223.574 249.477C228.16 249.001 227.882 241.785 223.266 242.263"
       fill="#4C4197"
       id="path34" />
    <path
       d="M332.257 348.556C330.747 348.556 329.467 347.393 329.35 345.861C329.229 344.253 330.431 342.851 332.039 342.73C332.535 342.692 382.65 332.567 458.397 332.567C534.15 332.567 584.259 342.692 584.758 342.73C586.366 342.851 587.57 344.253 587.446 345.861C587.323 347.465 585.982 348.648 584.313 348.549C583.821 348.511 533.907 338.404 458.397 338.404C382.87 338.404 332.978 348.511 332.481 348.549C332.407 348.554 332.333 348.556 332.257 348.556Z"
       fill="#4C4197"
       id="path36" />
    <path
       d="M458.397 421.41C458.397 421.41 357.003 418.212 397.729 559.355H458.397H519.07C559.794 418.212 458.397 421.41 458.397 421.41Z"
       stroke="#4C4197"
       stroke-width="3.78511"
       stroke-miterlimit="10"
       id="path38" />
    <path
       d="M121.508 333.391C119.198 331.696 114.894 332.83 112.44 333.704C109.983 334.577 107.547 335.963 105.652 337.821C103.84 336.76 102.094 335.687 100.048 334.997C97.581 334.166 95.1025 333.946 92.5152 334.092C91.2325 334.166 91.2509 335.965 92.5152 336.073C96.5932 336.417 101.993 338.034 104.7 341.286C105.325 342.036 106.553 341.89 107.201 341.286C109.17 339.444 111.228 337.937 113.826 337.104C115.041 336.713 116.292 336.446 117.566 336.365C118.935 336.278 120.222 336.37 121.508 335.824C122.588 335.363 122.247 333.933 121.508 333.391"
       fill="#4C4197"
       id="path40" />
    <path
       d="M80.0491 372.359C78.0392 372.287 75.9767 373.487 74.3834 374.625C73.2753 375.416 72.2594 376.323 71.3574 377.334C69.1335 375.023 66.2654 373.487 62.957 373.302C61.7278 373.235 61.483 375.146 62.6675 375.443C65.6513 376.186 68.4491 377.92 70.037 380.615C70.5118 381.422 71.8724 381.749 72.5314 380.936C73.6025 379.614 74.7563 378.38 76.1739 377.424C77.6226 376.444 79.3351 375.946 80.7564 374.962C81.8821 374.185 81.4906 372.408 80.0491 372.359"
       fill="#4C4197"
       id="path42" />
    <path
       d="M112.183 282.684C112.755 281.031 113.083 279.261 113.083 277.413C113.083 268.514 105.869 261.3 96.9714 261.3C92.2497 261.3 88.0147 263.344 85.0677 266.582C81.2224 258.576 73.0606 253.035 63.5837 253.035C50.4122 253.035 39.735 263.712 39.735 276.883C39.735 278.884 40.0097 280.82 40.4746 282.677H38.6567C33.0973 282.677 28.5912 287.185 28.5912 292.744C28.5912 298.305 33.0973 302.812 38.6567 302.812H112.131C117.69 302.812 122.198 298.305 122.198 292.744C122.198 287.203 117.718 282.713 112.183 282.684"
       fill="white"
       id="path44" />
    <path
       d="M122.2 292.735C122.2 298.296 117.687 302.808 112.126 302.808H38.6505C35.8799 302.808 33.3619 301.674 31.5362 299.85C29.7104 298.024 28.598 295.504 28.598 292.735C28.598 287.194 33.0891 282.682 38.6505 282.682H40.4763C40.0147 280.813 39.7421 278.881 39.7421 276.889C39.7421 274.58 40.0772 272.357 40.6861 270.257C44.1698 283.479 61.5893 293.512 82.5559 293.512C95.7975 293.512 107.613 289.503 115.421 283.227C116.89 283.731 118.191 284.571 119.262 285.642C121.087 287.445 122.2 289.965 122.2 292.735"
       fill="#CFC6E8"
       id="path46" />
    <path
       d="M394.077 161.628C394.077 166.662 389.983 170.778 384.929 170.778H318.17C313.114 170.778 309.022 166.662 309.022 161.628C309.022 156.575 313.114 152.48 318.17 152.48H319.816C319.38 150.789 319.131 149.028 319.131 147.198C319.131 143.768 319.931 140.518 321.348 137.639C324.894 130.459 332.281 125.54 340.811 125.54C349.434 125.54 356.843 130.571 360.342 137.843C363.02 134.894 366.86 133.042 371.161 133.042C379.233 133.042 385.798 139.604 385.798 147.679C385.798 149.37 385.5 150.971 384.974 152.48C386.78 152.48 388.473 153.008 389.868 153.945C392.408 155.569 394.077 158.405 394.077 161.628"
       fill="#CFC6E8"
       id="path48" />
    <path
       d="M389.869 153.945C382.596 160.234 372.19 164.169 360.664 164.169C340.949 164.169 324.574 152.71 321.348 137.639C324.895 130.459 332.282 125.54 340.812 125.54C349.434 125.54 356.844 130.571 360.343 137.843C363.02 134.895 366.861 133.042 371.162 133.042C379.234 133.042 385.799 139.604 385.799 147.679C385.799 149.37 385.5 150.971 384.975 152.48C386.78 152.48 388.474 153.008 389.869 153.945"
       fill="white"
       id="path50" />
    <path
       d="M892.553 515.213C898.835 505.654 904.066 495.408 908.126 484.717C910.238 479.163 911.998 472.793 909.393 467.45C906.024 460.541 896.926 458.65 889.292 459.573C878.866 460.833 868.932 465.846 861.722 473.485C864.559 467.493 867.396 461.503 870.235 455.513C871.052 453.783 871.894 451.917 871.584 450.028C870.935 446.077 865.929 444.649 861.936 444.918C850.34 445.7 839.651 454.221 836.307 465.355C837.89 456.49 838.326 447.418 837.605 438.441C837.401 435.917 837.066 433.287 835.631 431.2C833.021 427.407 827.415 426.681 823.172 428.471C818.932 430.261 815.824 433.967 813.209 437.756C811.094 440.822 809.196 444.031 807.527 447.358C806.541 445.868 805.485 444.427 804.266 443.099C797.672 435.91 786.604 432.076 777.817 436.319C768.063 441.026 764.616 453.718 766.585 464.369C762.149 460.395 757.716 456.42 753.278 452.445C751.667 451.003 749.686 449.453 747.578 449.929C745.511 450.396 744.382 452.568 743.53 454.511C740.615 461.159 737.628 469.608 735.919 478.336C734.973 476.53 733.996 474.738 732.997 472.959C732.119 471.405 731.135 469.775 729.533 468.986C726.513 467.495 723.016 469.644 720.451 471.83C702.402 487.203 690.927 509.241 684.935 532.181C678.941 555.119 678.065 579.079 678.408 602.788C678.653 619.765 679.641 636.915 683.525 653.497C686.251 665.134 690.402 682.199 696.996 692.308C713.05 716.917 774.156 696.362 794.516 689.716C828.464 678.632 862.279 661.394 889.117 637.54C899.771 628.075 910.058 616.017 916.331 603.179C923.718 588.061 924.816 569.074 911.711 556.638C908.762 553.839 904.713 551.483 900.796 552.568C908.104 549.477 914.885 543.842 918.078 536.442C921.328 528.904 920.246 519.244 914.208 513.683C908.174 508.12 897.193 508.443 892.553 515.213"
       fill="#4C4197"
       id="path52" />
    <path
       d="M794.517 689.716C828.465 678.632 862.28 661.394 889.117 637.54C890.508 636.309 891.887 635.027 893.252 633.708C886.537 623.642 871.718 620.367 859.012 618.719C859.257 609.479 872.228 602.083 868.239 593.746C867.183 591.536 865.067 590.002 862.855 588.948C855.192 585.303 845.377 586.797 839.144 592.555C840.056 584.798 844.016 577.792 847.551 570.825C851.084 563.858 854.336 556.305 853.651 548.527C852.968 540.745 847.01 532.902 839.201 532.772C835.358 532.709 831.708 534.454 828.489 536.556C820.294 541.918 813.846 549.906 810.338 559.05C809.394 552.287 810.187 545.338 808.848 538.641C807.512 531.945 803.186 525.084 796.462 523.882C791.031 522.912 785.609 525.922 781.69 529.803C770.46 540.914 768.347 558.178 768.571 573.974C768.389 568.73 760.281 567.279 756.461 570.879C752.643 574.477 752.129 580.27 751.861 585.51C753.121 576.858 740.957 570.92 733.438 575.389C725.92 579.856 723.856 590.24 726.125 598.684C722.841 592.007 718.893 585.658 714.358 579.758C713.008 578.001 711.488 576.2 709.377 575.517C705.242 574.183 701.208 577.649 698.407 580.97C689.758 591.223 683.186 603.08 678.775 615.716C679.343 628.421 680.626 641.118 683.525 653.497C686.252 665.134 690.403 682.199 696.997 692.308C713.051 716.917 774.157 696.362 794.517 689.716"
       fill="#2F3274"
       id="path54" />
    <path
       d="M262.926 567.438C260.505 543.853 256.842 520.158 248.217 498.071C239.593 475.987 225.629 455.436 205.912 442.27C203.109 440.399 199.387 438.672 196.56 440.503C195.062 441.473 194.273 443.207 193.584 444.853C190.424 452.413 187.708 460.157 185.456 468.036C184.279 459.629 179.598 451.768 172.77 446.724C168.95 443.903 163.322 442.068 159.681 445.118C158.288 446.284 157.457 447.98 156.779 449.664C154.443 455.456 153.428 461.774 153.83 468.007C151.187 463.232 145.17 460.602 139.869 461.905C134.569 463.207 130.457 468.328 130.328 473.784C130.357 453.929 122.919 434.151 109.816 419.233C106.777 415.777 103.258 412.457 98.8383 411.172C94.4174 409.89 88.9314 411.265 86.782 415.334C85.6001 417.574 85.5738 420.226 85.6659 422.757C85.9932 431.757 87.4856 440.714 90.0894 449.336C85.4703 438.668 73.864 431.451 62.2544 432.024C58.2554 432.222 53.4519 434.225 53.2678 438.223C53.1793 440.134 54.232 441.891 55.2462 443.512C58.7625 449.132 62.2788 454.751 65.7954 460.371C57.7458 453.626 47.2957 449.806 36.7915 449.765C29.1043 449.738 20.2879 452.678 17.7464 459.933C15.7811 465.541 18.271 471.661 21.0145 476.935C26.2934 487.08 32.6848 496.645 40.0367 505.405C34.6395 499.224 23.6955 500.185 18.3483 506.411C13.0017 512.637 13.05 522.359 17.1586 529.463C21.1917 536.442 28.5805 541.25 36.2029 543.469C32.1855 542.847 28.4367 545.659 25.8328 548.781C14.266 562.661 17.5692 581.388 26.6687 595.544C34.3955 607.565 46.0158 618.341 57.6984 626.501C87.1328 647.067 122.729 660.249 157.734 667.299C178.729 671.528 241.816 684.824 254.892 658.515C260.264 647.705 262.398 630.272 263.748 618.399C265.675 601.478 264.66 584.328 262.926 567.438"
       fill="#4C4197"
       id="path56" />
    <path
       d="M263.748 618.399C265.675 601.478 264.66 584.328 262.926 567.438C261.248 551.101 258.932 534.726 254.827 518.858C241.2 507.311 225.679 498.527 208.149 496.43C192.789 494.592 174.068 500.879 170.623 515.961C163.488 512.452 154.499 517.005 150.371 523.801C146.238 530.595 145.713 538.905 145.295 546.847C144.633 541.113 143.894 535.157 140.801 530.285C137.708 525.412 131.525 521.98 126.093 523.932C121.25 525.672 118.553 531.123 118.439 536.266C118.387 538.631 118.781 540.954 119.392 543.238C113.075 527.37 102.341 512.776 86.4035 507.471C83.0074 506.341 79.0261 505.744 76.0466 507.727C74.2341 508.935 73.0979 510.912 72.1609 512.879C62.8041 532.545 69.0026 558.36 86.271 571.636C80.8815 567.932 72.0241 564.977 69.1079 570.828C67.7866 573.48 68.6814 576.66 69.7262 579.43C75.5642 594.916 85.6342 608.782 98.5519 619.123C87.5186 613.923 73.6998 623.444 71.5864 635.379C97.9905 650.923 128.067 661.322 157.733 667.299C178.729 671.528 241.816 684.824 254.892 658.515C260.264 647.705 262.398 630.272 263.748 618.399"
       fill="#2F3274"
       id="path58" />
    <path
       d="M468.471 497.375C468.471 497.375 420.501 540.226 407.071 542.564C393.64 544.902 354.236 492.668 353.619 491.691L386.605 638.719L422.422 655.988L474.286 603.158L468.471 497.375Z"
       fill="#CFC6E8"
       id="path60" />
    <path
       d="M748.536 352.238C740.502 341.195 704.358 338.183 704.358 338.183V322.118C661.184 289.989 603.956 313.082 598.934 317.098C593.915 321.114 598.934 333.46 598.934 333.46L549.739 351.235C469.697 411.658 430.769 527.496 414.955 622.615C410.423 649.884 407.474 677.547 405.538 705.64C403.937 728.884 402.612 752.269 403.13 775.582C403.153 776.635 403.153 777.749 403.146 778.888C429.667 784.02 455.915 786.306 481.214 785.493C574.39 782.511 655.182 753.908 720.004 708.364L725.762 704.268C726.072 704.043 726.371 703.81 726.679 703.585C677.739 541.904 756.568 363.282 748.536 352.238"
       fill="white"
       id="path62" />
    <path
       d="M414.955 620.965C410.423 648.233 407.474 675.897 405.538 703.987C403.937 727.233 402.612 750.618 403.13 773.931C403.153 774.984 403.153 776.098 403.146 777.237C429.667 782.371 455.915 784.653 481.214 783.842C488.298 783.616 495.303 783.225 502.241 782.704C475.269 759.93 430.181 668.849 414.955 620.965"
       fill="#CFC6E8"
       id="path64" />
    <path
       d="M456.74 785.327C456.722 785.228 429.503 628.814 384.487 545.484C339.455 462.127 321.903 443.048 294.428 444.573C266.951 446.1 239.473 456.023 224.973 473.575C210.476 491.125 198.174 692.822 198.168 692.921C290.704 753.037 371.651 774.272 456.74 785.327Z"
       fill="white"
       id="path66" />
    <path
       d="M253.558 508.898C253.558 508.898 212.421 560.211 211.385 561.763C211.253 561.966 209.88 564.784 207.612 569.526C201.876 624.127 198.172 692.865 198.168 692.922C237.863 724.951 282.091 738.964 327.417 756.707C254.562 696.425 253.607 509.495 253.558 508.898Z"
       fill="#CFC6E8"
       id="path68" />
    <path
       d="M724.374 407.505L693.063 410.93C693.063 410.93 647.382 626.375 621.302 759.404C657.316 746.488 690.337 729.207 720.004 708.365L725.762 704.268C726.072 704.043 726.371 703.81 726.679 703.585C694.164 596.167 718.045 481.285 735.382 413.026C728.914 410.438 724.085 408.381 724.374 407.505"
       fill="#CFC6E8"
       id="path70" />
    <path
       d="M710.66 597.155L609.405 538.093C609.405 538.093 616.141 626.97 715.748 675.241C717.147 675.919 718.503 676.557 719.833 677.174C713.969 650.416 711.215 623.473 710.66 597.155Z"
       fill="#CFC6E8"
       id="path72" />
    <path
       d="M528.474 546.839C527.656 546.861 512.662 535.964 512.676 535.303C512.689 534.641 507.851 512.704 509.536 512.156C511.22 511.608 519.007 515.653 521.311 520.496L521.469 505.32C521.469 505.32 528.905 504.834 531.796 512.345C531.796 512.345 539.196 500.783 539.771 501.144C540.348 501.506 545.422 506.436 542.841 514.595C542.841 514.595 548.095 521.028 550.837 524.404C553.584 527.779 551.989 525.194 554.956 529.149C555.34 529.661 528.474 546.839 528.474 546.839"
       fill="#F27175"
       id="path74" />
    <path
       d="M625.688 501.829C625.688 501.829 616.17 487.096 597.912 488.03C579.655 488.962 554.927 511.826 554.927 511.826C554.927 511.826 538.493 512.158 529.581 518.222C527.243 519.815 528.121 523.48 530.902 523.986L551.176 527.656L520.867 538.093C520.867 538.093 503.604 526.685 495.674 536.985C495.674 536.985 512.469 553.817 517.601 554.282C522.733 554.749 558.195 537.767 568.459 538.093C578.723 538.421 602.719 529.78 610.784 534.099C610.784 534.099 629.262 514.225 625.688 501.829"
       fill="#F4AF9A"
       id="path76" />
    <path
       d="M625.689 501.83C625.689 501.83 621.761 495.79 614.149 491.691C615.755 497.72 616.824 503.905 615.425 509.913C613.749 517.107 608.646 523.146 602.558 527.326C596.559 531.443 589.621 533.954 582.678 536.146C593.318 534.015 605.484 531.261 610.785 534.1C610.785 534.1 629.262 514.225 625.689 501.83"
       fill="#F27175"
       id="path78" />
    <path
       d="M748.537 352.239C748.537 352.239 803.311 441.88 824.037 549.936C844.759 657.99 819.595 692.773 779.63 686.853C739.663 680.932 627.91 593.6 609.405 538.093C609.405 538.093 619.768 507.009 625.689 501.829L705.618 530.692C705.618 530.692 650.832 370.653 748.537 352.239"
       fill="white"
       id="path80" />
    <path
       d="M824.037 549.936C809.205 472.605 776.937 404.716 759.782 372.354C787.379 442.599 801.245 518.218 800.196 593.685C800.026 605.84 798.968 619.22 790.386 627.831C777.979 640.278 757.155 636.262 740.653 630.209C695.157 613.515 653.025 587.772 617.287 555.055C648.935 609.789 743.544 681.507 779.63 686.853C819.595 692.773 844.759 657.99 824.037 549.936"
       fill="#CFC6E8"
       id="path82" />
    <path
       d="M598.935 333.461C598.935 333.461 599.391 352.446 645.842 350.638C692.291 348.828 704.358 338.184 704.358 338.184C704.358 338.184 667.257 366.942 628.348 363.321C589.439 359.703 598.935 333.461 598.935 333.461"
       fill="#CFC6E8"
       id="path84" />
    <path
       d="M614.618 352.24C614.618 352.24 569.063 420.284 565.479 445.751L569.62 447.94C569.62 447.94 610.414 368.633 621.302 356.437L614.618 352.24Z"
       fill="#CFC6E8"
       id="path86" />
    <path
       d="M620.512 383.544C617.113 383.104 614.715 379.995 615.153 376.599C615.591 373.203 618.699 370.805 622.097 371.243C625.493 371.681 627.892 374.789 627.454 378.185C627.016 381.583 623.905 383.982 620.512 383.544Z"
       fill="#CFC6E8"
       id="path88" />
    <path
       d="M610.292 407.455C606.894 407.017 604.498 403.906 604.933 400.51C605.371 397.114 608.48 394.715 611.878 395.153C615.276 395.591 617.672 398.7 617.237 402.098C616.796 405.494 613.69 407.892 610.292 407.455Z"
       fill="#CFC6E8"
       id="path90" />
    <path
       d="M594.732 436.331C591.334 435.893 588.935 432.785 589.373 429.389C589.814 425.991 592.92 423.592 596.318 424.03C599.716 424.468 602.113 427.578 601.675 430.974C601.239 434.37 598.128 436.769 594.732 436.331Z"
       fill="#CFC6E8"
       id="path92" />
    <path
       d="M309.935 601.072C309.935 601.072 320.819 573.532 330.618 570.035C340.415 566.533 375.759 560.586 377.509 562.684C379.259 564.786 377.86 573.532 374.01 574.931C370.16 576.332 370.16 576.332 370.16 576.332C370.16 576.332 363.86 605.728 360.711 613.427C357.563 621.124 328.015 620.881 322.593 622.874C317.171 624.868 309.935 626.375 309.935 626.375C309.935 626.375 299.403 605.867 309.935 601.072"
       fill="#F4AF9A"
       id="path94" />
    <path
       d="M364.128 594.696C358.567 602.197 348.433 604.697 339.098 604.915C334.89 605.011 330.577 604.733 326.692 603.109C322.806 601.487 319.381 598.33 318.312 594.258C317.31 590.437 318.454 586.41 319.725 582.668C320.032 581.759 320.36 580.849 320.699 579.944C314.667 589.103 309.935 601.072 309.935 601.072C299.403 605.867 309.935 626.375 309.935 626.375C309.935 626.375 317.171 624.868 322.593 622.874C328.015 620.881 357.563 621.124 360.711 613.427C362.439 609.205 365.109 598.469 367.173 589.622C366.23 591.363 365.302 593.114 364.128 594.696"
       fill="#F27175"
       id="path96" />
    <path
       d="M224.973 473.575C224.973 473.575 130.397 594.11 118.789 644.411C107.18 694.711 111.049 741.919 162.124 737.277C213.202 732.632 320.771 640.541 320.771 638.218C320.771 635.898 309.934 601.072 309.934 601.072L233.322 618.099C233.322 618.099 284.725 472.993 224.973 473.575Z"
       fill="white"
       id="path98" />
    <path
       d="M314.183 614.91C313.611 617.805 311.266 621.499 307.547 625.72C305.961 619.833 304.78 613.836 304.054 607.772C303.892 606.431 301.765 606.415 301.927 607.772C302.731 614.472 304.054 621.084 305.864 627.561C271.867 663.681 146.326 733.495 136.32 687.488C124.932 635.126 209.582 493.778 209.588 493.764C182.298 530.252 127.45 606.876 118.789 644.411C107.18 694.711 111.049 741.919 162.124 737.277C213.202 732.632 320.771 640.541 320.771 638.218C320.771 636.889 317.22 624.911 314.183 614.91"
       fill="#CFC6E8"
       id="path100" />
    <path
       d="M301.193 523.84C302.111 523.84 329.011 511.38 341.546 508.898L343.992 519.56L304.252 536.986L301.193 523.84"
       fill="#CFC6E8"
       id="path102" />
    <path
       d="M691.487 324.917C691.487 329.636 673.42 333.461 651.136 333.461C628.851 333.461 610.784 329.636 610.784 324.917C610.784 320.196 628.851 312.099 651.136 312.099C673.42 312.099 691.487 320.196 691.487 324.917Z"
       fill="#CFC6E8"
       id="path104" />
    <path
       d="M634.512 508.37C631.414 520.256 625.674 531.351 617.718 540.71C616.836 541.747 618.332 543.257 619.219 542.214C619.502 541.882 619.787 541.547 620.07 541.217C620.126 541.15 620.146 541.082 620.182 541.015C627.87 531.629 633.499 520.687 636.56 508.936C636.904 507.611 634.855 507.045 634.512 508.37"
       fill="#CFC6E8"
       id="path106" />
    <path
       d="M248.767 489.891C244.855 482.499 238.678 476.388 231.303 472.466C230.097 471.826 229.021 473.659 230.231 474.304C245.216 482.272 253.704 499.128 250.977 515.935C250.762 517.274 252.808 517.846 253.028 516.499C254.499 507.429 253.075 498.03 248.767 489.891"
       fill="#CFC6E8"
       id="path108" />
    <path
       d="M734.775 352.88C717.151 356.424 706.164 372.312 699.653 387.854C697.517 392.955 695.7 398.181 693.892 403.405C693.441 404.701 695.493 405.258 695.94 403.971C701.564 387.737 707.873 370.001 722.921 360.107C726.715 357.614 730.885 355.824 735.339 354.928C736.678 354.659 736.11 352.61 734.775 352.88"
       fill="#CFC6E8"
       id="path110" />
    <path
       d="M697.665 286.051L691.487 324.917C691.487 324.917 686.429 337.879 626.549 331.691L631.485 292.737L697.665 286.051Z"
       fill="#F4AF9A"
       id="path112" />
    <path
       d="M681.674 289.48C659.124 304.039 629.666 307.14 629.666 307.14L631.494 292.732L631.708 292.71C647.582 292.117 667.773 291.052 681.674 289.48"
       fill="#F27175"
       id="path114" />
    <path
       d="M614.875 148.157C614.875 148.157 596.568 196.405 595.126 217.111C595.126 217.111 581.619 233.553 581.547 239.027C581.477 244.5 591.988 247.959 591.988 247.959C591.988 247.959 595.267 290.826 607.167 293.272C609.136 293.678 691.983 291.464 697.666 286.051C703.35 280.638 732.013 244.693 732.013 244.693C732.013 244.693 739.306 117.708 614.875 148.157"
       fill="#F4AF9A"
       id="path116" />
    <path
       d="M614.874 148.157C614.874 148.157 614.207 149.918 613.123 152.898C613.125 152.898 641.736 152.676 683.561 189.096L683.08 225.975L674.231 229.082L674.175 233.32L681.375 239.669L682.712 235.965C682.712 235.965 689.306 221.616 694.687 219.222C700.071 216.828 717.637 214.714 717.637 214.714L727.616 234.011L713.086 261.491L694.943 261.626C694.943 261.626 692.906 274.372 702.553 280.678C712.592 269.051 732.013 244.693 732.013 244.693C732.013 244.693 739.306 117.708 614.874 148.157"
       fill="#F27175"
       id="path118" />
    <path
       d="M675.778 167.877C676.268 168.885 685.048 188.322 682.88 200.589C680.713 212.855 674.231 229.082 674.231 229.082L682.712 235.966L693.836 226.575C693.836 226.575 686.368 266.96 706.407 276.146C715.55 265.255 728.283 249.365 731.333 245.547C731.607 245.134 731.838 244.783 732.024 244.498C732.114 242.54 732.772 224.466 727.225 204.118C706.988 188.966 675.778 167.877 675.778 167.877Z"
       fill="#6E5BB3"
       id="path120" />
    <path
       d="M732.027 244.489C731.847 244.781 731.6 245.14 731.331 245.545C729.287 248.083 722.953 256.011 716.238 264.231C708.085 214.595 686.77 192.023 682.301 187.778C680.369 178.031 676.169 168.71 675.81 167.901C676.753 168.53 707.299 189.216 727.22 204.129C732.768 224.477 732.117 242.535 732.027 244.489"
       fill="#5B4BA9"
       id="path122" />
    <path
       d="M614.874 148.157C616.229 147.836 713.005 167.571 719.272 260.166C719.272 260.166 752.168 250.776 766.767 220.826C767.344 219.642 767.652 218.355 767.717 217.041C768.409 202.795 767.257 119.373 648.593 87.5225C646.365 86.9251 643.993 87.6618 642.491 89.4091C632.496 101.037 596.435 144.914 612.646 154.72L614.874 148.157Z"
       fill="white"
       id="path124" />
    <path
       d="M756.667 188.306C756.373 193.957 755.659 199.936 752.175 204.394C747.528 210.339 739.303 211.963 731.784 212.565C722.631 213.297 712.835 212.864 704.356 209.739C712.311 223.494 717.915 240.121 719.271 260.166C719.271 260.166 752.168 250.776 766.767 220.826C767.344 219.642 767.652 218.355 767.717 217.041C768.034 210.487 767.953 189.299 756.236 165.229C756.9 172.899 757.067 180.616 756.667 188.306"
       fill="#CFC6E8"
       id="path126" />
    <path
       d="M694.337 225.708C694.337 225.708 710.101 210.348 722.2 227.584C734.3 244.817 708.779 278.859 686.173 255.218C686.173 255.218 684.464 236.821 694.337 225.708Z"
       fill="#F4AF9A"
       id="path128" />
    <path
       d="M698 237.709C703.471 232.808 714.505 229.612 716.846 239.348C717.809 243.355 716.08 246.982 713.082 249.587C708.635 253.457 702.382 255.153 696.589 254.059C693.946 253.563 690.669 251.613 691.37 248.473C692.232 244.615 694.707 240.655 698 237.709"
       fill="#F27175"
       id="path130" />
    <path
       d="M626.147 174.161C626.147 174.161 619.703 191.394 623.555 188.573C624.941 187.56 649.977 186.723 653.294 189.281C656.616 191.841 659.185 192.648 659.185 192.648C659.185 192.648 659.068 181.813 652.4 178.889C645.729 175.964 627.389 177.79 627.389 177.79L626.147 174.161"
       fill="#5B4BA9"
       id="path132" />
    <path
       d="M641.545 218.892C637.035 214.299 629.695 213.614 624.494 217.463C624.029 217.807 623.793 218.366 624.092 218.912C624.345 219.368 625.082 219.653 625.542 219.314C629.989 216.021 636.121 216.399 640.022 220.374C640.981 221.351 642.504 219.869 641.545 218.892"
       fill="#2F3274"
       id="path134" />
    <path
       d="M626.293 263.467C625.943 263.065 625.19 262.953 624.793 263.371C622.414 265.882 618.724 266.926 615.454 265.972C614.142 265.59 613.466 267.604 614.782 267.989C618.769 269.152 623.326 268 626.196 264.968C626.592 264.552 626.697 263.926 626.293 263.467"
       fill="#F27175"
       id="path136" />
    <path
       d="M581.733 237.814C581.729 237.827 581.72 237.845 581.717 237.859C581.713 237.87 581.713 237.877 581.708 237.888C581.607 238.306 581.551 238.688 581.547 239.027C581.477 244.5 591.988 247.959 591.988 247.959L597.749 244.696L581.733 237.814Z"
       fill="#F27175"
       id="path138" />
    <path
       d="M228.235 429.865L253.32 461.901C253.32 461.901 275.409 469.614 291.818 459.988C297.134 456.866 298.298 449.647 294.426 444.847L275.517 421.411L228.235 429.865Z"
       fill="#F4AF9A"
       id="path140" />
    <path
       d="M288.15 437.083C288.15 437.083 272.02 443.585 241.416 432.917C251.638 432.472 267.088 430.664 281.413 428.731L288.15 437.083Z"
       fill="#F27175"
       id="path142" />
    <path
       d="M284.735 286.329C284.735 286.329 310.655 329.048 315.671 348.507C315.671 348.507 331.426 361.787 332.457 366.987C333.486 372.184 324.086 377.327 324.086 377.327C324.086 377.327 328.506 418.716 317.609 423.141C315.803 423.873 236.536 436.342 230.171 432.19C223.808 428.037 190.19 398.857 190.19 398.857C190.19 398.857 160.903 279.237 284.735 286.329"
       fill="#F4AF9A"
       id="path144" />
    <path
       d="M284.665 391.052C284.665 391.052 311.886 386.36 314.64 386.573C317.391 386.785 314.64 413.249 314.64 414.307C314.64 415.367 290.893 415.432 284.665 391.052Z"
       fill="#2F3274"
       id="path146" />
    <path
       d="M286.279 395.933C294.203 415.401 314.639 415.288 314.639 414.307C314.639 413.986 314.893 411.295 315.169 407.722C305.17 395.506 291.865 395.279 286.279 395.933Z"
       fill="#F27175"
       id="path148" />
    <path
       d="M312.603 386.699C305.595 387.445 284.665 391.052 284.665 391.052C285.312 393.581 286.154 395.834 287.131 397.862C293.682 396.896 310.972 394.686 312.052 393.163C312.6 392.391 312.686 389.633 312.603 386.699Z"
       fill="white"
       id="path150" />
    <path
       d="M264.794 339.918C264.794 339.918 264.136 326.687 282.749 318.337L290.726 329.331L264.794 339.918"
       fill="#2F3274"
       id="path152" />
    <path
       d="M284.735 286.329C284.735 286.329 285.68 287.89 287.237 290.534C287.234 290.536 259.955 295.358 226.541 337.396L233.486 372.424L242.459 373.823L243.258 377.848L237.522 385.163L235.595 381.871C235.595 381.871 226.795 369.37 221.248 368.038C215.7 366.706 198.606 367.782 198.606 367.782L192.499 387.912L211.168 411.522L228.466 408.454C228.466 408.454 232.648 420.234 224.574 427.936C212.971 418.628 190.19 398.857 190.19 398.857C190.19 398.857 160.903 279.236 284.735 286.329"
       fill="#F27175"
       id="path154" />
    <path
       d="M230.216 315.823C229.928 316.87 224.989 336.92 229.209 348.219C233.43 359.517 242.458 373.823 242.458 373.823L235.595 381.871L223.354 374.888C223.354 374.888 237.569 412.025 220.106 424.297C209.483 415.538 194.565 402.646 190.99 399.551C190.657 399.205 190.376 398.911 190.147 398.673C189.716 396.824 185.909 379.733 187.609 359.382C204.212 341.394 230.216 315.823 230.216 315.823"
       fill="#2F3274"
       id="path156" />
    <path
       d="M284.734 286.329C283.389 286.262 194.718 322.083 205.045 411.347C205.045 411.347 172.072 408.194 152.9 382.248C152.145 381.224 151.624 380.052 151.332 378.812C148.166 365.37 134.584 285.739 241.96 234.533C243.974 233.571 246.364 233.857 248.102 235.256C259.665 244.568 301.72 279.998 288.011 292.187L284.734 286.329Z"
       fill="white"
       id="path158" />
    <path
       d="M194.86 315.72C184.887 309.357 176.815 300.144 171.587 289.541C142.248 330.067 149.181 369.686 151.333 378.812C151.625 380.052 152.146 381.224 152.9 382.248C172.072 408.194 205.045 411.347 205.045 411.347C200.704 373.819 213.86 345.742 230.667 325.8C218.096 325.944 205.467 322.487 194.86 315.72Z"
       fill="#CFC6E8"
       id="path160" />
    <path
       d="M222.723 374.151C222.723 374.151 205.011 362.299 196.524 380.838C188.036 399.378 218.323 427.298 235.689 400.811C235.689 400.811 234.079 382.994 222.723 374.151Z"
       fill="#F4AF9A"
       id="path162" />
    <path
       d="M221.348 386.219C215.275 382.52 204.207 381.417 203.691 391.097C203.479 395.081 205.764 398.233 209.076 400.186C213.993 403.086 220.246 403.6 225.569 401.541C227.996 400.602 230.775 398.172 229.553 395.304C228.053 391.782 225.003 388.447 221.348 386.219"
       fill="#F27175"
       id="path164" />
    <path
       d="M278.035 356.038C281.518 350.872 288.386 348.929 294.019 351.68C294.522 351.925 294.843 352.417 294.652 352.99C294.493 353.466 293.842 353.868 293.345 353.625C288.53 351.274 282.76 352.711 279.746 357.183C279.003 358.284 277.293 357.138 278.035 356.038"
       fill="#2F3274"
       id="path166" />
    <path
       d="M332.066 365.861C332.07 365.875 332.081 365.891 332.088 365.904C332.093 365.911 332.095 365.92 332.099 365.929C332.27 366.308 332.391 366.661 332.456 366.987C333.487 372.184 324.086 377.327 324.086 377.327L318.026 375.232L332.066 365.861"
       fill="#F27175"
       id="path168" />
    <path
       d="M288.182 285.107C288.058 284.764 287.802 284.416 287.438 284.38C287.097 284.348 286.8 284.595 286.547 284.827C285.96 285.361 285.374 285.898 284.79 286.43L286.928 290.251C287.295 289.566 287.596 288.842 287.852 288.101C288.186 287.133 288.523 286.075 288.182 285.107Z"
       fill="#CFC6E8"
       id="path170" />
    <path
       d="M289.745 366.859C290.012 368.842 286.228 370.989 281.291 371.656C276.357 372.321 272.139 371.254 271.869 369.271C271.604 367.288 275.387 365.14 280.323 364.473C285.26 363.809 289.478 364.878 289.745 366.859Z"
       fill="#F27175"
       id="path172" />
    <path
       d="M291.96 371.145C297.618 369.677 300.135 360.755 297.445 351.66C294.758 342.565 287.709 336.119 282.05 337.584C276.389 339.052 273.875 347.973 276.563 357.072C279.245 366.166 286.298 372.61 291.96 371.145V371.145ZM281.128 334.469C287.428 332.835 294.321 337.249 298.456 344.939C299.524 342.659 301.285 340.664 303.722 339.449C307.452 337.59 312.08 337.676 315.704 339.61C317.653 340.652 315.907 343.481 313.953 342.436C311.425 341.088 308.143 340.91 305.515 342.218C303.063 343.437 301.234 345.778 300.919 348.339C300.866 348.758 300.687 349.148 300.399 349.442C300.554 349.884 300.711 350.322 300.847 350.78C304.141 361.934 300.639 372.251 292.879 374.261C285.116 376.272 276.458 369.106 273.164 357.952C269.869 346.795 273.368 336.479 281.128 334.469Z"
       fill="#5B4BA9"
       id="path174" />
  </g>
  <defs
     id="defs181">
    <clipPath
       id="clip0">
      <rect
         width="1366"
         height="768"
         fill="white"
         transform="translate(-607 -62)"
         id="rect178" />
    </clipPath>
  </defs>
</svg>
