<svg width="911" height="743" viewBox="0 0 911 743" fill="none" xmlns="http://www.w3.org/2000/svg">
<path d="M577.476 105.487C577.476 163.4 530.528 210.349 472.611 210.349C414.699 210.349 367.749 163.4 367.749 105.487C367.749 47.5726 414.699 0.622761 472.611 0.622761C530.528 0.622761 577.476 47.5726 577.476 105.487Z" fill="#FFA43E"/>
<path d="M562.221 107.255C562.221 160.21 519.294 203.135 466.341 203.135C413.387 203.135 370.46 160.21 370.46 107.255C370.46 54.3016 413.387 11.3744 466.341 11.3744C519.294 11.3744 562.221 54.3016 562.221 107.255Z" fill="#FFC153"/>
<path d="M734.494 136.402C710.617 121.493 708.67 107.838 708.67 107.838C708.67 107.838 703.726 120.714 677.127 129.923C677.127 129.923 626.489 146.397 664.013 204.323L653.403 304.551H597.86C598.343 304.019 599.293 302.939 600.587 301.288C631.994 261.204 615.021 201.953 567.324 184.109C561.12 181.787 554.158 179.666 546.456 178.002C527.682 173.948 509.194 168.634 491.367 161.476C475.823 155.232 459.295 147.482 448.965 139.446L447.706 120.669C464.204 119.149 477.384 106.075 479.041 89.6006C473.945 98.9731 463.528 105.004 451.861 103.708C439.016 102.279 428.743 91.6535 427.701 78.7728C426.715 66.5637 433.718 55.8773 444.038 51.3876C425.059 51.601 409.755 67.0511 409.755 86.0925C409.755 104.121 423.496 118.947 441.093 120.651L439.831 139.446C429.504 147.482 412.974 155.232 397.429 161.476C379.603 168.634 361.114 173.948 342.34 178.002C334.639 179.666 327.678 181.787 321.473 184.109C273.777 201.953 256.802 261.204 288.21 301.288C289.504 302.939 290.454 304.019 290.937 304.551H235.396L224.784 204.323C262.307 146.397 211.67 129.923 211.67 129.923C185.07 120.714 180.127 107.838 180.127 107.838C180.127 107.838 178.18 121.493 154.305 136.402C154.305 136.402 108.299 163.936 158.604 212.336L158.871 212.305L163.17 304.551L173.054 516.684H257.856H444.397H630.941H715.742H715.744L725.629 304.551L729.925 212.305L730.193 212.336C780.498 163.936 734.494 136.402 734.494 136.402" fill="#2F3274"/>
<path d="M209.489 200.429L170.101 202.814C165.499 203.093 165.468 210.316 170.101 210.035L209.489 207.65C214.091 207.369 214.122 200.148 209.489 200.429" fill="#4C4197"/>
<path d="M188.909 185.601C187.483 185.763 186.196 184.737 186.034 183.308L184.983 174.005C184.821 172.579 185.848 171.292 187.276 171.13C188.702 170.969 189.989 171.995 190.151 173.421L191.202 182.724C191.361 184.153 190.337 185.44 188.909 185.601" fill="#4C4197"/>
<path d="M173.704 188.177C172.307 188.516 170.903 187.658 170.564 186.261L168.356 177.163C168.017 175.768 168.875 174.362 170.272 174.023C171.667 173.686 173.073 174.542 173.412 175.939L175.617 185.037C175.957 186.432 175.099 187.838 173.704 188.177Z" fill="#4C4197"/>
<path d="M158.474 192.483C157.146 193.029 155.626 192.398 155.078 191.07L151.507 182.417C150.961 181.087 151.592 179.569 152.92 179.021C154.247 178.473 155.767 179.104 156.315 180.431L159.887 189.087C160.432 190.415 159.801 191.935 158.474 192.483Z" fill="#4C4197"/>
<path d="M204.307 184.721C205.743 184.739 206.924 183.589 206.942 182.154L207.063 172.793C207.081 171.357 205.933 170.178 204.498 170.158C203.061 170.14 201.882 171.29 201.864 172.725L201.74 182.086C201.722 183.522 202.87 184.701 204.307 184.721Z" fill="#4C4197"/>
<path d="M220.115 185.52C221.53 185.758 222.87 184.802 223.109 183.387L224.658 174.153C224.896 172.738 223.942 171.398 222.525 171.16C221.11 170.921 219.769 171.876 219.531 173.293L217.979 182.524C217.741 183.941 218.697 185.282 220.115 185.52Z" fill="#4C4197"/>
<path d="M699.888 185.601C701.317 185.763 702.603 184.737 702.763 183.308L703.814 174.005C703.976 172.579 702.949 171.292 701.521 171.13C700.097 170.969 698.808 171.995 698.646 173.421L697.595 182.724C697.436 184.153 698.46 185.44 699.888 185.601" fill="#4C4197"/>
<path d="M715.093 188.177C716.49 188.516 717.894 187.658 718.235 186.261L720.441 177.163C720.78 175.768 719.922 174.362 718.527 174.023C717.132 173.686 715.726 174.542 715.385 175.939L713.18 185.037C712.84 186.432 713.698 187.838 715.093 188.177Z" fill="#4C4197"/>
<path d="M730.326 192.483C731.651 193.029 733.171 192.398 733.719 191.07L737.29 182.417C737.836 181.087 737.205 179.569 735.878 179.021C734.55 178.473 733.03 179.104 732.484 180.431L728.913 189.087C728.365 190.415 728.996 191.935 730.326 192.483Z" fill="#4C4197"/>
<path d="M684.489 184.721C683.054 184.739 681.873 183.589 681.857 182.154L681.734 172.793C681.716 171.357 682.866 170.178 684.301 170.158C685.736 170.14 686.915 171.29 686.935 172.725L687.057 182.086C687.075 183.522 685.927 184.701 684.489 184.721Z" fill="#4C4197"/>
<path d="M668.685 185.52C667.267 185.758 665.927 184.802 665.688 183.387L664.139 174.153C663.901 172.738 664.855 171.398 666.272 171.16C667.69 170.921 669.03 171.876 669.269 173.293L670.818 182.524C671.056 183.941 670.1 185.282 668.685 185.52Z" fill="#4C4197"/>
<path d="M679.531 199.591L718.781 203.659C723.368 204.133 723.089 211.351 718.474 210.873L679.225 206.806C674.639 206.329 674.915 199.113 679.531 199.591" fill="#4C4197"/>
<path d="M209.266 199.591L170.016 203.659C165.43 204.133 165.708 211.351 170.326 210.873L209.574 206.806C214.16 206.329 213.882 199.113 209.266 199.591" fill="#4C4197"/>
<path d="M318.257 305.884C316.747 305.884 315.467 304.721 315.35 303.189C315.229 301.581 316.431 300.18 318.039 300.058C318.535 300.02 368.65 289.895 444.397 289.895C520.15 289.895 570.259 300.02 570.758 300.058C572.366 300.18 573.57 301.581 573.446 303.189C573.323 304.793 571.982 305.976 570.313 305.878C569.821 305.839 519.907 295.732 444.397 295.732C368.87 295.732 318.978 305.839 318.481 305.878C318.407 305.882 318.333 305.884 318.257 305.884Z" fill="#4C4197"/>
<path d="M444.397 378.738C444.397 378.738 343.003 375.54 383.729 516.684H444.397H505.07C545.794 375.54 444.397 378.738 444.397 378.738Z" stroke="#4C4197" stroke-width="3.78511" stroke-miterlimit="10"/>
<path d="M107.508 290.72C105.198 289.024 100.894 290.158 98.4403 291.032C95.983 291.905 93.5466 293.291 91.6523 295.149C89.8398 294.089 88.094 293.015 86.0479 292.325C83.581 291.494 81.1025 291.274 78.5152 291.42C77.2325 291.494 77.2509 293.293 78.5152 293.401C82.5932 293.745 87.993 295.362 90.6996 298.614C91.3251 299.364 92.5534 299.218 93.2009 298.614C95.1697 296.773 97.2279 295.265 99.8256 294.432C101.041 294.041 102.292 293.774 103.566 293.693C104.935 293.606 106.222 293.698 107.508 293.152C108.588 292.692 108.247 291.261 107.508 290.72" fill="#4C4197"/>
<path d="M66.049 329.687C64.0391 329.615 61.9766 330.815 60.3833 331.953C59.2751 332.744 58.2593 333.651 57.3573 334.662C55.1333 332.351 52.2652 330.815 48.9569 330.631C47.7277 330.563 47.4829 332.474 48.6674 332.771C51.6512 333.514 54.449 335.248 56.0369 337.943C56.5117 338.75 57.8723 339.078 58.5313 338.265C59.6024 336.942 60.7561 335.709 62.1738 334.752C63.6224 333.773 65.335 333.274 66.7563 332.29C67.8819 331.513 67.4905 329.737 66.049 329.687" fill="#4C4197"/>
<path d="M832.066 337.148C826.392 336.591 821.521 341.104 819.203 346.164C817.105 344.412 814.808 342.88 812.124 342.287C808.973 341.593 804.773 342.033 802.956 345.068C802.203 346.328 803.677 347.651 804.899 347.008C807.187 345.802 809.352 345.308 811.863 346.263C814.511 347.271 816.638 349.438 818.657 351.345C819.785 352.41 821.813 352.005 822.206 350.409C823.563 344.908 828.003 342.002 832.699 339.475C833.881 338.837 833.209 337.261 832.066 337.148" fill="#4C4197"/>
<path d="M767.242 308.458C765.196 307.724 762.822 309.193 761.356 310.504C760.545 311.23 759.858 312.124 759.334 313.103C756.349 310.996 751.952 310.823 749.335 313.655C748.396 314.675 749.634 316.521 750.885 315.663C753.392 313.945 757.115 314.457 758.566 317.069C759.242 318.286 761.376 318.111 761.666 316.665C761.953 315.225 762.618 314.008 763.707 313.022C764.844 311.993 766.331 311.787 767.573 310.978C768.606 310.304 768.365 308.862 767.242 308.458" fill="#4C4197"/>
<path d="M798.66 274.131C796.009 273.178 792.935 275.081 791.03 276.781C789.977 277.722 789.089 278.881 788.409 280.15C784.544 277.419 778.837 277.196 775.447 280.869C774.23 282.187 775.836 284.583 777.458 283.469C780.705 281.244 785.534 281.906 787.414 285.291C788.29 286.872 791.057 286.645 791.432 284.768C791.803 282.903 792.665 281.325 794.078 280.044C795.551 278.713 797.48 278.445 799.089 277.394C800.427 276.52 800.117 274.652 798.66 274.131" fill="#4C4197"/>
<path d="M98.1828 240.012C98.7555 238.359 99.0828 236.589 99.0828 234.741C99.0828 225.842 91.8694 218.628 82.9715 218.628C78.2498 218.628 74.0148 220.672 71.0679 223.911C67.2225 215.904 59.0607 210.363 49.5838 210.363C36.4123 210.363 25.7352 221.04 25.7352 234.211C25.7352 236.212 26.0098 238.148 26.4747 240.005H24.6569C19.0974 240.005 14.5913 244.513 14.5913 250.072C14.5913 255.633 19.0974 260.14 24.6569 260.14H98.1309C103.691 260.14 108.198 255.633 108.198 250.072C108.198 244.531 103.718 240.041 98.1828 240.012" fill="white"/>
<path d="M108.2 250.063C108.2 255.624 103.687 260.136 98.1266 260.136H24.6507C21.88 260.136 19.3621 259.002 17.5363 257.178C15.7106 255.352 14.5981 252.832 14.5981 250.063C14.5981 244.522 19.0892 240.01 24.6507 240.01H26.4764C26.0149 238.141 25.7422 236.21 25.7422 234.217C25.7422 231.909 26.0773 229.685 26.6862 227.585C30.1699 240.807 47.5895 250.84 68.5561 250.84C81.7976 250.84 93.6135 246.831 101.421 240.556C102.89 241.059 104.191 241.899 105.262 242.97C107.087 244.774 108.2 247.294 108.2 250.063" fill="#CFC6E8"/>
<path d="M380.077 118.956C380.077 123.99 375.983 128.106 370.929 128.106H304.17C299.114 128.106 295.022 123.99 295.022 118.956C295.022 113.903 299.114 109.808 304.17 109.808H305.816C305.38 108.117 305.131 106.356 305.131 104.526C305.131 101.096 305.931 97.8464 307.348 94.9671C310.894 87.7867 318.281 82.868 326.811 82.868C335.434 82.868 342.843 87.899 346.342 95.1715C349.02 92.2225 352.86 90.3696 357.161 90.3696C365.233 90.3696 371.798 96.9323 371.798 105.007C371.798 106.698 371.5 108.299 370.974 109.808C372.78 109.808 374.473 110.336 375.868 111.273C378.408 112.897 380.077 115.733 380.077 118.956" fill="#CFC6E8"/>
<path d="M375.869 111.273C368.596 117.562 358.19 121.497 346.664 121.497C326.949 121.497 310.574 110.038 307.348 94.9673C310.895 87.7869 318.282 82.8682 326.812 82.8682C335.434 82.8682 342.844 87.8992 346.343 95.1717C349.02 92.2227 352.861 90.3698 357.162 90.3698C365.234 90.3698 371.799 96.9325 371.799 105.007C371.799 106.698 371.5 108.299 370.975 109.809C372.78 109.809 374.474 110.336 375.869 111.273" fill="white"/>
<path d="M910.881 305.639C910.881 311.156 906.425 315.634 900.909 315.634H828.009C822.493 315.634 818.035 311.156 818.035 305.639C818.035 303.477 818.734 301.451 819.926 299.807C821.728 297.284 824.676 295.665 828.009 295.665H829.811C829.359 293.819 829.088 291.905 829.088 289.902C829.088 276.844 839.671 266.261 852.729 266.261C862.139 266.261 870.243 271.754 874.05 279.703C876.976 276.482 881.187 274.456 885.868 274.456C892.983 274.456 898.993 279.094 901.042 285.533C901.561 287.088 901.832 288.729 901.832 290.441C901.832 292.265 901.516 294.021 900.952 295.665C906.448 295.688 910.881 300.146 910.881 305.639" fill="#CFC6E8"/>
<path d="M901.042 285.533C897.082 300.662 878.373 312.101 855.88 312.101C841.315 312.101 828.322 307.304 819.926 299.807C821.728 297.284 824.676 295.665 828.009 295.665H829.811C829.359 293.819 829.088 291.905 829.088 289.902C829.088 276.844 839.671 266.261 852.729 266.261C862.139 266.261 870.243 271.754 874.05 279.703C876.976 276.482 881.187 274.456 885.868 274.456C892.983 274.456 898.993 279.094 901.042 285.533" fill="white"/>
<path d="M878.553 472.541C884.835 462.982 890.066 452.736 894.126 442.045C896.238 436.491 897.998 430.121 895.393 424.778C892.024 417.87 882.926 415.978 875.292 416.902C864.866 418.161 854.932 423.174 847.722 430.813C850.559 424.821 853.396 418.831 856.235 412.841C857.052 411.111 857.894 409.245 857.584 407.356C856.935 403.405 851.929 401.977 847.936 402.247C836.34 403.028 825.651 411.549 822.307 422.683C823.89 413.818 824.326 404.746 823.605 395.769C823.401 393.245 823.066 390.615 821.631 388.528C819.021 384.735 813.415 384.009 809.172 385.799C804.932 387.589 801.824 391.295 799.209 395.084C797.094 398.15 795.196 401.359 793.527 404.686C792.541 403.197 791.485 401.755 790.266 400.427C783.672 393.238 772.604 389.404 763.817 393.647C754.063 398.354 750.616 411.046 752.585 421.697C748.149 417.724 743.716 413.748 739.278 409.773C737.667 408.331 735.686 406.781 733.578 407.257C731.511 407.724 730.382 409.896 729.53 411.839C726.615 418.487 723.628 426.937 721.919 435.664C720.973 433.859 719.996 432.066 718.997 430.288C718.119 428.733 717.135 427.103 715.533 426.314C712.513 424.823 709.016 426.972 706.451 429.158C688.402 444.531 676.927 466.569 670.935 489.509C664.941 512.447 664.065 536.407 664.408 560.116C664.653 577.093 665.641 594.244 669.525 610.826C672.251 622.462 676.402 639.527 682.996 649.636C699.05 674.245 760.156 653.69 780.516 647.044C814.464 635.96 848.279 618.722 875.117 594.868C885.771 585.403 896.058 573.345 902.331 560.507C909.718 545.389 910.816 526.402 897.711 513.966C894.762 511.167 890.713 508.811 886.796 509.896C894.104 506.806 900.885 501.17 904.078 493.77C907.328 486.232 906.246 476.573 900.208 471.012C894.174 465.448 883.193 465.772 878.553 472.541" fill="#4C4197"/>
<path d="M780.517 647.044C814.465 635.96 848.28 618.722 875.117 594.868C876.508 593.637 877.887 592.355 879.252 591.036C872.537 580.97 857.718 577.695 845.012 576.047C845.257 566.807 858.228 559.411 854.239 551.074C853.183 548.864 851.067 547.33 848.855 546.276C841.192 542.631 831.377 544.125 825.144 549.883C826.056 542.126 830.016 535.121 833.551 528.154C837.084 521.187 840.336 513.633 839.651 505.856C838.968 498.073 833.01 490.23 825.201 490.1C821.358 490.037 817.708 491.782 814.489 493.884C806.294 499.246 799.846 507.235 796.338 516.378C795.394 509.615 796.187 502.666 794.848 495.969C793.512 489.274 789.186 482.412 782.462 481.21C777.031 480.24 771.609 483.25 767.69 487.131C756.46 498.242 754.347 515.506 754.571 531.302C754.389 526.058 746.281 524.607 742.461 528.207C738.643 531.806 738.129 537.598 737.861 542.838C739.121 534.186 726.957 528.248 719.438 532.717C711.92 537.185 709.856 547.568 712.125 556.013C708.841 549.335 704.893 542.986 700.358 537.086C699.008 535.329 697.488 533.528 695.377 532.845C691.242 531.511 687.208 534.977 684.407 538.299C675.758 548.551 669.186 560.408 664.775 573.044C665.343 585.749 666.626 598.446 669.525 610.826C672.252 622.462 676.403 639.527 682.997 649.636C699.051 674.245 760.157 653.69 780.517 647.044" fill="#2F3274"/>
<path d="M248.926 524.766C246.505 501.181 242.842 477.487 234.217 455.4C225.593 433.315 211.629 412.764 191.912 399.598C189.109 397.727 185.387 396 182.56 397.831C181.062 398.801 180.273 400.535 179.584 402.181C176.424 409.741 173.708 417.485 171.456 425.364C170.279 416.957 165.598 409.097 158.77 404.052C154.95 401.231 149.322 399.396 145.681 402.446C144.288 403.612 143.457 405.308 142.779 406.992C140.443 412.785 139.428 419.102 139.83 425.335C137.187 420.56 131.17 417.93 125.869 419.233C120.569 420.535 116.457 425.656 116.328 431.112C116.357 411.257 108.919 391.479 95.8155 376.561C92.7772 373.105 89.2582 369.785 84.8383 368.501C80.4174 367.218 74.9314 368.593 72.782 372.662C71.6001 374.902 71.5738 377.554 71.6659 380.085C71.9932 389.085 73.4856 398.042 76.0894 406.664C71.4703 395.996 59.864 388.78 48.2544 389.352C44.2554 389.55 39.4519 391.553 39.2678 395.551C39.1793 397.462 40.232 399.219 41.2462 400.84C44.7625 406.46 48.2788 412.079 51.7954 417.699C43.7458 410.954 33.2957 407.134 22.7915 407.093C15.1043 407.066 6.28791 410.006 3.74637 417.261C1.78114 422.869 4.27102 428.989 7.01448 434.263C12.2934 444.408 18.6848 453.973 26.0367 462.733C20.6395 456.552 9.6955 457.513 4.34829 463.739C-0.998253 469.965 -0.949964 479.688 3.15859 486.792C7.19169 493.77 14.5805 498.578 22.2029 500.797C18.1855 500.175 14.4367 502.987 11.8328 506.109C0.266006 519.989 3.56916 538.716 12.6687 552.873C20.3955 564.893 32.0158 575.669 43.6984 583.829C73.1328 604.395 108.729 617.577 143.734 624.627C164.729 628.856 227.816 642.152 240.892 615.843C246.264 605.033 248.398 587.6 249.748 575.728C251.675 558.806 250.66 541.656 248.926 524.766" fill="#4C4197"/>
<path d="M249.748 575.728C251.675 558.806 250.66 541.656 248.926 524.766C247.248 508.429 244.933 492.054 240.827 476.186C227.201 464.639 211.679 455.856 194.149 453.758C178.789 451.921 160.068 458.207 156.623 473.289C149.488 469.781 140.499 474.333 136.371 481.129C132.239 487.924 131.713 496.234 131.295 504.175C130.633 498.441 129.894 492.485 126.801 487.614C123.708 482.74 117.525 479.308 112.093 481.26C107.251 483 104.553 488.451 104.439 493.595C104.387 495.96 104.781 498.282 105.392 500.566C99.0754 484.698 88.3413 470.104 72.4036 464.799C69.0075 463.669 65.0263 463.072 62.0467 465.055C60.2342 466.263 59.098 468.24 58.161 470.207C48.8043 489.873 55.0027 515.688 72.2711 528.964C66.8817 525.261 58.0242 522.305 55.108 528.156C53.7867 530.808 54.6815 533.988 55.7264 536.758C61.5643 552.244 71.6344 566.11 84.5521 576.451C73.5187 571.251 59.6999 580.772 57.5865 592.707C83.9906 608.252 114.067 618.65 143.733 624.627C164.729 628.856 227.816 642.152 240.892 615.843C246.264 605.033 248.398 587.6 249.748 575.728" fill="#2F3274"/>
<path d="M454.471 454.703C454.471 454.703 406.501 497.554 393.071 499.892C379.64 502.23 340.236 449.996 339.619 449.019L372.605 596.047L408.422 613.316L460.286 560.487L454.471 454.703Z" fill="#CFC6E8"/>
<path d="M734.536 309.567C726.502 298.523 690.358 295.511 690.358 295.511V279.446C647.184 247.317 589.956 270.41 584.934 274.426C579.915 278.442 584.934 290.788 584.934 290.788L535.739 308.563C455.697 368.986 416.769 484.824 400.955 579.943C396.423 607.212 393.474 634.875 391.538 662.968C389.937 686.212 388.612 709.597 389.13 732.91C389.153 733.963 389.153 735.077 389.146 736.216C415.667 741.348 441.915 743.634 467.214 742.821C560.39 739.839 641.182 711.236 706.004 665.692L711.762 661.596C712.072 661.371 712.371 661.138 712.679 660.913C663.739 499.232 742.568 320.61 734.536 309.567" fill="white"/>
<path d="M400.955 578.293C396.423 605.561 393.474 633.225 391.538 661.315C389.937 684.561 388.612 707.946 389.13 731.259C389.153 732.312 389.153 733.426 389.146 734.565C415.667 739.699 441.915 741.981 467.214 741.171C474.298 740.944 481.303 740.553 488.241 740.032C461.269 717.258 416.181 626.177 400.955 578.293" fill="#CFC6E8"/>
<path d="M442.74 742.655C442.722 742.556 415.503 586.142 370.487 502.812C325.455 419.455 307.903 400.376 280.428 401.901C252.951 403.428 225.473 413.351 210.973 430.903C196.476 448.453 184.174 650.15 184.168 650.249C276.704 710.365 357.651 731.601 442.74 742.655Z" fill="white"/>
<path d="M239.558 466.226C239.558 466.226 198.421 517.54 197.385 519.092C197.253 519.294 195.88 522.112 193.612 526.854C187.876 581.455 184.172 650.193 184.168 650.25C223.863 682.279 268.091 696.292 313.417 714.035C240.562 653.753 239.607 466.823 239.558 466.226Z" fill="#CFC6E8"/>
<path d="M710.374 364.833L679.063 368.258C679.063 368.258 633.382 583.703 607.302 716.732C643.316 703.816 676.337 686.535 706.004 665.693L711.762 661.596C712.072 661.371 712.371 661.138 712.679 660.913C680.164 553.495 704.045 438.614 721.382 370.354C714.914 367.767 710.085 365.709 710.374 364.833" fill="#CFC6E8"/>
<path d="M696.66 554.483L595.405 495.421C595.405 495.421 602.141 584.298 701.748 632.569C703.147 633.247 704.503 633.885 705.833 634.503C699.969 607.744 697.215 580.801 696.66 554.483Z" fill="#CFC6E8"/>
<path d="M514.474 504.167C513.656 504.189 498.662 493.292 498.676 492.631C498.689 491.969 493.851 470.032 495.536 469.484C497.22 468.936 505.007 472.981 507.311 477.824L507.469 462.648C507.469 462.648 514.905 462.163 517.796 469.673C517.796 469.673 525.196 458.111 525.771 458.472C526.348 458.834 531.422 463.764 528.841 471.924C528.841 471.924 534.095 478.356 536.837 481.732C539.584 485.107 537.989 482.522 540.956 486.477C541.34 486.99 514.474 504.167 514.474 504.167" fill="#F27175"/>
<path d="M611.688 459.157C611.688 459.157 602.17 444.424 583.912 445.358C565.655 446.29 540.927 469.154 540.927 469.154C540.927 469.154 524.493 469.486 515.581 475.551C513.243 477.143 514.121 480.808 516.902 481.314L537.176 484.984L506.867 495.421C506.867 495.421 489.604 484.013 481.674 494.313C481.674 494.313 498.469 511.145 503.601 511.61C508.733 512.077 544.195 495.095 554.459 495.421C564.723 495.749 588.719 487.108 596.784 491.427C596.784 491.427 615.262 471.553 611.688 459.157" fill="#F4AF9A"/>
<path d="M611.689 459.158C611.689 459.158 607.761 453.119 600.149 449.02C601.755 455.048 602.824 461.233 601.425 467.241C599.749 474.435 594.646 480.474 588.558 484.654C582.559 488.771 575.621 491.282 568.678 493.474C579.318 491.343 591.484 488.589 596.785 491.428C596.785 491.428 615.262 471.553 611.689 459.158" fill="#F27175"/>
<path d="M734.537 309.567C734.537 309.567 789.311 399.208 810.037 507.264C830.759 615.318 805.595 650.101 765.63 644.181C725.663 638.26 613.91 550.928 595.405 495.421C595.405 495.421 605.768 464.337 611.689 459.158L691.618 488.021C691.618 488.021 636.832 327.982 734.537 309.567" fill="white"/>
<path d="M810.037 507.264C795.205 429.933 762.937 362.044 745.782 329.682C773.379 399.927 787.245 475.546 786.196 551.013C786.026 563.169 784.968 576.548 776.386 585.159C763.979 597.606 743.155 593.59 726.653 587.537C681.157 570.843 639.025 545.1 603.287 512.383C634.935 567.117 729.544 638.835 765.63 644.181C805.595 650.101 830.759 615.318 810.037 507.264" fill="#CFC6E8"/>
<path d="M584.935 290.789C584.935 290.789 585.391 309.774 631.842 307.966C678.291 306.156 690.358 295.512 690.358 295.512C690.358 295.512 653.257 324.27 614.348 320.649C575.439 317.031 584.935 290.789 584.935 290.789" fill="#CFC6E8"/>
<path d="M600.618 309.568C600.618 309.568 555.063 377.612 551.479 403.079L555.62 405.269C555.62 405.269 596.414 325.961 607.302 313.765L600.618 309.568Z" fill="#CFC6E8"/>
<path d="M606.512 340.872C603.113 340.432 600.715 337.323 601.153 333.927C601.591 330.532 604.699 328.133 608.097 328.571C611.493 329.009 613.892 332.117 613.454 335.513C613.016 338.911 609.905 341.31 606.512 340.872Z" fill="#CFC6E8"/>
<path d="M596.292 364.783C592.894 364.345 590.498 361.234 590.933 357.838C591.371 354.442 594.48 352.044 597.878 352.481C601.276 352.919 603.672 356.028 603.237 359.426C602.796 362.822 599.69 365.221 596.292 364.783Z" fill="#CFC6E8"/>
<path d="M580.732 393.659C577.334 393.221 574.935 390.113 575.373 386.717C575.814 383.319 578.92 380.92 582.318 381.358C585.716 381.796 588.113 384.907 587.675 388.302C587.239 391.698 584.128 394.097 580.732 393.659Z" fill="#CFC6E8"/>
<path d="M295.935 558.4C295.935 558.4 306.819 530.86 316.618 527.363C326.415 523.861 361.759 517.914 363.509 520.012C365.259 522.114 363.86 530.86 360.01 532.259C356.16 533.661 356.16 533.661 356.16 533.661C356.16 533.661 349.86 563.056 346.711 570.755C343.563 578.452 314.015 578.209 308.593 580.202C303.171 582.196 295.935 583.703 295.935 583.703C295.935 583.703 285.403 563.195 295.935 558.4" fill="#F4AF9A"/>
<path d="M350.128 552.024C344.567 559.525 334.433 562.025 325.098 562.243C320.89 562.339 316.577 562.061 312.692 560.437C308.806 558.816 305.381 555.658 304.312 551.586C303.31 547.765 304.454 543.738 305.725 539.996C306.032 539.087 306.36 538.177 306.699 537.272C300.667 546.431 295.935 558.4 295.935 558.4C285.403 563.195 295.935 583.703 295.935 583.703C295.935 583.703 303.171 582.196 308.593 580.202C314.015 578.209 343.563 578.452 346.711 570.755C348.439 566.533 351.109 555.797 353.173 546.95C352.23 548.691 351.302 550.442 350.128 552.024" fill="#F27175"/>
<path d="M210.973 430.903C210.973 430.903 116.396 551.438 104.789 601.739C93.1796 652.039 97.0487 699.248 148.124 694.605C199.202 689.96 306.771 597.869 306.771 595.546C306.771 593.226 295.934 558.4 295.934 558.4L219.322 575.427C219.322 575.427 270.725 430.322 210.973 430.903Z" fill="white"/>
<path d="M300.183 572.238C299.611 575.133 297.266 578.827 293.546 583.048C291.961 577.161 290.779 571.164 290.054 565.1C289.892 563.759 287.765 563.744 287.927 565.1C288.731 571.8 290.054 578.412 291.864 584.889C257.867 621.009 132.326 690.823 122.32 644.816C110.932 592.454 195.582 451.106 195.588 451.092C168.298 487.58 113.45 564.204 104.789 601.739C93.1796 652.039 97.0487 699.248 148.124 694.605C199.202 689.96 306.771 597.869 306.771 595.546C306.771 594.217 303.22 582.239 300.183 572.238" fill="#CFC6E8"/>
<path d="M287.193 481.169C288.111 481.169 315.011 468.708 327.546 466.226L329.992 476.888L290.252 494.314L287.193 481.169" fill="#CFC6E8"/>
<path d="M677.487 282.245C677.487 286.964 659.42 290.789 637.136 290.789C614.851 290.789 596.784 286.964 596.784 282.245C596.784 277.524 614.851 269.428 637.136 269.428C659.42 269.428 677.487 277.524 677.487 282.245Z" fill="#CFC6E8"/>
<path d="M620.512 465.698C617.414 477.584 611.674 488.679 603.718 498.038C602.836 499.075 604.332 500.585 605.219 499.543C605.502 499.21 605.787 498.875 606.07 498.545C606.126 498.478 606.146 498.411 606.182 498.343C613.87 488.957 619.499 478.015 622.56 466.264C622.904 464.939 620.855 464.373 620.512 465.698" fill="#CFC6E8"/>
<path d="M234.767 447.219C230.855 439.827 224.678 433.716 217.303 429.795C216.097 429.154 215.021 430.987 216.231 431.632C231.216 439.6 239.704 456.456 236.977 473.263C236.762 474.602 238.808 475.174 239.028 473.827C240.499 464.758 239.075 455.358 234.767 447.219" fill="#CFC6E8"/>
<path d="M720.775 310.208C703.151 313.752 692.164 329.64 685.653 345.182C683.517 350.283 681.7 355.509 679.892 360.733C679.441 362.029 681.493 362.586 681.94 361.299C687.564 345.065 693.873 327.329 708.921 317.435C712.715 314.942 716.885 313.152 721.339 312.256C722.678 311.987 722.11 309.938 720.775 310.208" fill="#CFC6E8"/>
<path d="M683.665 243.379L677.487 282.245C677.487 282.245 672.429 295.207 612.549 289.019L617.485 250.065L683.665 243.379Z" fill="#F4AF9A"/>
<path d="M667.674 246.808C645.124 261.367 615.666 264.468 615.666 264.468L617.494 250.06L617.708 250.038C633.582 249.445 653.773 248.38 667.674 246.808" fill="#F27175"/>
<path d="M600.875 105.485C600.875 105.485 582.568 153.733 581.126 174.439C581.126 174.439 567.619 190.882 567.547 196.355C567.477 201.828 577.988 205.287 577.988 205.287C577.988 205.287 581.267 248.154 593.167 250.6C595.136 251.006 677.983 248.792 683.666 243.379C689.35 237.966 718.013 202.022 718.013 202.022C718.013 202.022 725.306 75.0365 600.875 105.485" fill="#F4AF9A"/>
<path d="M600.874 105.485C600.874 105.485 600.207 107.246 599.123 110.226C599.125 110.226 627.736 110.004 669.561 146.425L669.08 183.303L660.231 186.41L660.175 190.648L667.375 196.997L668.712 193.294C668.712 193.294 675.306 178.944 680.687 176.55C686.071 174.156 703.637 172.042 703.637 172.042L713.616 191.34L699.086 218.819L680.943 218.954C680.943 218.954 678.906 231.7 688.553 238.006C698.592 226.379 718.013 202.021 718.013 202.021C718.013 202.021 725.306 75.0363 600.874 105.485" fill="#F27175"/>
<path d="M661.778 125.205C662.268 126.213 671.048 145.65 668.88 157.917C666.713 170.183 660.231 186.41 660.231 186.41L668.712 193.294L679.836 183.903C679.836 183.903 672.368 224.288 692.407 233.474C701.55 222.584 714.283 206.693 717.333 202.875C717.607 202.462 717.838 202.111 718.024 201.826C718.114 199.868 718.772 181.794 713.225 161.446C692.988 146.295 661.778 125.205 661.778 125.205Z" fill="#6E5BB3"/>
<path d="M718.027 201.817C717.847 202.109 717.6 202.468 717.331 202.873C715.287 205.411 708.953 213.339 702.238 221.559C694.085 171.923 672.77 149.351 668.301 145.106C666.369 135.359 662.169 126.038 661.81 125.229C662.753 125.858 693.299 146.544 713.22 161.457C718.768 181.806 718.117 199.863 718.027 201.817" fill="#5B4BA9"/>
<path d="M600.874 105.485C602.229 105.164 699.005 124.899 705.272 217.494C705.272 217.494 738.168 208.104 752.767 178.154C753.344 176.97 753.652 175.683 753.717 174.369C754.409 160.123 753.257 76.7008 634.593 44.8507C632.365 44.2532 629.993 44.9899 628.491 46.7373C618.496 58.3647 582.435 102.242 598.646 112.048L600.874 105.485Z" fill="white"/>
<path d="M742.667 145.634C742.373 151.285 741.659 157.264 738.175 161.722C733.528 167.667 725.303 169.291 717.784 169.893C708.631 170.625 698.835 170.192 690.356 167.068C698.311 180.822 703.915 197.449 705.271 217.494C705.271 217.494 738.168 208.104 752.767 178.154C753.344 176.97 753.652 175.683 753.717 174.369C754.034 167.815 753.953 146.627 742.236 122.557C742.9 130.227 743.067 137.944 742.667 145.634" fill="#CFC6E8"/>
<path d="M680.337 183.036C680.337 183.036 696.101 167.676 708.2 184.912C720.3 202.145 694.779 236.187 672.173 212.546C672.173 212.546 670.464 194.149 680.337 183.036Z" fill="#F4AF9A"/>
<path d="M684 195.037C689.471 190.136 700.505 186.94 702.846 196.676C703.809 200.683 702.08 204.31 699.082 206.916C694.635 210.785 688.382 212.481 682.589 211.387C679.946 210.891 676.669 208.941 677.37 205.802C678.232 201.943 680.707 197.983 684 195.037" fill="#F27175"/>
<path d="M612.147 131.489C612.147 131.489 605.703 148.722 609.555 145.902C610.941 144.889 635.977 144.051 639.294 146.609C642.616 149.169 645.185 149.976 645.185 149.976C645.185 149.976 645.068 139.141 638.4 136.217C631.729 133.293 613.389 135.119 613.389 135.119L612.147 131.489" fill="#5B4BA9"/>
<path d="M627.545 176.22C623.035 171.627 615.695 170.942 610.494 174.791C610.029 175.135 609.793 175.694 610.092 176.24C610.345 176.696 611.082 176.981 611.542 176.642C615.989 173.349 622.121 173.727 626.022 177.702C626.981 178.679 628.504 177.197 627.545 176.22" fill="#2F3274"/>
<path d="M612.293 220.796C611.943 220.393 611.19 220.281 610.793 220.699C608.414 223.21 604.724 224.254 601.454 223.3C600.142 222.918 599.466 224.933 600.782 225.317C604.769 226.48 609.326 225.328 612.196 222.296C612.592 221.88 612.697 221.254 612.293 220.796" fill="#F27175"/>
<path d="M567.733 195.142C567.729 195.156 567.72 195.174 567.717 195.187C567.713 195.198 567.713 195.205 567.708 195.216C567.607 195.634 567.551 196.016 567.547 196.355C567.477 201.828 577.988 205.287 577.988 205.287L583.749 202.024L567.733 195.142Z" fill="#F27175"/>
<path d="M214.235 387.193L239.32 419.229C239.32 419.229 261.409 426.942 277.818 417.316C283.134 414.194 284.298 406.975 280.426 402.176L261.517 378.739L214.235 387.193Z" fill="#F4AF9A"/>
<path d="M274.15 394.412C274.15 394.412 258.02 400.914 227.416 390.245C237.638 389.801 253.088 387.993 267.413 386.059L274.15 394.412Z" fill="#F27175"/>
<path d="M270.735 243.658C270.735 243.658 296.655 286.376 301.671 305.835C301.671 305.835 317.426 319.115 318.457 324.315C319.486 329.512 310.086 334.655 310.086 334.655C310.086 334.655 314.506 376.044 303.609 380.469C301.803 381.201 222.536 393.671 216.171 389.518C209.808 385.365 176.19 356.185 176.19 356.185C176.19 356.185 146.903 236.565 270.735 243.658" fill="#F4AF9A"/>
<path d="M270.665 348.38C270.665 348.38 297.886 343.688 300.64 343.902C303.391 344.113 300.64 370.577 300.64 371.635C300.64 372.695 276.893 372.76 270.665 348.38Z" fill="#2F3274"/>
<path d="M272.279 353.261C280.203 372.729 300.639 372.617 300.639 371.635C300.639 371.314 300.893 368.623 301.169 365.05C291.17 352.834 277.865 352.607 272.279 353.261Z" fill="#F27175"/>
<path d="M298.603 344.028C291.595 344.773 270.665 348.38 270.665 348.38C271.312 350.909 272.154 353.162 273.131 355.19C279.683 354.224 296.972 352.014 298.052 350.492C298.6 349.719 298.686 346.961 298.603 344.028Z" fill="white"/>
<path d="M250.794 297.246C250.794 297.246 250.136 284.015 268.749 275.665L276.726 286.659L250.794 297.246" fill="#2F3274"/>
<path d="M270.735 243.657C270.735 243.657 271.68 245.218 273.237 247.862C273.234 247.864 245.955 252.686 212.541 294.724L219.486 329.752L228.459 331.151L229.258 335.176L223.522 342.491L221.595 339.199C221.595 339.199 212.795 326.698 207.248 325.366C201.7 324.034 184.606 325.11 184.606 325.11L178.499 345.24L197.168 368.85L214.466 365.782C214.466 365.782 218.648 377.562 210.574 385.264C198.971 375.956 176.19 356.185 176.19 356.185C176.19 356.185 146.903 236.565 270.735 243.657" fill="#F27175"/>
<path d="M216.216 273.152C215.928 274.198 210.989 294.248 215.209 305.547C219.43 316.845 228.458 331.152 228.458 331.152L221.595 339.199L209.354 332.216C209.354 332.216 223.569 369.353 206.106 381.625C195.483 372.866 180.565 359.974 176.99 356.879C176.657 356.533 176.376 356.239 176.147 356.001C175.716 354.153 171.909 337.061 173.609 316.71C190.212 298.722 216.216 273.152 216.216 273.152" fill="#2F3274"/>
<path d="M270.734 243.657C269.389 243.59 180.718 279.411 191.045 368.675C191.045 368.675 158.072 365.522 138.9 339.576C138.145 338.552 137.624 337.38 137.332 336.14C134.165 322.698 120.584 243.067 227.959 191.861C229.974 190.9 232.364 191.185 234.102 192.584C245.664 201.896 287.72 237.326 274.011 249.515L270.734 243.657Z" fill="white"/>
<path d="M180.86 273.048C170.887 266.685 162.815 257.472 157.587 246.869C128.248 287.396 135.181 327.015 137.333 336.14C137.625 337.38 138.146 338.552 138.9 339.576C158.072 365.522 191.045 368.675 191.045 368.675C186.704 331.147 199.86 303.07 216.667 283.128C204.096 283.272 191.467 279.815 180.86 273.048Z" fill="#CFC6E8"/>
<path d="M208.723 331.48C208.723 331.48 191.011 319.627 182.524 338.166C174.036 356.706 204.323 384.626 221.689 358.139C221.689 358.139 220.079 340.322 208.723 331.48Z" fill="#F4AF9A"/>
<path d="M207.348 343.547C201.275 339.848 190.207 338.745 189.691 348.425C189.479 352.41 191.764 355.561 195.076 357.515C199.993 360.414 206.246 360.929 211.569 358.869C213.996 357.93 216.775 355.5 215.553 352.632C214.053 349.11 211.003 345.775 207.348 343.547" fill="#F27175"/>
<path d="M264.034 313.366C267.518 308.2 274.386 306.257 280.019 309.009C280.522 309.253 280.843 309.745 280.652 310.318C280.493 310.794 279.842 311.196 279.345 310.954C274.53 308.602 268.76 310.039 265.746 314.511C265.002 315.612 263.293 314.466 264.034 313.366" fill="#2F3274"/>
<path d="M318.066 323.19C318.07 323.203 318.081 323.219 318.088 323.232C318.093 323.239 318.095 323.248 318.099 323.257C318.27 323.637 318.391 323.989 318.456 324.315C319.487 329.512 310.086 334.655 310.086 334.655L304.026 332.56L318.066 323.19" fill="#F27175"/>
<path d="M274.182 242.436C274.058 242.092 273.802 241.744 273.438 241.708C273.097 241.676 272.8 241.923 272.547 242.155C271.96 242.689 271.374 243.226 270.79 243.758L272.928 247.579C273.295 246.894 273.596 246.171 273.852 245.429C274.186 244.461 274.523 243.404 274.182 242.436Z" fill="#CFC6E8"/>
<path d="M275.745 324.187C276.012 326.17 272.228 328.317 267.291 328.984C262.357 329.649 258.139 328.582 257.869 326.599C257.604 324.616 261.387 322.469 266.323 321.802C271.26 321.137 275.478 322.206 275.745 324.187Z" fill="#F27175"/>
<path d="M277.96 328.473C283.618 327.006 286.135 318.083 283.445 308.989C280.758 299.893 273.709 293.447 268.05 294.912C262.389 296.38 259.875 305.302 262.563 314.401C265.245 323.494 272.298 329.939 277.96 328.473V328.473ZM267.128 291.797C273.428 290.164 280.321 294.578 284.456 302.267C285.524 299.987 287.285 297.992 289.722 296.777C293.452 294.918 298.08 295.004 301.704 296.938C303.653 297.98 301.907 300.809 299.953 299.764C297.425 298.416 294.143 298.239 291.515 299.546C289.063 300.765 287.234 303.106 286.919 305.667C286.866 306.086 286.687 306.477 286.399 306.77C286.554 307.212 286.711 307.651 286.847 308.108C290.141 319.262 286.639 329.579 278.879 331.589C271.116 333.6 262.458 326.434 259.164 315.28C255.869 304.123 259.368 293.807 267.128 291.797Z" fill="#5B4BA9"/>
</svg>
